<?xml version="1.0" encoding="UTF-8" standalone="no"?>
<!DOCTYPE svg PUBLIC "-//W3C//DTD SVG 1.1//EN"
 "http://www.w3.org/Graphics/SVG/1.1/DTD/svg11.dtd">
<!-- Generated by graphviz version 2.43.0 (0)
 -->
<!-- Title: &lt;module&gt; Pages: 1 -->
<svg width="752pt" height="764pt"
 viewBox="0.00 0.00 751.53 764.00" xmlns="http://www.w3.org/2000/svg" xmlns:xlink="http://www.w3.org/1999/xlink">
<g id="graph0" class="graph" transform="scale(1 1) rotate(0) translate(4 760)">
<title>&lt;module&gt;</title>
<polygon fill="white" stroke="transparent" points="-4,4 -4,-760 747.53,-760 747.53,4 -4,4"/>
<!-- 14 -->
<g id="node1" class="node">
<title>14</title>
<ellipse fill="none" stroke="black" cx="371.77" cy="-594" rx="256.15" ry="18"/>
<text text-anchor="start" x="182.77" y="-591.3" font-family="Times,serif" font-size="14.00">(&lt;operator&gt;.assignment,input = __builtins__.input)</text>
<text text-anchor="start" x="552.77" y="-591.3" font-family="Times,serif" baseline-shift="sub" font-size="14.00">1</text>
</g>
<!-- 16 -->
<g id="node7" class="node">
<title>16</title>
<ellipse fill="none" stroke="black" cx="371.77" cy="-522" rx="233.16" ry="18"/>
<text text-anchor="start" x="200.27" y="-519.3" font-family="Times,serif" font-size="14.00">(TYPE_REF,__builtins__.print,__builtins__.print)</text>
<text text-anchor="start" x="535.27" y="-519.3" font-family="Times,serif" baseline-shift="sub" font-size="14.00">1</text>
</g>
<!-- 14&#45;&gt;16 -->
<g id="edge1" class="edge">
<title>14&#45;&gt;16</title>
<path fill="none" stroke="black" d="M371.77,-575.7C371.77,-567.98 371.77,-558.71 371.77,-550.11"/>
<polygon fill="black" stroke="black" points="375.27,-550.1 371.77,-540.1 368.27,-550.1 375.27,-550.1"/>
</g>
<!-- 17 -->
<g id="node2" class="node">
<title>17</title>
<ellipse fill="none" stroke="black" cx="371.77" cy="-450" rx="252.66" ry="18"/>
<text text-anchor="start" x="185.27" y="-447.3" font-family="Times,serif" font-size="14.00">(&lt;operator&gt;.assignment,print = __builtins__.print)</text>
<text text-anchor="start" x="550.27" y="-447.3" font-family="Times,serif" baseline-shift="sub" font-size="14.00">1</text>
</g>
<!-- 19 -->
<g id="node8" class="node">
<title>19</title>
<ellipse fill="none" stroke="black" cx="371.77" cy="-378" rx="371.53" ry="18"/>
<text text-anchor="start" x="93.77" y="-375.3" font-family="Times,serif" font-size="14.00">(METHOD_REF,def process_name(...),process_name = def process_name(...))</text>
<text text-anchor="start" x="641.77" y="-375.3" font-family="Times,serif" baseline-shift="sub" font-size="14.00">1</text>
</g>
<!-- 17&#45;&gt;19 -->
<g id="edge2" class="edge">
<title>17&#45;&gt;19</title>
<path fill="none" stroke="black" d="M371.77,-431.7C371.77,-423.98 371.77,-414.71 371.77,-406.11"/>
<polygon fill="black" stroke="black" points="375.27,-406.1 371.77,-396.1 368.27,-406.1 375.27,-406.1"/>
</g>
<!-- 53 -->
<g id="node3" class="node">
<title>53</title>
<ellipse fill="none" stroke="black" cx="371.77" cy="-306" rx="315.44" ry="18"/>
<text text-anchor="start" x="137.27" y="-303.3" font-family="Times,serif" font-size="14.00">(&lt;operator&gt;.assignment,process_name = def process_name(...))</text>
<text text-anchor="start" x="598.27" y="-303.3" font-family="Times,serif" baseline-shift="sub" font-size="14.00">1</text>
</g>
<!-- 55 -->
<g id="node9" class="node">
<title>55</title>
<ellipse fill="none" stroke="black" cx="371.77" cy="-234" rx="249.66" ry="18"/>
<text text-anchor="start" x="187.77" y="-231.3" font-family="Times,serif" font-size="14.00">(METHOD_REF,def main(...),main = def main(...))</text>
<text text-anchor="start" x="539.77" y="-231.3" font-family="Times,serif" baseline-shift="sub" font-size="14.00">10</text>
</g>
<!-- 53&#45;&gt;55 -->
<g id="edge3" class="edge">
<title>53&#45;&gt;55</title>
<path fill="none" stroke="black" d="M371.77,-287.7C371.77,-279.98 371.77,-270.71 371.77,-262.11"/>
<polygon fill="black" stroke="black" points="375.27,-262.1 371.77,-252.1 368.27,-262.1 375.27,-262.1"/>
</g>
<!-- 71 -->
<g id="node4" class="node">
<title>71</title>
<ellipse fill="none" stroke="black" cx="371.77" cy="-162" rx="235.86" ry="18"/>
<text text-anchor="start" x="198.27" y="-159.3" font-family="Times,serif" font-size="14.00">(&lt;operator&gt;.assignment,main = def main(...))</text>
<text text-anchor="start" x="529.27" y="-159.3" font-family="Times,serif" baseline-shift="sub" font-size="14.00">10</text>
</g>
<!-- 73 -->
<g id="node5" class="node">
<title>73</title>
<ellipse fill="none" stroke="black" cx="371.77" cy="-90" rx="83.69" ry="18"/>
<text text-anchor="start" x="315.27" y="-87.3" font-family="Times,serif" font-size="14.00">(main,main())</text>
<text text-anchor="start" x="412.27" y="-87.3" font-family="Times,serif" baseline-shift="sub" font-size="14.00">14</text>
</g>
<!-- 71&#45;&gt;73 -->
<g id="edge4" class="edge">
<title>71&#45;&gt;73</title>
<path fill="none" stroke="black" d="M371.77,-143.7C371.77,-135.98 371.77,-126.71 371.77,-118.11"/>
<polygon fill="black" stroke="black" points="375.27,-118.1 371.77,-108.1 368.27,-118.1 375.27,-118.1"/>
</g>
<!-- 11 -->
<g id="node11" class="node">
<title>11</title>
<ellipse fill="none" stroke="black" cx="371.77" cy="-18" rx="135.68" ry="18"/>
<text text-anchor="start" x="275.27" y="-15.3" font-family="Times,serif" font-size="14.00">(METHOD_RETURN,ANY)</text>
<text text-anchor="start" x="460.27" y="-15.3" font-family="Times,serif" baseline-shift="sub" font-size="14.00">1</text>
</g>
<!-- 73&#45;&gt;11 -->
<g id="edge5" class="edge">
<title>73&#45;&gt;11</title>
<path fill="none" stroke="black" d="M371.77,-71.7C371.77,-63.98 371.77,-54.71 371.77,-46.11"/>
<polygon fill="black" stroke="black" points="375.27,-46.1 371.77,-36.1 368.27,-46.1 375.27,-46.1"/>
</g>
<!-- 13 -->
<g id="node6" class="node">
<title>13</title>
<ellipse fill="none" stroke="black" cx="371.77" cy="-666" rx="236.66" ry="18"/>
<text text-anchor="start" x="197.77" y="-663.3" font-family="Times,serif" font-size="14.00">(TYPE_REF,__builtins__.input,__builtins__.input)</text>
<text text-anchor="start" x="537.77" y="-663.3" font-family="Times,serif" baseline-shift="sub" font-size="14.00">1</text>
</g>
<!-- 13&#45;&gt;14 -->
<g id="edge6" class="edge">
<title>13&#45;&gt;14</title>
<path fill="none" stroke="black" d="M371.77,-647.7C371.77,-639.98 371.77,-630.71 371.77,-622.11"/>
<polygon fill="black" stroke="black" points="375.27,-622.1 371.77,-612.1 368.27,-622.1 375.27,-622.1"/>
</g>
<!-- 16&#45;&gt;17 -->
<g id="edge7" class="edge">
<title>16&#45;&gt;17</title>
<path fill="none" stroke="black" d="M371.77,-503.7C371.77,-495.98 371.77,-486.71 371.77,-478.11"/>
<polygon fill="black" stroke="black" points="375.27,-478.1 371.77,-468.1 368.27,-478.1 375.27,-478.1"/>
</g>
<!-- 19&#45;&gt;53 -->
<g id="edge8" class="edge">
<title>19&#45;&gt;53</title>
<path fill="none" stroke="black" d="M371.77,-359.7C371.77,-351.98 371.77,-342.71 371.77,-334.11"/>
<polygon fill="black" stroke="black" points="375.27,-334.1 371.77,-324.1 368.27,-334.1 375.27,-334.1"/>
</g>
<!-- 55&#45;&gt;71 -->
<g id="edge9" class="edge">
<title>55&#45;&gt;71</title>
<path fill="none" stroke="black" d="M371.77,-215.7C371.77,-207.98 371.77,-198.71 371.77,-190.11"/>
<polygon fill="black" stroke="black" points="375.27,-190.1 371.77,-180.1 368.27,-190.1 375.27,-190.1"/>
</g>
<!-- 7 -->
<g id="node10" class="node">
<title>7</title>
<ellipse fill="none" stroke="black" cx="371.77" cy="-738" rx="119.68" ry="18"/>
<text text-anchor="start" x="287.77" y="-735.3" font-family="Times,serif" font-size="14.00">(METHOD,&lt;module&gt;)</text>
<text text-anchor="start" x="447.77" y="-735.3" font-family="Times,serif" baseline-shift="sub" font-size="14.00">1</text>
</g>
<!-- 7&#45;&gt;13 -->
<g id="edge10" class="edge">
<title>7&#45;&gt;13</title>
<path fill="none" stroke="black" d="M371.77,-719.7C371.77,-711.98 371.77,-702.71 371.77,-694.11"/>
<polygon fill="black" stroke="black" points="375.27,-694.1 371.77,-684.1 368.27,-694.1 375.27,-694.1"/>
</g>
</g>
</svg>
