<?xml version="1.0" encoding="UTF-8" standalone="no"?>
<!DOCTYPE svg PUBLIC "-//W3C//DTD SVG 1.1//EN"
 "http://www.w3.org/Graphics/SVG/1.1/DTD/svg11.dtd">
<!-- Generated by graphviz version 2.43.0 (0)
 -->
<!-- Title: &lt;module&gt; Pages: 1 -->
<svg width="2674pt" height="204pt"
 viewBox="0.00 0.00 2674.36 204.00" xmlns="http://www.w3.org/2000/svg" xmlns:xlink="http://www.w3.org/1999/xlink">
<g id="graph0" class="graph" transform="scale(1 1) rotate(0) translate(4 200)">
<title>&lt;module&gt;</title>
<polygon fill="white" stroke="transparent" points="-4,4 -4,-200 2670.36,-200 2670.36,4 -4,4"/>
<!-- 7 -->
<g id="node1" class="node">
<title>7</title>
<ellipse fill="none" stroke="black" cx="1724.08" cy="-178" rx="119.68" ry="18"/>
<text text-anchor="start" x="1640.08" y="-175.3" font-family="Times,serif" font-size="14.00">(METHOD,&lt;module&gt;)</text>
<text text-anchor="start" x="1800.08" y="-175.3" font-family="Times,serif" baseline-shift="sub" font-size="14.00">1</text>
</g>
<!-- 14 -->
<g id="node3" class="node">
<title>14</title>
<ellipse fill="none" stroke="black" cx="256.08" cy="-105" rx="256.15" ry="18"/>
<text text-anchor="start" x="67.08" y="-102.3" font-family="Times,serif" font-size="14.00">(&lt;operator&gt;.assignment,input = __builtins__.input)</text>
<text text-anchor="start" x="437.08" y="-102.3" font-family="Times,serif" baseline-shift="sub" font-size="14.00">1</text>
</g>
<!-- 7&#45;&gt;14 -->
<g id="edge10" class="edge">
<title>7&#45;&gt;14</title>
<path fill="none" stroke="black" d="M1609.59,-172.59C1395.69,-164.2 920.84,-144.79 521.08,-123 496.39,-121.65 470.41,-120.13 444.78,-118.55"/>
<polygon fill="black" stroke="black" points="444.79,-115.05 434.59,-117.92 444.35,-122.03 444.79,-115.05"/>
</g>
<!-- 17 -->
<g id="node4" class="node">
<title>17</title>
<ellipse fill="none" stroke="black" cx="783.08" cy="-105" rx="252.66" ry="18"/>
<text text-anchor="start" x="596.58" y="-102.3" font-family="Times,serif" font-size="14.00">(&lt;operator&gt;.assignment,print = __builtins__.print)</text>
<text text-anchor="start" x="961.58" y="-102.3" font-family="Times,serif" baseline-shift="sub" font-size="14.00">1</text>
</g>
<!-- 7&#45;&gt;17 -->
<g id="edge11" class="edge">
<title>7&#45;&gt;17</title>
<path fill="none" stroke="black" d="M1619.78,-169.13C1460.33,-157.1 1154.05,-133.99 959.58,-119.32"/>
<polygon fill="black" stroke="black" points="959.78,-115.82 949.54,-118.56 959.25,-122.8 959.78,-115.82"/>
</g>
<!-- 53 -->
<g id="node5" class="node">
<title>53</title>
<ellipse fill="none" stroke="black" cx="1369.08" cy="-105" rx="315.44" ry="18"/>
<text text-anchor="start" x="1134.58" y="-102.3" font-family="Times,serif" font-size="14.00">(&lt;operator&gt;.assignment,process_name = def process_name(...))</text>
<text text-anchor="start" x="1595.58" y="-102.3" font-family="Times,serif" baseline-shift="sub" font-size="14.00">1</text>
</g>
<!-- 7&#45;&gt;53 -->
<g id="edge12" class="edge">
<title>7&#45;&gt;53</title>
<path fill="none" stroke="black" d="M1655.21,-163.23C1599.91,-152.17 1521.77,-136.54 1461.11,-124.41"/>
<polygon fill="black" stroke="black" points="1461.64,-120.94 1451.15,-122.41 1460.27,-127.81 1461.64,-120.94"/>
</g>
<!-- 71 -->
<g id="node6" class="node">
<title>71</title>
<ellipse fill="none" stroke="black" cx="1938.08" cy="-105" rx="235.86" ry="18"/>
<text text-anchor="start" x="1764.58" y="-102.3" font-family="Times,serif" font-size="14.00">(&lt;operator&gt;.assignment,main = def main(...))</text>
<text text-anchor="start" x="2095.58" y="-102.3" font-family="Times,serif" baseline-shift="sub" font-size="14.00">10</text>
</g>
<!-- 7&#45;&gt;71 -->
<g id="edge13" class="edge">
<title>7&#45;&gt;71</title>
<path fill="none" stroke="black" d="M1771.04,-161.42C1802.51,-150.98 1844.22,-137.14 1878.08,-125.9"/>
<polygon fill="black" stroke="black" points="1879.48,-129.13 1887.87,-122.66 1877.27,-122.49 1879.48,-129.13"/>
</g>
<!-- 73 -->
<g id="node7" class="node">
<title>73</title>
<ellipse fill="none" stroke="black" cx="2276.08" cy="-105" rx="83.69" ry="18"/>
<text text-anchor="start" x="2219.58" y="-102.3" font-family="Times,serif" font-size="14.00">(main,main())</text>
<text text-anchor="start" x="2316.58" y="-102.3" font-family="Times,serif" baseline-shift="sub" font-size="14.00">14</text>
</g>
<!-- 7&#45;&gt;73 -->
<g id="edge14" class="edge">
<title>7&#45;&gt;73</title>
<path fill="none" stroke="black" d="M1821.03,-167.41C1914.09,-157.77 2058.5,-141.69 2183.08,-123 2190.41,-121.9 2198.06,-120.66 2205.67,-119.36"/>
<polygon fill="black" stroke="black" points="2206.39,-122.79 2215.64,-117.62 2205.19,-115.89 2206.39,-122.79"/>
</g>
<!-- 72 -->
<g id="node8" class="node">
<title>72</title>
<ellipse fill="none" stroke="black" cx="2522.08" cy="-105" rx="144.07" ry="18"/>
<text text-anchor="start" x="2419.08" y="-102.3" font-family="Times,serif" font-size="14.00">(IDENTIFIER,main,main())</text>
<text text-anchor="start" x="2609.08" y="-102.3" font-family="Times,serif" baseline-shift="sub" font-size="14.00">14</text>
</g>
<!-- 7&#45;&gt;72 -->
<g id="edge15" class="edge">
<title>7&#45;&gt;72</title>
<path fill="none" stroke="black" d="M1828.33,-169.15C1955.92,-159.33 2178.53,-141.56 2369.08,-123 2382.11,-121.73 2395.77,-120.32 2409.32,-118.88"/>
<polygon fill="black" stroke="black" points="2410.09,-122.32 2419.65,-117.77 2409.34,-115.36 2410.09,-122.32"/>
</g>
<!-- 11 -->
<g id="node2" class="node">
<title>11</title>
<ellipse fill="none" stroke="black" cx="1245.08" cy="-18" rx="135.68" ry="18"/>
<text text-anchor="start" x="1148.58" y="-15.3" font-family="Times,serif" font-size="14.00">(METHOD_RETURN,ANY)</text>
<text text-anchor="start" x="1333.58" y="-15.3" font-family="Times,serif" baseline-shift="sub" font-size="14.00">1</text>
</g>
<!-- 14&#45;&gt;11 -->
<g id="edge1" class="edge">
<title>14&#45;&gt;11</title>
<path fill="none" stroke="black" d="M322.98,-87.58C372.41,-76.15 441.53,-61.64 503.08,-54 709.03,-28.45 949.27,-21.19 1099.29,-19.32"/>
<polygon fill="black" stroke="black" points="1099.53,-22.82 1109.49,-19.2 1099.45,-15.82 1099.53,-22.82"/>
<text text-anchor="middle" x="522.08" y="-57.8" font-family="Times,serif" font-size="14.00">input</text>
</g>
<!-- 14&#45;&gt;11 -->
<g id="edge2" class="edge">
<title>14&#45;&gt;11</title>
<path fill="none" stroke="black" d="M377.43,-89.13C428.02,-82.92 487.4,-75.62 541.08,-69 594.86,-62.36 608.12,-58.96 662.08,-54 814.27,-40.01 989.36,-30.36 1107.62,-24.79"/>
<polygon fill="black" stroke="black" points="1107.99,-28.28 1117.81,-24.31 1107.66,-21.29 1107.99,-28.28"/>
<text text-anchor="middle" x="753.08" y="-57.8" font-family="Times,serif" font-size="14.00">input = __builtins__.input</text>
</g>
<!-- 17&#45;&gt;11 -->
<g id="edge3" class="edge">
<title>17&#45;&gt;11</title>
<path fill="none" stroke="black" d="M810.99,-86.9C830.9,-75.58 858.7,-61.48 885.08,-54 954.32,-34.36 1033.72,-25.29 1100.31,-21.27"/>
<polygon fill="black" stroke="black" points="1100.67,-24.75 1110.46,-20.68 1100.27,-17.76 1100.67,-24.75"/>
<text text-anchor="middle" x="903.08" y="-57.8" font-family="Times,serif" font-size="14.00">print</text>
</g>
<!-- 17&#45;&gt;11 -->
<g id="edge4" class="edge">
<title>17&#45;&gt;11</title>
<path fill="none" stroke="black" d="M869.7,-88.06C952.56,-72.82 1076.77,-49.96 1159.33,-34.78"/>
<polygon fill="black" stroke="black" points="1159.99,-38.21 1169.19,-32.96 1158.72,-31.33 1159.99,-38.21"/>
<text text-anchor="middle" x="1131.08" y="-57.8" font-family="Times,serif" font-size="14.00">print = __builtins__.print</text>
</g>
<!-- 53&#45;&gt;11 -->
<g id="edge5" class="edge">
<title>53&#45;&gt;11</title>
<path fill="none" stroke="black" d="M1268.29,-87.83C1259.76,-82.99 1252.11,-76.82 1246.08,-69 1241.21,-62.69 1239.71,-54.48 1239.78,-46.54"/>
<polygon fill="black" stroke="black" points="1243.28,-46.7 1240.63,-36.44 1236.3,-46.11 1243.28,-46.7"/>
<text text-anchor="middle" x="1296.58" y="-57.8" font-family="Times,serif" font-size="14.00">process_name</text>
</g>
<!-- 53&#45;&gt;11 -->
<g id="edge6" class="edge">
<title>53&#45;&gt;11</title>
<path fill="none" stroke="black" d="M1365.22,-86.62C1362.02,-75.9 1356.43,-62.6 1347.08,-54 1339.97,-47.46 1331.58,-42.14 1322.72,-37.81"/>
<polygon fill="black" stroke="black" points="1323.91,-34.51 1313.35,-33.64 1321.07,-40.9 1323.91,-34.51"/>
<text text-anchor="middle" x="1495.08" y="-57.8" font-family="Times,serif" font-size="14.00">process_name = def process_name(...)</text>
</g>
<!-- 71&#45;&gt;11 -->
<g id="edge7" class="edge">
<title>71&#45;&gt;11</title>
<path fill="none" stroke="black" d="M1853.06,-88.18C1792.69,-77.37 1709.62,-63.37 1636.08,-54 1548.24,-42.81 1448.86,-33.97 1372.27,-27.97"/>
<polygon fill="black" stroke="black" points="1372.34,-24.46 1362.09,-27.18 1371.79,-31.44 1372.34,-24.46"/>
<text text-anchor="middle" x="1754.08" y="-57.8" font-family="Times,serif" font-size="14.00">main</text>
</g>
<!-- 71&#45;&gt;11 -->
<g id="edge8" class="edge">
<title>71&#45;&gt;11</title>
<path fill="none" stroke="black" d="M1893.74,-87.24C1861.57,-75.84 1816.74,-61.51 1776.08,-54 1647.25,-30.21 1498.22,-22.04 1390.9,-19.48"/>
<polygon fill="black" stroke="black" points="1390.72,-15.97 1380.64,-19.25 1390.56,-22.97 1390.72,-15.97"/>
<text text-anchor="middle" x="1906.58" y="-57.8" font-family="Times,serif" font-size="14.00">main = def main(...)</text>
</g>
<!-- 73&#45;&gt;11 -->
<g id="edge9" class="edge">
<title>73&#45;&gt;11</title>
<path fill="none" stroke="black" d="M2218.09,-91.9C2159,-80.1 2064.59,-62.7 1982.08,-54 1777.07,-32.38 1538.57,-24.11 1389.7,-20.95"/>
<polygon fill="black" stroke="black" points="1389.65,-17.45 1379.58,-20.74 1389.51,-24.45 1389.65,-17.45"/>
<text text-anchor="middle" x="2111.08" y="-57.8" font-family="Times,serif" font-size="14.00">main()</text>
</g>
</g>
</svg>
