<?xml version="1.0" encoding="UTF-8" standalone="no"?>
<!DOCTYPE svg PUBLIC "-//W3C//DTD SVG 1.1//EN"
 "http://www.w3.org/Graphics/SVG/1.1/DTD/svg11.dtd">
<!-- Generated by graphviz version 2.43.0 (0)
 -->
<!-- Title: &lt;module&gt; Pages: 1 -->
<svg width="2674pt" height="218pt"
 viewBox="0.00 0.00 2674.36 218.00" xmlns="http://www.w3.org/2000/svg" xmlns:xlink="http://www.w3.org/1999/xlink">
<g id="graph0" class="graph" transform="scale(1 1) rotate(0) translate(4 214)">
<title>&lt;module&gt;</title>
<polygon fill="white" stroke="transparent" points="-4,4 -4,-214 2670.36,-214 2670.36,4 -4,4"/>
<!-- 7 -->
<g id="node1" class="node">
<title>7</title>
<ellipse fill="none" stroke="black" cx="1724.08" cy="-192" rx="119.68" ry="18"/>
<text text-anchor="start" x="1640.08" y="-189.3" font-family="Times,serif" font-size="14.00">(METHOD,&lt;module&gt;)</text>
<text text-anchor="start" x="1800.08" y="-189.3" font-family="Times,serif" baseline-shift="sub" font-size="14.00">1</text>
</g>
<!-- 14 -->
<g id="node3" class="node">
<title>14</title>
<ellipse fill="none" stroke="black" cx="256.08" cy="-105" rx="256.15" ry="18"/>
<text text-anchor="start" x="67.08" y="-102.3" font-family="Times,serif" font-size="14.00">(&lt;operator&gt;.assignment,input = __builtins__.input)</text>
<text text-anchor="start" x="437.08" y="-102.3" font-family="Times,serif" baseline-shift="sub" font-size="14.00">1</text>
</g>
<!-- 7&#45;&gt;14 -->
<g id="edge10" class="edge">
<title>7&#45;&gt;14</title>
<path fill="none" stroke="black" d="M1613.76,-185.05C1401.94,-173.55 923.55,-147.28 521.08,-123 497.11,-121.55 471.93,-119.99 447.02,-118.42"/>
<polygon fill="black" stroke="black" points="446.95,-114.91 436.75,-117.77 446.51,-121.9 446.95,-114.91"/>
<text text-anchor="middle" x="1103.58" y="-144.8" font-family="Times,serif" font-size="14.00">DDG: </text>
</g>
<!-- 17 -->
<g id="node4" class="node">
<title>17</title>
<ellipse fill="none" stroke="black" cx="783.08" cy="-105" rx="252.66" ry="18"/>
<text text-anchor="start" x="596.58" y="-102.3" font-family="Times,serif" font-size="14.00">(&lt;operator&gt;.assignment,print = __builtins__.print)</text>
<text text-anchor="start" x="961.58" y="-102.3" font-family="Times,serif" baseline-shift="sub" font-size="14.00">1</text>
</g>
<!-- 7&#45;&gt;17 -->
<g id="edge11" class="edge">
<title>7&#45;&gt;17</title>
<path fill="none" stroke="black" d="M1624.26,-181.98C1461.54,-167.29 1137.72,-138.04 942.76,-120.42"/>
<polygon fill="black" stroke="black" points="942.98,-116.93 932.71,-119.52 942.35,-123.9 942.98,-116.93"/>
<text text-anchor="middle" x="1331.58" y="-144.8" font-family="Times,serif" font-size="14.00">DDG: </text>
</g>
<!-- 53 -->
<g id="node5" class="node">
<title>53</title>
<ellipse fill="none" stroke="black" cx="1369.08" cy="-105" rx="315.44" ry="18"/>
<text text-anchor="start" x="1134.58" y="-102.3" font-family="Times,serif" font-size="14.00">(&lt;operator&gt;.assignment,process_name = def process_name(...))</text>
<text text-anchor="start" x="1595.58" y="-102.3" font-family="Times,serif" baseline-shift="sub" font-size="14.00">1</text>
</g>
<!-- 7&#45;&gt;53 -->
<g id="edge12" class="edge">
<title>7&#45;&gt;53</title>
<path fill="none" stroke="black" d="M1663.05,-176.39C1603.65,-162.17 1513.1,-140.48 1448.2,-124.94"/>
<polygon fill="black" stroke="black" points="1448.96,-121.53 1438.42,-122.6 1447.33,-128.33 1448.96,-121.53"/>
<text text-anchor="middle" x="1589.58" y="-144.8" font-family="Times,serif" font-size="14.00">DDG: </text>
</g>
<!-- 71 -->
<g id="node6" class="node">
<title>71</title>
<ellipse fill="none" stroke="black" cx="1938.08" cy="-105" rx="235.86" ry="18"/>
<text text-anchor="start" x="1764.58" y="-102.3" font-family="Times,serif" font-size="14.00">(&lt;operator&gt;.assignment,main = def main(...))</text>
<text text-anchor="start" x="2095.58" y="-102.3" font-family="Times,serif" baseline-shift="sub" font-size="14.00">10</text>
</g>
<!-- 7&#45;&gt;71 -->
<g id="edge13" class="edge">
<title>7&#45;&gt;71</title>
<path fill="none" stroke="black" d="M1764.33,-175.01C1798.78,-161.33 1848.61,-141.54 1886.08,-126.65"/>
<polygon fill="black" stroke="black" points="1887.81,-129.73 1895.81,-122.79 1885.22,-123.23 1887.81,-129.73"/>
<text text-anchor="middle" x="1865.58" y="-144.8" font-family="Times,serif" font-size="14.00">DDG: </text>
</g>
<!-- 73 -->
<g id="node7" class="node">
<title>73</title>
<ellipse fill="none" stroke="black" cx="2276.08" cy="-105" rx="83.69" ry="18"/>
<text text-anchor="start" x="2219.58" y="-102.3" font-family="Times,serif" font-size="14.00">(main,main())</text>
<text text-anchor="start" x="2316.58" y="-102.3" font-family="Times,serif" baseline-shift="sub" font-size="14.00">14</text>
</g>
<!-- 7&#45;&gt;73 -->
<g id="edge14" class="edge">
<title>7&#45;&gt;73</title>
<path fill="none" stroke="black" d="M1809.23,-179.26C1901.48,-166.34 2052.93,-144.53 2183.08,-123 2190.2,-121.82 2197.63,-120.55 2205.03,-119.24"/>
<polygon fill="black" stroke="black" points="2205.86,-122.65 2215.1,-117.45 2204.64,-115.76 2205.86,-122.65"/>
<text text-anchor="middle" x="2091.58" y="-144.8" font-family="Times,serif" font-size="14.00">DDG: </text>
</g>
<!-- 72 -->
<g id="node8" class="node">
<title>72</title>
<ellipse fill="none" stroke="black" cx="2522.08" cy="-105" rx="144.07" ry="18"/>
<text text-anchor="start" x="2419.08" y="-102.3" font-family="Times,serif" font-size="14.00">(IDENTIFIER,main,main())</text>
<text text-anchor="start" x="2609.08" y="-102.3" font-family="Times,serif" baseline-shift="sub" font-size="14.00">14</text>
</g>
<!-- 7&#45;&gt;72 -->
<g id="edge15" class="edge">
<title>7&#45;&gt;72</title>
<path fill="none" stroke="black" d="M1827.19,-182.78C1906.51,-176.23 2018.82,-166.44 2117.08,-156 2219.09,-145.16 2335.28,-130.59 2416.97,-119.97"/>
<polygon fill="black" stroke="black" points="2417.79,-123.39 2427.26,-118.63 2416.89,-116.45 2417.79,-123.39"/>
<text text-anchor="middle" x="2261.58" y="-144.8" font-family="Times,serif" font-size="14.00">DDG: </text>
</g>
<!-- 11 -->
<g id="node2" class="node">
<title>11</title>
<ellipse fill="none" stroke="black" cx="1202.08" cy="-18" rx="135.68" ry="18"/>
<text text-anchor="start" x="1105.58" y="-15.3" font-family="Times,serif" font-size="14.00">(METHOD_RETURN,ANY)</text>
<text text-anchor="start" x="1290.58" y="-15.3" font-family="Times,serif" baseline-shift="sub" font-size="14.00">1</text>
</g>
<!-- 14&#45;&gt;11 -->
<g id="edge1" class="edge">
<title>14&#45;&gt;11</title>
<path fill="none" stroke="black" d="M296.33,-87.18C326.08,-75.59 367.88,-61.06 406.08,-54 526.74,-31.69 862.47,-23.49 1057.21,-20.56"/>
<polygon fill="black" stroke="black" points="1057.29,-24.06 1067.24,-20.41 1057.19,-17.06 1057.29,-24.06"/>
<text text-anchor="middle" x="446.58" y="-57.8" font-family="Times,serif" font-size="14.00">DDG: input</text>
</g>
<!-- 14&#45;&gt;11 -->
<g id="edge2" class="edge">
<title>14&#45;&gt;11</title>
<path fill="none" stroke="black" d="M360.49,-88.56C400.15,-82.59 445.72,-75.62 487.08,-69 526.69,-62.66 536.21,-58.46 576.08,-54 741.43,-35.5 932.51,-26.61 1059.64,-22.46"/>
<polygon fill="black" stroke="black" points="1059.94,-25.95 1069.83,-22.13 1059.72,-18.95 1059.94,-25.95"/>
<text text-anchor="middle" x="688.58" y="-57.8" font-family="Times,serif" font-size="14.00">DDG: input = __builtins__.input</text>
</g>
<!-- 17&#45;&gt;11 -->
<g id="edge3" class="edge">
<title>17&#45;&gt;11</title>
<path fill="none" stroke="black" d="M791.47,-86.57C797.9,-75.26 807.92,-61.3 821.08,-54 860.76,-32 966.61,-23.51 1056.7,-20.38"/>
<polygon fill="black" stroke="black" points="1056.88,-23.88 1066.76,-20.05 1056.65,-16.88 1056.88,-23.88"/>
<text text-anchor="middle" x="860.58" y="-57.8" font-family="Times,serif" font-size="14.00">DDG: print</text>
</g>
<!-- 17&#45;&gt;11 -->
<g id="edge4" class="edge">
<title>17&#45;&gt;11</title>
<path fill="none" stroke="black" d="M839.66,-87.43C877.24,-76.84 927.82,-63.39 973.08,-54 1013.74,-45.57 1058.86,-38.24 1098.22,-32.5"/>
<polygon fill="black" stroke="black" points="1098.97,-35.93 1108.37,-31.04 1097.97,-29 1098.97,-35.93"/>
<text text-anchor="middle" x="1083.08" y="-57.8" font-family="Times,serif" font-size="14.00">DDG: print = __builtins__.print</text>
</g>
<!-- 53&#45;&gt;11 -->
<g id="edge5" class="edge">
<title>53&#45;&gt;11</title>
<path fill="none" stroke="black" d="M1245.56,-88.41C1225.93,-83.51 1209.84,-77.17 1203.08,-69 1197.86,-62.7 1196.35,-54.26 1196.52,-46.12"/>
<polygon fill="black" stroke="black" points="1200.01,-46.43 1197.49,-36.14 1193.04,-45.75 1200.01,-46.43"/>
<text text-anchor="middle" x="1275.08" y="-57.8" font-family="Times,serif" font-size="14.00">DDG: process_name</text>
</g>
<!-- 53&#45;&gt;11 -->
<g id="edge6" class="edge">
<title>53&#45;&gt;11</title>
<path fill="none" stroke="black" d="M1365.63,-86.8C1362.56,-75.87 1356.97,-62.28 1347.08,-54 1336.61,-45.24 1324.3,-38.61 1311.36,-33.59"/>
<polygon fill="black" stroke="black" points="1312.44,-30.26 1301.84,-30.22 1310.1,-36.86 1312.44,-30.26"/>
<text text-anchor="middle" x="1516.08" y="-57.8" font-family="Times,serif" font-size="14.00">DDG: process_name = def process_name(...)</text>
</g>
<!-- 71&#45;&gt;11 -->
<g id="edge7" class="edge">
<title>71&#45;&gt;11</title>
<path fill="none" stroke="black" d="M1866.16,-87.83C1814.16,-76.71 1742.1,-62.48 1678.08,-54 1564.53,-38.96 1434.82,-29.96 1339.51,-24.86"/>
<polygon fill="black" stroke="black" points="1339.69,-21.36 1329.52,-24.33 1339.32,-28.35 1339.69,-21.36"/>
<text text-anchor="middle" x="1811.58" y="-57.8" font-family="Times,serif" font-size="14.00">DDG: main</text>
</g>
<!-- 71&#45;&gt;11 -->
<g id="edge8" class="edge">
<title>71&#45;&gt;11</title>
<path fill="none" stroke="black" d="M1916.61,-87.01C1900.63,-75.42 1877.75,-60.96 1855.08,-54 1763.92,-26.01 1511.23,-19.69 1348.24,-18.64"/>
<polygon fill="black" stroke="black" points="1348.15,-15.14 1338.13,-18.58 1348.11,-22.14 1348.15,-15.14"/>
<text text-anchor="middle" x="1980.08" y="-57.8" font-family="Times,serif" font-size="14.00">DDG: main = def main(...)</text>
</g>
<!-- 73&#45;&gt;11 -->
<g id="edge9" class="edge">
<title>73&#45;&gt;11</title>
<path fill="none" stroke="black" d="M2230.77,-89.77C2190.78,-77.9 2130.67,-61.72 2077.08,-54 1940.5,-34.33 1557.66,-24.95 1346.47,-21.17"/>
<polygon fill="black" stroke="black" points="1346.29,-17.66 1336.23,-20.99 1346.17,-24.66 1346.29,-17.66"/>
<text text-anchor="middle" x="2193.58" y="-57.8" font-family="Times,serif" font-size="14.00">DDG: main()</text>
</g>
</g>
</svg>
