<?xml version="1.0" encoding="UTF-8" standalone="no"?>
<!DOCTYPE svg PUBLIC "-//W3C//DTD SVG 1.1//EN"
 "http://www.w3.org/Graphics/SVG/1.1/DTD/svg11.dtd">
<!-- Generated by graphviz version 2.43.0 (0)
 -->
<!-- Title: process_name Pages: 1 -->
<svg width="5361pt" height="332pt"
 viewBox="0.00 0.00 5361.47 332.00" xmlns="http://www.w3.org/2000/svg" xmlns:xlink="http://www.w3.org/1999/xlink">
<g id="graph0" class="graph" transform="scale(1 1) rotate(0) translate(4 328)">
<title>process_name</title>
<polygon fill="white" stroke="transparent" points="-4,4 -4,-328 5357.47,-328 5357.47,4 -4,4"/>
<!-- 20 -->
<g id="node1" class="node">
<title>20</title>
<ellipse fill="none" stroke="black" cx="3778.03" cy="-306" rx="135.38" ry="18"/>
<text text-anchor="start" x="3682.03" y="-303.3" font-family="Times,serif" font-size="14.00">(METHOD,process_name)</text>
<text text-anchor="start" x="3866.03" y="-303.3" font-family="Times,serif" baseline-shift="sub" font-size="14.00">1</text>
</g>
<!-- 21 -->
<g id="node2" class="node">
<title>21</title>
<ellipse fill="none" stroke="black" cx="3477.03" cy="-234" rx="62.29" ry="18"/>
<text text-anchor="start" x="3437.03" y="-231.3" font-family="Times,serif" font-size="14.00">(BLOCK,,)</text>
<text text-anchor="start" x="3509.03" y="-231.3" font-family="Times,serif" baseline-shift="sub" font-size="14.00">1</text>
</g>
<!-- 20&#45;&gt;21 -->
<g id="edge2" class="edge">
<title>20&#45;&gt;21</title>
<path fill="none" stroke="black" d="M3713.06,-290.18C3666.98,-279.64 3603.68,-265.07 3548.03,-252 3543.15,-250.85 3538.07,-249.65 3532.98,-248.44"/>
<polygon fill="black" stroke="black" points="3533.77,-245.03 3523.23,-246.12 3532.15,-251.84 3533.77,-245.03"/>
</g>
<!-- 22 -->
<g id="node31" class="node">
<title>22</title>
<ellipse fill="none" stroke="black" cx="3670.03" cy="-234" rx="113.18" ry="18"/>
<text text-anchor="start" x="3591.03" y="-230.3" font-family="Times,serif" font-size="14.00">(MODIFIER,VIRTUAL)</text>
</g>
<!-- 20&#45;&gt;22 -->
<g id="edge1" class="edge">
<title>20&#45;&gt;22</title>
<path fill="none" stroke="black" d="M3752.16,-288.23C3737.87,-278.97 3719.93,-267.34 3704.46,-257.32"/>
<polygon fill="black" stroke="black" points="3705.99,-254.13 3695.69,-251.63 3702.18,-260.01 3705.99,-254.13"/>
</g>
<!-- 23 -->
<g id="node32" class="node">
<title>23</title>
<ellipse fill="none" stroke="black" cx="3886.03" cy="-234" rx="85.29" ry="18"/>
<text text-anchor="start" x="3828.53" y="-231.3" font-family="Times,serif" font-size="14.00">(PARAM,name)</text>
<text text-anchor="start" x="3935.53" y="-231.3" font-family="Times,serif" baseline-shift="sub" font-size="14.00">1</text>
</g>
<!-- 20&#45;&gt;23 -->
<g id="edge3" class="edge">
<title>20&#45;&gt;23</title>
<path fill="none" stroke="black" d="M3803.9,-288.23C3818.3,-278.9 3836.4,-267.17 3851.94,-257.1"/>
<polygon fill="black" stroke="black" points="3854.26,-259.76 3860.75,-251.39 3850.45,-253.89 3854.26,-259.76"/>
</g>
<!-- 24 -->
<g id="node33" class="node">
<title>24</title>
<ellipse fill="none" stroke="black" cx="4125.03" cy="-234" rx="135.68" ry="18"/>
<text text-anchor="start" x="4028.53" y="-231.3" font-family="Times,serif" font-size="14.00">(METHOD_RETURN,ANY)</text>
<text text-anchor="start" x="4213.53" y="-231.3" font-family="Times,serif" baseline-shift="sub" font-size="14.00">1</text>
</g>
<!-- 20&#45;&gt;24 -->
<g id="edge4" class="edge">
<title>20&#45;&gt;24</title>
<path fill="none" stroke="black" d="M3849.09,-290.67C3905.6,-279.27 3984.71,-263.31 4043.74,-251.4"/>
<polygon fill="black" stroke="black" points="4044.66,-254.78 4053.77,-249.38 4043.28,-247.92 4044.66,-254.78"/>
</g>
<!-- 27 -->
<g id="node3" class="node">
<title>27</title>
<ellipse fill="none" stroke="black" cx="541.03" cy="-162" rx="201.46" ry="18"/>
<text text-anchor="start" x="394.03" y="-159.3" font-family="Times,serif" font-size="14.00">(&lt;operator&gt;.assignment,temp_list = [])</text>
<text text-anchor="start" x="680.03" y="-159.3" font-family="Times,serif" baseline-shift="sub" font-size="14.00">2</text>
</g>
<!-- 21&#45;&gt;27 -->
<g id="edge5" class="edge">
<title>21&#45;&gt;27</title>
<path fill="none" stroke="black" d="M3414.76,-231.94C3136.9,-227.15 1982.43,-206.58 1035.03,-180 935.4,-177.2 824.49,-173.45 733.04,-170.17"/>
<polygon fill="black" stroke="black" points="732.96,-166.67 722.84,-169.81 732.71,-173.66 732.96,-166.67"/>
</g>
<!-- 30 -->
<g id="node6" class="node">
<title>30</title>
<ellipse fill="none" stroke="black" cx="1249.03" cy="-162" rx="204.96" ry="18"/>
<text text-anchor="start" x="1099.53" y="-159.3" font-family="Times,serif" font-size="14.00">(&lt;operator&gt;.assignment,result_list = [])</text>
<text text-anchor="start" x="1390.53" y="-159.3" font-family="Times,serif" baseline-shift="sub" font-size="14.00">3</text>
</g>
<!-- 21&#45;&gt;30 -->
<g id="edge7" class="edge">
<title>21&#45;&gt;30</title>
<path fill="none" stroke="black" d="M3415.41,-231.06C3129.76,-222.09 1928.07,-184.33 1448.19,-169.26"/>
<polygon fill="black" stroke="black" points="1448.14,-165.75 1438.04,-168.94 1447.92,-172.75 1448.14,-165.75"/>
</g>
<!-- 36 -->
<g id="node9" class="node">
<title>36</title>
<ellipse fill="none" stroke="black" cx="2336.03" cy="-162" rx="172.47" ry="18"/>
<text text-anchor="start" x="2211.53" y="-159.3" font-family="Times,serif" font-size="14.00">(append,temp_list.append(name))</text>
<text text-anchor="start" x="2452.53" y="-159.3" font-family="Times,serif" baseline-shift="sub" font-size="14.00">5</text>
</g>
<!-- 21&#45;&gt;36 -->
<g id="edge9" class="edge">
<title>21&#45;&gt;36</title>
<path fill="none" stroke="black" d="M3416.49,-229.29C3243.96,-218.7 2745.77,-188.14 2490.63,-172.48"/>
<polygon fill="black" stroke="black" points="2490.73,-168.98 2480.53,-171.87 2490.3,-175.97 2490.73,-168.98"/>
</g>
<!-- 44 -->
<g id="node15" class="node">
<title>44</title>
<ellipse fill="none" stroke="black" cx="3297.03" cy="-162" rx="205.26" ry="18"/>
<text text-anchor="start" x="3147.03" y="-159.3" font-family="Times,serif" font-size="14.00">(append,result_list.append(temp_list[0]))</text>
<text text-anchor="start" x="3439.03" y="-159.3" font-family="Times,serif" baseline-shift="sub" font-size="14.00">6</text>
</g>
<!-- 21&#45;&gt;44 -->
<g id="edge11" class="edge">
<title>21&#45;&gt;44</title>
<path fill="none" stroke="black" d="M3441.47,-219.17C3415.12,-208.92 3378.8,-194.8 3349.18,-183.28"/>
<polygon fill="black" stroke="black" points="3350.4,-180 3339.81,-179.64 3347.86,-186.52 3350.4,-180"/>
</g>
<!-- 49 -->
<g id="node23" class="node">
<title>49</title>
<ellipse fill="none" stroke="black" cx="3658.03" cy="-162" rx="137.28" ry="18"/>
<text text-anchor="start" x="3560.53" y="-159.3" font-family="Times,serif" font-size="14.00">(print,print(result_list[0]))</text>
<text text-anchor="start" x="3747.53" y="-159.3" font-family="Times,serif" baseline-shift="sub" font-size="14.00">8</text>
</g>
<!-- 21&#45;&gt;49 -->
<g id="edge12" class="edge">
<title>21&#45;&gt;49</title>
<path fill="none" stroke="black" d="M3512.79,-219.17C3539.57,-208.82 3576.58,-194.5 3606.54,-182.91"/>
<polygon fill="black" stroke="black" points="3607.93,-186.13 3616,-179.26 3605.41,-179.6 3607.93,-186.13"/>
</g>
<!-- 83 -->
<g id="node28" class="node">
<title>83</title>
<ellipse fill="none" stroke="black" cx="3976.03" cy="-162" rx="163.27" ry="18"/>
<text text-anchor="start" x="3858.53" y="-159.3" font-family="Times,serif" font-size="14.00">(LOCAL,temp_list: __builtin.list)</text>
<text text-anchor="start" x="4085.53" y="-159.3" font-family="Times,serif" baseline-shift="sub" font-size="14.00">2</text>
</g>
<!-- 21&#45;&gt;83 -->
<g id="edge6" class="edge">
<title>21&#45;&gt;83</title>
<path fill="none" stroke="black" d="M3521.94,-221.45C3530.57,-219.45 3539.55,-217.54 3548.03,-216 3605.13,-205.66 3749.99,-188.41 3855.4,-176.41"/>
<polygon fill="black" stroke="black" points="3855.94,-179.87 3865.48,-175.27 3855.15,-172.92 3855.94,-179.87"/>
</g>
<!-- 84 -->
<g id="node29" class="node">
<title>84</title>
<ellipse fill="none" stroke="black" cx="4324.03" cy="-162" rx="166.27" ry="18"/>
<text text-anchor="start" x="4204.03" y="-159.3" font-family="Times,serif" font-size="14.00">(LOCAL,result_list: __builtin.list)</text>
<text text-anchor="start" x="4436.03" y="-159.3" font-family="Times,serif" baseline-shift="sub" font-size="14.00">3</text>
</g>
<!-- 21&#45;&gt;84 -->
<g id="edge8" class="edge">
<title>21&#45;&gt;84</title>
<path fill="none" stroke="black" d="M3521.11,-221.18C3529.97,-219.17 3539.26,-217.3 3548.03,-216 3812.28,-176.75 3881.7,-200.85 4148.03,-180 4163.87,-178.76 4180.5,-177.33 4196.95,-175.83"/>
<polygon fill="black" stroke="black" points="4197.53,-179.29 4207.17,-174.89 4196.89,-172.32 4197.53,-179.29"/>
</g>
<!-- 85 -->
<g id="node30" class="node">
<title>85</title>
<ellipse fill="none" stroke="black" cx="4615.03" cy="-162" rx="106.68" ry="18"/>
<text text-anchor="start" x="4541.03" y="-159.3" font-family="Times,serif" font-size="14.00">(LOCAL,print: ANY)</text>
<text text-anchor="start" x="4681.03" y="-159.3" font-family="Times,serif" baseline-shift="sub" font-size="14.00">8</text>
</g>
<!-- 21&#45;&gt;85 -->
<g id="edge10" class="edge">
<title>21&#45;&gt;85</title>
<path fill="none" stroke="black" d="M3520.71,-221.12C3529.69,-219.08 3539.12,-217.22 3548.03,-216 3967.07,-158.48 4077.84,-218.72 4499.03,-180 4509.4,-179.05 4520.26,-177.8 4530.99,-176.4"/>
<polygon fill="black" stroke="black" points="4531.78,-179.83 4541.23,-175.03 4530.85,-172.89 4531.78,-179.83"/>
</g>
<!-- 26 -->
<g id="node4" class="node">
<title>26</title>
<ellipse fill="none" stroke="black" cx="193.03" cy="-90" rx="193.07" ry="18"/>
<text text-anchor="start" x="52.53" y="-87.3" font-family="Times,serif" font-size="14.00">(IDENTIFIER,temp_list,temp_list = [])</text>
<text text-anchor="start" x="325.53" y="-87.3" font-family="Times,serif" baseline-shift="sub" font-size="14.00">2</text>
</g>
<!-- 27&#45;&gt;26 -->
<g id="edge13" class="edge">
<title>27&#45;&gt;26</title>
<path fill="none" stroke="black" d="M463.37,-145.38C409.04,-134.45 336.41,-119.84 280.12,-108.52"/>
<polygon fill="black" stroke="black" points="280.65,-105.05 270.16,-106.51 279.27,-111.92 280.65,-105.05"/>
</g>
<!-- 25 -->
<g id="node5" class="node">
<title>25</title>
<ellipse fill="none" stroke="black" cx="541.03" cy="-90" rx="136.48" ry="18"/>
<text text-anchor="start" x="444.03" y="-87.3" font-family="Times,serif" font-size="14.00">(&lt;operator&gt;.listLiteral,[])</text>
<text text-anchor="start" x="630.03" y="-87.3" font-family="Times,serif" baseline-shift="sub" font-size="14.00">2</text>
</g>
<!-- 27&#45;&gt;25 -->
<g id="edge14" class="edge">
<title>27&#45;&gt;25</title>
<path fill="none" stroke="black" d="M541.03,-143.7C541.03,-135.98 541.03,-126.71 541.03,-118.11"/>
<polygon fill="black" stroke="black" points="544.53,-118.1 541.03,-108.1 537.53,-118.1 544.53,-118.1"/>
</g>
<!-- 29 -->
<g id="node7" class="node">
<title>29</title>
<ellipse fill="none" stroke="black" cx="895.03" cy="-90" rx="199.56" ry="18"/>
<text text-anchor="start" x="749.53" y="-87.3" font-family="Times,serif" font-size="14.00">(IDENTIFIER,result_list,result_list = [])</text>
<text text-anchor="start" x="1032.53" y="-87.3" font-family="Times,serif" baseline-shift="sub" font-size="14.00">3</text>
</g>
<!-- 30&#45;&gt;29 -->
<g id="edge15" class="edge">
<title>30&#45;&gt;29</title>
<path fill="none" stroke="black" d="M1170.03,-145.38C1114.86,-134.47 1041.14,-119.89 983.92,-108.58"/>
<polygon fill="black" stroke="black" points="984.28,-105.08 973.8,-106.57 982.93,-111.95 984.28,-105.08"/>
</g>
<!-- 28 -->
<g id="node8" class="node">
<title>28</title>
<ellipse fill="none" stroke="black" cx="1249.03" cy="-90" rx="136.48" ry="18"/>
<text text-anchor="start" x="1152.03" y="-87.3" font-family="Times,serif" font-size="14.00">(&lt;operator&gt;.listLiteral,[])</text>
<text text-anchor="start" x="1338.03" y="-87.3" font-family="Times,serif" baseline-shift="sub" font-size="14.00">3</text>
</g>
<!-- 30&#45;&gt;28 -->
<g id="edge16" class="edge">
<title>30&#45;&gt;28</title>
<path fill="none" stroke="black" d="M1249.03,-143.7C1249.03,-135.98 1249.03,-126.71 1249.03,-118.11"/>
<polygon fill="black" stroke="black" points="1252.53,-118.1 1249.03,-108.1 1245.53,-118.1 1252.53,-118.1"/>
</g>
<!-- 34 -->
<g id="node10" class="node">
<title>34</title>
<ellipse fill="none" stroke="black" cx="1619.03" cy="-90" rx="215.26" ry="18"/>
<text text-anchor="start" x="1461.53" y="-87.3" font-family="Times,serif" font-size="14.00">(&lt;operator&gt;.fieldAccess,temp_list.append)</text>
<text text-anchor="start" x="1768.53" y="-87.3" font-family="Times,serif" baseline-shift="sub" font-size="14.00">5</text>
</g>
<!-- 36&#45;&gt;34 -->
<g id="edge17" class="edge">
<title>36&#45;&gt;34</title>
<path fill="none" stroke="black" d="M2214.81,-149.17C2090.17,-137 1896.09,-118.05 1763.55,-105.11"/>
<polygon fill="black" stroke="black" points="1763.61,-101.6 1753.32,-104.11 1762.93,-108.57 1763.61,-101.6"/>
</g>
<!-- 35 -->
<g id="node13" class="node">
<title>35</title>
<ellipse fill="none" stroke="black" cx="2094.03" cy="-90" rx="241.56" ry="18"/>
<text text-anchor="start" x="1916.03" y="-87.3" font-family="Times,serif" font-size="14.00">(IDENTIFIER,temp_list,temp_list.append(name))</text>
<text text-anchor="start" x="2264.03" y="-87.3" font-family="Times,serif" baseline-shift="sub" font-size="14.00">5</text>
</g>
<!-- 36&#45;&gt;35 -->
<g id="edge18" class="edge">
<title>36&#45;&gt;35</title>
<path fill="none" stroke="black" d="M2280.51,-144.94C2245.03,-134.68 2198.8,-121.3 2161.24,-110.44"/>
<polygon fill="black" stroke="black" points="2161.98,-107.01 2151.4,-107.59 2160.03,-113.73 2161.98,-107.01"/>
</g>
<!-- 31 -->
<g id="node14" class="node">
<title>31</title>
<ellipse fill="none" stroke="black" cx="2578.03" cy="-90" rx="224.46" ry="18"/>
<text text-anchor="start" x="2413.53" y="-87.3" font-family="Times,serif" font-size="14.00">(IDENTIFIER,name,temp_list.append(name))</text>
<text text-anchor="start" x="2734.53" y="-87.3" font-family="Times,serif" baseline-shift="sub" font-size="14.00">5</text>
</g>
<!-- 36&#45;&gt;31 -->
<g id="edge19" class="edge">
<title>36&#45;&gt;31</title>
<path fill="none" stroke="black" d="M2391.55,-144.94C2427.16,-134.64 2473.6,-121.21 2511.23,-110.32"/>
<polygon fill="black" stroke="black" points="2512.46,-113.61 2521.09,-107.47 2510.51,-106.89 2512.46,-113.61"/>
</g>
<!-- 32 -->
<g id="node11" class="node">
<title>32</title>
<ellipse fill="none" stroke="black" cx="1399.03" cy="-18" rx="241.56" ry="18"/>
<text text-anchor="start" x="1221.03" y="-15.3" font-family="Times,serif" font-size="14.00">(IDENTIFIER,temp_list,temp_list.append(name))</text>
<text text-anchor="start" x="1569.03" y="-15.3" font-family="Times,serif" baseline-shift="sub" font-size="14.00">5</text>
</g>
<!-- 34&#45;&gt;32 -->
<g id="edge20" class="edge">
<title>34&#45;&gt;32</title>
<path fill="none" stroke="black" d="M1567.17,-72.5C1535.38,-62.38 1494.49,-49.37 1460.99,-38.71"/>
<polygon fill="black" stroke="black" points="1461.9,-35.33 1451.31,-35.63 1459.77,-42 1461.9,-35.33"/>
</g>
<!-- 33 -->
<g id="node12" class="node">
<title>33</title>
<ellipse fill="none" stroke="black" cx="1848.03" cy="-18" rx="189.27" ry="18"/>
<text text-anchor="start" x="1710.53" y="-15.3" font-family="Times,serif" font-size="14.00">(FIELD_IDENTIFIER,append,append)</text>
<text text-anchor="start" x="1977.53" y="-15.3" font-family="Times,serif" baseline-shift="sub" font-size="14.00">5</text>
</g>
<!-- 34&#45;&gt;33 -->
<g id="edge21" class="edge">
<title>34&#45;&gt;33</title>
<path fill="none" stroke="black" d="M1673.01,-72.5C1706.49,-62.27 1749.66,-49.07 1784.75,-38.34"/>
<polygon fill="black" stroke="black" points="1785.88,-41.66 1794.42,-35.39 1783.83,-34.97 1785.88,-41.66"/>
</g>
<!-- 42 -->
<g id="node16" class="node">
<title>42</title>
<ellipse fill="none" stroke="black" cx="3039.03" cy="-90" rx="219.06" ry="18"/>
<text text-anchor="start" x="2878.53" y="-87.3" font-family="Times,serif" font-size="14.00">(&lt;operator&gt;.fieldAccess,result_list.append)</text>
<text text-anchor="start" x="3191.53" y="-87.3" font-family="Times,serif" baseline-shift="sub" font-size="14.00">6</text>
</g>
<!-- 44&#45;&gt;42 -->
<g id="edge22" class="edge">
<title>44&#45;&gt;42</title>
<path fill="none" stroke="black" d="M3237.19,-144.76C3198.96,-134.39 3149.23,-120.9 3109.15,-110.02"/>
<polygon fill="black" stroke="black" points="3110.01,-106.63 3099.44,-107.39 3108.18,-113.39 3110.01,-106.63"/>
</g>
<!-- 43 -->
<g id="node19" class="node">
<title>43</title>
<ellipse fill="none" stroke="black" cx="3555.03" cy="-90" rx="278.65" ry="18"/>
<text text-anchor="start" x="3348.53" y="-87.3" font-family="Times,serif" font-size="14.00">(IDENTIFIER,result_list,result_list.append(temp_list[0]))</text>
<text text-anchor="start" x="3753.53" y="-87.3" font-family="Times,serif" baseline-shift="sub" font-size="14.00">6</text>
</g>
<!-- 44&#45;&gt;43 -->
<g id="edge23" class="edge">
<title>44&#45;&gt;43</title>
<path fill="none" stroke="black" d="M3356.87,-144.76C3394.83,-134.47 3444.12,-121.09 3484.05,-110.26"/>
<polygon fill="black" stroke="black" points="3484.99,-113.63 3493.73,-107.63 3483.16,-106.87 3484.99,-113.63"/>
</g>
<!-- 39 -->
<g id="node20" class="node">
<title>39</title>
<ellipse fill="none" stroke="black" cx="4048.03" cy="-90" rx="196.07" ry="18"/>
<text text-anchor="start" x="3905.03" y="-87.3" font-family="Times,serif" font-size="14.00">(&lt;operator&gt;.indexAccess,temp_list[0])</text>
<text text-anchor="start" x="4183.03" y="-87.3" font-family="Times,serif" baseline-shift="sub" font-size="14.00">6</text>
</g>
<!-- 44&#45;&gt;39 -->
<g id="edge24" class="edge">
<title>44&#45;&gt;39</title>
<path fill="none" stroke="black" d="M3432.16,-148.4C3565.85,-135.94 3769.67,-116.95 3905.79,-104.26"/>
<polygon fill="black" stroke="black" points="3906.25,-107.73 3915.88,-103.32 3905.6,-100.76 3906.25,-107.73"/>
</g>
<!-- 40 -->
<g id="node17" class="node">
<title>40</title>
<ellipse fill="none" stroke="black" cx="2558.03" cy="-18" rx="278.65" ry="18"/>
<text text-anchor="start" x="2351.53" y="-15.3" font-family="Times,serif" font-size="14.00">(IDENTIFIER,result_list,result_list.append(temp_list[0]))</text>
<text text-anchor="start" x="2756.53" y="-15.3" font-family="Times,serif" baseline-shift="sub" font-size="14.00">6</text>
</g>
<!-- 42&#45;&gt;40 -->
<g id="edge25" class="edge">
<title>42&#45;&gt;40</title>
<path fill="none" stroke="black" d="M2936.44,-74.07C2859.97,-62.94 2755.41,-47.72 2675.58,-36.11"/>
<polygon fill="black" stroke="black" points="2675.87,-32.61 2665.47,-34.64 2674.87,-39.54 2675.87,-32.61"/>
</g>
<!-- 41 -->
<g id="node18" class="node">
<title>41</title>
<ellipse fill="none" stroke="black" cx="3044.03" cy="-18" rx="189.27" ry="18"/>
<text text-anchor="start" x="2906.53" y="-15.3" font-family="Times,serif" font-size="14.00">(FIELD_IDENTIFIER,append,append)</text>
<text text-anchor="start" x="3173.53" y="-15.3" font-family="Times,serif" baseline-shift="sub" font-size="14.00">6</text>
</g>
<!-- 42&#45;&gt;41 -->
<g id="edge26" class="edge">
<title>42&#45;&gt;41</title>
<path fill="none" stroke="black" d="M3040.27,-71.7C3040.82,-63.98 3041.48,-54.71 3042.1,-46.11"/>
<polygon fill="black" stroke="black" points="3045.59,-46.33 3042.81,-36.1 3038.61,-45.83 3045.59,-46.33"/>
</g>
<!-- 37 -->
<g id="node21" class="node">
<title>37</title>
<ellipse fill="none" stroke="black" cx="3625.03" cy="-18" rx="275.65" ry="18"/>
<text text-anchor="start" x="3421.03" y="-15.3" font-family="Times,serif" font-size="14.00">(IDENTIFIER,temp_list,result_list.append(temp_list[0]))</text>
<text text-anchor="start" x="3821.03" y="-15.3" font-family="Times,serif" baseline-shift="sub" font-size="14.00">6</text>
</g>
<!-- 39&#45;&gt;37 -->
<g id="edge27" class="edge">
<title>39&#45;&gt;37</title>
<path fill="none" stroke="black" d="M3957.55,-74.03C3891.27,-63.06 3801.11,-48.14 3731.39,-36.6"/>
<polygon fill="black" stroke="black" points="3731.69,-33.1 3721.26,-34.92 3730.55,-40.01 3731.69,-33.1"/>
</g>
<!-- 38 -->
<g id="node22" class="node">
<title>38</title>
<ellipse fill="none" stroke="black" cx="4140.03" cy="-18" rx="220.96" ry="18"/>
<text text-anchor="start" x="3978.03" y="-15.3" font-family="Times,serif" font-size="14.00">(LITERAL,0,result_list.append(temp_list[0]))</text>
<text text-anchor="start" x="4294.03" y="-15.3" font-family="Times,serif" baseline-shift="sub" font-size="14.00">6</text>
</g>
<!-- 39&#45;&gt;38 -->
<g id="edge28" class="edge">
<title>39&#45;&gt;38</title>
<path fill="none" stroke="black" d="M4070.3,-72.05C4082.08,-63.09 4096.72,-51.96 4109.54,-42.2"/>
<polygon fill="black" stroke="black" points="4111.81,-44.87 4117.65,-36.03 4107.57,-39.3 4111.81,-44.87"/>
</g>
<!-- 48 -->
<g id="node24" class="node">
<title>48</title>
<ellipse fill="none" stroke="black" cx="4461.03" cy="-90" rx="198.47" ry="18"/>
<text text-anchor="start" x="4316.53" y="-87.3" font-family="Times,serif" font-size="14.00">(IDENTIFIER,print,print(result_list[0]))</text>
<text text-anchor="start" x="4597.53" y="-87.3" font-family="Times,serif" baseline-shift="sub" font-size="14.00">8</text>
</g>
<!-- 49&#45;&gt;48 -->
<g id="edge29" class="edge">
<title>49&#45;&gt;48</title>
<path fill="none" stroke="black" d="M3754.97,-149.22C3771.34,-147.37 3788.16,-145.56 3804.03,-144 4003.27,-124.42 4053.49,-124.15 4253.03,-108 4271.17,-106.53 4290.2,-104.99 4309.07,-103.45"/>
<polygon fill="black" stroke="black" points="4309.54,-106.92 4319.22,-102.62 4308.97,-99.94 4309.54,-106.92"/>
</g>
<!-- 47 -->
<g id="node25" class="node">
<title>47</title>
<ellipse fill="none" stroke="black" cx="4877.03" cy="-90" rx="199.56" ry="18"/>
<text text-anchor="start" x="4731.53" y="-87.3" font-family="Times,serif" font-size="14.00">(&lt;operator&gt;.indexAccess,result_list[0])</text>
<text text-anchor="start" x="5014.53" y="-87.3" font-family="Times,serif" baseline-shift="sub" font-size="14.00">8</text>
</g>
<!-- 49&#45;&gt;47 -->
<g id="edge30" class="edge">
<title>49&#45;&gt;47</title>
<path fill="none" stroke="black" d="M3752.57,-148.95C3769.68,-147.07 3787.37,-145.32 3804.03,-144 4187.17,-113.75 4284.42,-131.58 4668.03,-108 4687.71,-106.79 4708.4,-105.33 4728.82,-103.78"/>
<polygon fill="black" stroke="black" points="4729.11,-107.27 4738.81,-103.02 4728.57,-100.29 4729.11,-107.27"/>
</g>
<!-- 45 -->
<g id="node26" class="node">
<title>45</title>
<ellipse fill="none" stroke="black" cx="4785.03" cy="-18" rx="221.76" ry="18"/>
<text text-anchor="start" x="4622.53" y="-15.3" font-family="Times,serif" font-size="14.00">(IDENTIFIER,result_list,print(result_list[0]))</text>
<text text-anchor="start" x="4939.53" y="-15.3" font-family="Times,serif" baseline-shift="sub" font-size="14.00">8</text>
</g>
<!-- 47&#45;&gt;45 -->
<g id="edge31" class="edge">
<title>47&#45;&gt;45</title>
<path fill="none" stroke="black" d="M4854.76,-72.05C4842.98,-63.09 4828.35,-51.96 4815.53,-42.2"/>
<polygon fill="black" stroke="black" points="4817.49,-39.3 4807.42,-36.03 4813.26,-44.87 4817.49,-39.3"/>
</g>
<!-- 46 -->
<g id="node27" class="node">
<title>46</title>
<ellipse fill="none" stroke="black" cx="5189.03" cy="-18" rx="164.37" ry="18"/>
<text text-anchor="start" x="5070.53" y="-15.3" font-family="Times,serif" font-size="14.00">(LITERAL,0,print(result_list[0]))</text>
<text text-anchor="start" x="5299.53" y="-15.3" font-family="Times,serif" baseline-shift="sub" font-size="14.00">8</text>
</g>
<!-- 47&#45;&gt;46 -->
<g id="edge32" class="edge">
<title>47&#45;&gt;46</title>
<path fill="none" stroke="black" d="M4947.83,-73.12C4996.29,-62.24 5060.57,-47.82 5110.59,-36.6"/>
<polygon fill="black" stroke="black" points="5111.4,-40 5120.39,-34.4 5109.87,-33.17 5111.4,-40"/>
</g>
</g>
</svg>
