<?xml version="1.0" encoding="UTF-8" standalone="no"?>
<!DOCTYPE svg PUBLIC "-//W3C//DTD SVG 1.1//EN"
 "http://www.w3.org/Graphics/SVG/1.1/DTD/svg11.dtd">
<!-- Generated by graphviz version 2.43.0 (0)
 -->
<!-- Title: process_name Pages: 1 -->
<svg width="446pt" height="1052pt"
 viewBox="0.00 0.00 446.06 1052.00" xmlns="http://www.w3.org/2000/svg" xmlns:xlink="http://www.w3.org/1999/xlink">
<g id="graph0" class="graph" transform="scale(1 1) rotate(0) translate(4 1048)">
<title>process_name</title>
<polygon fill="white" stroke="transparent" points="-4,4 -4,-1048 442.06,-1048 442.06,4 -4,4"/>
<!-- 27 -->
<g id="node1" class="node">
<title>27</title>
<ellipse fill="none" stroke="black" cx="219.03" cy="-882" rx="201.46" ry="18"/>
<text text-anchor="start" x="72.03" y="-879.3" font-family="Times,serif" font-size="14.00">(&lt;operator&gt;.assignment,temp_list = [])</text>
<text text-anchor="start" x="358.03" y="-879.3" font-family="Times,serif" baseline-shift="sub" font-size="14.00">2</text>
</g>
<!-- 28 -->
<g id="node7" class="node">
<title>28</title>
<ellipse fill="none" stroke="black" cx="219.03" cy="-810" rx="136.48" ry="18"/>
<text text-anchor="start" x="122.03" y="-807.3" font-family="Times,serif" font-size="14.00">(&lt;operator&gt;.listLiteral,[])</text>
<text text-anchor="start" x="308.03" y="-807.3" font-family="Times,serif" baseline-shift="sub" font-size="14.00">3</text>
</g>
<!-- 27&#45;&gt;28 -->
<g id="edge1" class="edge">
<title>27&#45;&gt;28</title>
<path fill="none" stroke="black" d="M219.03,-863.7C219.03,-855.98 219.03,-846.71 219.03,-838.11"/>
<polygon fill="black" stroke="black" points="222.53,-838.1 219.03,-828.1 215.53,-838.1 222.53,-838.1"/>
</g>
<!-- 30 -->
<g id="node2" class="node">
<title>30</title>
<ellipse fill="none" stroke="black" cx="219.03" cy="-738" rx="204.96" ry="18"/>
<text text-anchor="start" x="69.53" y="-735.3" font-family="Times,serif" font-size="14.00">(&lt;operator&gt;.assignment,result_list = [])</text>
<text text-anchor="start" x="360.53" y="-735.3" font-family="Times,serif" baseline-shift="sub" font-size="14.00">3</text>
</g>
<!-- 33 -->
<g id="node12" class="node">
<title>33</title>
<ellipse fill="none" stroke="black" cx="219.03" cy="-666" rx="189.27" ry="18"/>
<text text-anchor="start" x="81.53" y="-663.3" font-family="Times,serif" font-size="14.00">(FIELD_IDENTIFIER,append,append)</text>
<text text-anchor="start" x="348.53" y="-663.3" font-family="Times,serif" baseline-shift="sub" font-size="14.00">5</text>
</g>
<!-- 30&#45;&gt;33 -->
<g id="edge2" class="edge">
<title>30&#45;&gt;33</title>
<path fill="none" stroke="black" d="M219.03,-719.7C219.03,-711.98 219.03,-702.71 219.03,-694.11"/>
<polygon fill="black" stroke="black" points="222.53,-694.1 219.03,-684.1 215.53,-694.1 222.53,-694.1"/>
</g>
<!-- 36 -->
<g id="node3" class="node">
<title>36</title>
<ellipse fill="none" stroke="black" cx="219.03" cy="-522" rx="172.47" ry="18"/>
<text text-anchor="start" x="94.53" y="-519.3" font-family="Times,serif" font-size="14.00">(append,temp_list.append(name))</text>
<text text-anchor="start" x="335.53" y="-519.3" font-family="Times,serif" baseline-shift="sub" font-size="14.00">5</text>
</g>
<!-- 41 -->
<g id="node13" class="node">
<title>41</title>
<ellipse fill="none" stroke="black" cx="219.03" cy="-450" rx="189.27" ry="18"/>
<text text-anchor="start" x="81.53" y="-447.3" font-family="Times,serif" font-size="14.00">(FIELD_IDENTIFIER,append,append)</text>
<text text-anchor="start" x="348.53" y="-447.3" font-family="Times,serif" baseline-shift="sub" font-size="14.00">6</text>
</g>
<!-- 36&#45;&gt;41 -->
<g id="edge3" class="edge">
<title>36&#45;&gt;41</title>
<path fill="none" stroke="black" d="M219.03,-503.7C219.03,-495.98 219.03,-486.71 219.03,-478.11"/>
<polygon fill="black" stroke="black" points="222.53,-478.1 219.03,-468.1 215.53,-478.1 222.53,-478.1"/>
</g>
<!-- 44 -->
<g id="node4" class="node">
<title>44</title>
<ellipse fill="none" stroke="black" cx="219.03" cy="-234" rx="205.26" ry="18"/>
<text text-anchor="start" x="69.03" y="-231.3" font-family="Times,serif" font-size="14.00">(append,result_list.append(temp_list[0]))</text>
<text text-anchor="start" x="361.03" y="-231.3" font-family="Times,serif" baseline-shift="sub" font-size="14.00">6</text>
</g>
<!-- 47 -->
<g id="node11" class="node">
<title>47</title>
<ellipse fill="none" stroke="black" cx="219.03" cy="-162" rx="199.56" ry="18"/>
<text text-anchor="start" x="73.53" y="-159.3" font-family="Times,serif" font-size="14.00">(&lt;operator&gt;.indexAccess,result_list[0])</text>
<text text-anchor="start" x="356.53" y="-159.3" font-family="Times,serif" baseline-shift="sub" font-size="14.00">8</text>
</g>
<!-- 44&#45;&gt;47 -->
<g id="edge4" class="edge">
<title>44&#45;&gt;47</title>
<path fill="none" stroke="black" d="M219.03,-215.7C219.03,-207.98 219.03,-198.71 219.03,-190.11"/>
<polygon fill="black" stroke="black" points="222.53,-190.1 219.03,-180.1 215.53,-190.1 222.53,-190.1"/>
</g>
<!-- 49 -->
<g id="node5" class="node">
<title>49</title>
<ellipse fill="none" stroke="black" cx="219.03" cy="-90" rx="137.28" ry="18"/>
<text text-anchor="start" x="121.53" y="-87.3" font-family="Times,serif" font-size="14.00">(print,print(result_list[0]))</text>
<text text-anchor="start" x="308.53" y="-87.3" font-family="Times,serif" baseline-shift="sub" font-size="14.00">8</text>
</g>
<!-- 24 -->
<g id="node15" class="node">
<title>24</title>
<ellipse fill="none" stroke="black" cx="219.03" cy="-18" rx="135.68" ry="18"/>
<text text-anchor="start" x="122.53" y="-15.3" font-family="Times,serif" font-size="14.00">(METHOD_RETURN,ANY)</text>
<text text-anchor="start" x="307.53" y="-15.3" font-family="Times,serif" baseline-shift="sub" font-size="14.00">1</text>
</g>
<!-- 49&#45;&gt;24 -->
<g id="edge5" class="edge">
<title>49&#45;&gt;24</title>
<path fill="none" stroke="black" d="M219.03,-71.7C219.03,-63.98 219.03,-54.71 219.03,-46.11"/>
<polygon fill="black" stroke="black" points="222.53,-46.1 219.03,-36.1 215.53,-46.1 222.53,-46.1"/>
</g>
<!-- 25 -->
<g id="node6" class="node">
<title>25</title>
<ellipse fill="none" stroke="black" cx="219.03" cy="-954" rx="136.48" ry="18"/>
<text text-anchor="start" x="122.03" y="-951.3" font-family="Times,serif" font-size="14.00">(&lt;operator&gt;.listLiteral,[])</text>
<text text-anchor="start" x="308.03" y="-951.3" font-family="Times,serif" baseline-shift="sub" font-size="14.00">2</text>
</g>
<!-- 25&#45;&gt;27 -->
<g id="edge6" class="edge">
<title>25&#45;&gt;27</title>
<path fill="none" stroke="black" d="M219.03,-935.7C219.03,-927.98 219.03,-918.71 219.03,-910.11"/>
<polygon fill="black" stroke="black" points="222.53,-910.1 219.03,-900.1 215.53,-910.1 222.53,-910.1"/>
</g>
<!-- 28&#45;&gt;30 -->
<g id="edge7" class="edge">
<title>28&#45;&gt;30</title>
<path fill="none" stroke="black" d="M219.03,-791.7C219.03,-783.98 219.03,-774.71 219.03,-766.11"/>
<polygon fill="black" stroke="black" points="222.53,-766.1 219.03,-756.1 215.53,-766.1 222.53,-766.1"/>
</g>
<!-- 34 -->
<g id="node8" class="node">
<title>34</title>
<ellipse fill="none" stroke="black" cx="219.03" cy="-594" rx="215.26" ry="18"/>
<text text-anchor="start" x="61.53" y="-591.3" font-family="Times,serif" font-size="14.00">(&lt;operator&gt;.fieldAccess,temp_list.append)</text>
<text text-anchor="start" x="368.53" y="-591.3" font-family="Times,serif" baseline-shift="sub" font-size="14.00">5</text>
</g>
<!-- 34&#45;&gt;36 -->
<g id="edge8" class="edge">
<title>34&#45;&gt;36</title>
<path fill="none" stroke="black" d="M219.03,-575.7C219.03,-567.98 219.03,-558.71 219.03,-550.11"/>
<polygon fill="black" stroke="black" points="222.53,-550.1 219.03,-540.1 215.53,-550.1 222.53,-550.1"/>
</g>
<!-- 42 -->
<g id="node9" class="node">
<title>42</title>
<ellipse fill="none" stroke="black" cx="219.03" cy="-378" rx="219.06" ry="18"/>
<text text-anchor="start" x="58.53" y="-375.3" font-family="Times,serif" font-size="14.00">(&lt;operator&gt;.fieldAccess,result_list.append)</text>
<text text-anchor="start" x="371.53" y="-375.3" font-family="Times,serif" baseline-shift="sub" font-size="14.00">6</text>
</g>
<!-- 39 -->
<g id="node10" class="node">
<title>39</title>
<ellipse fill="none" stroke="black" cx="219.03" cy="-306" rx="196.07" ry="18"/>
<text text-anchor="start" x="76.03" y="-303.3" font-family="Times,serif" font-size="14.00">(&lt;operator&gt;.indexAccess,temp_list[0])</text>
<text text-anchor="start" x="354.03" y="-303.3" font-family="Times,serif" baseline-shift="sub" font-size="14.00">6</text>
</g>
<!-- 42&#45;&gt;39 -->
<g id="edge9" class="edge">
<title>42&#45;&gt;39</title>
<path fill="none" stroke="black" d="M219.03,-359.7C219.03,-351.98 219.03,-342.71 219.03,-334.11"/>
<polygon fill="black" stroke="black" points="222.53,-334.1 219.03,-324.1 215.53,-334.1 222.53,-334.1"/>
</g>
<!-- 39&#45;&gt;44 -->
<g id="edge10" class="edge">
<title>39&#45;&gt;44</title>
<path fill="none" stroke="black" d="M219.03,-287.7C219.03,-279.98 219.03,-270.71 219.03,-262.11"/>
<polygon fill="black" stroke="black" points="222.53,-262.1 219.03,-252.1 215.53,-262.1 222.53,-262.1"/>
</g>
<!-- 47&#45;&gt;49 -->
<g id="edge11" class="edge">
<title>47&#45;&gt;49</title>
<path fill="none" stroke="black" d="M219.03,-143.7C219.03,-135.98 219.03,-126.71 219.03,-118.11"/>
<polygon fill="black" stroke="black" points="222.53,-118.1 219.03,-108.1 215.53,-118.1 222.53,-118.1"/>
</g>
<!-- 33&#45;&gt;34 -->
<g id="edge12" class="edge">
<title>33&#45;&gt;34</title>
<path fill="none" stroke="black" d="M219.03,-647.7C219.03,-639.98 219.03,-630.71 219.03,-622.11"/>
<polygon fill="black" stroke="black" points="222.53,-622.1 219.03,-612.1 215.53,-622.1 222.53,-622.1"/>
</g>
<!-- 41&#45;&gt;42 -->
<g id="edge13" class="edge">
<title>41&#45;&gt;42</title>
<path fill="none" stroke="black" d="M219.03,-431.7C219.03,-423.98 219.03,-414.71 219.03,-406.11"/>
<polygon fill="black" stroke="black" points="222.53,-406.1 219.03,-396.1 215.53,-406.1 222.53,-406.1"/>
</g>
<!-- 20 -->
<g id="node14" class="node">
<title>20</title>
<ellipse fill="none" stroke="black" cx="219.03" cy="-1026" rx="135.38" ry="18"/>
<text text-anchor="start" x="123.03" y="-1023.3" font-family="Times,serif" font-size="14.00">(METHOD,process_name)</text>
<text text-anchor="start" x="307.03" y="-1023.3" font-family="Times,serif" baseline-shift="sub" font-size="14.00">1</text>
</g>
<!-- 20&#45;&gt;25 -->
<g id="edge14" class="edge">
<title>20&#45;&gt;25</title>
<path fill="none" stroke="black" d="M219.03,-1007.7C219.03,-999.98 219.03,-990.71 219.03,-982.11"/>
<polygon fill="black" stroke="black" points="222.53,-982.1 219.03,-972.1 215.53,-982.1 222.53,-982.1"/>
</g>
</g>
</svg>
