<?xml version="1.0" encoding="UTF-8" standalone="no"?>
<!DOCTYPE svg PUBLIC "-//W3C//DTD SVG 1.1//EN"
 "http://www.w3.org/Graphics/SVG/1.1/DTD/svg11.dtd">
<!-- Generated by graphviz version 2.43.0 (0)
 -->
<!-- Title: process_name Pages: 1 -->
<svg width="3973pt" height="1001pt"
 viewBox="0.00 0.00 3973.23 1001.00" xmlns="http://www.w3.org/2000/svg" xmlns:xlink="http://www.w3.org/1999/xlink">
<g id="graph0" class="graph" transform="scale(1 1) rotate(0) translate(4 997)">
<title>process_name</title>
<polygon fill="white" stroke="transparent" points="-4,4 -4,-997 3969.23,-997 3969.23,4 -4,4"/>
<!-- 20 -->
<g id="node1" class="node">
<title>20</title>
<ellipse fill="none" stroke="black" cx="2400" cy="-975" rx="135.38" ry="18"/>
<text text-anchor="start" x="2304" y="-972.3" font-family="Times,serif" font-size="14.00">(METHOD,process_name)</text>
<text text-anchor="start" x="2488" y="-972.3" font-family="Times,serif" baseline-shift="sub" font-size="14.00">1</text>
</g>
<!-- 21 -->
<g id="node2" class="node">
<title>21</title>
<ellipse fill="none" stroke="black" cx="1945" cy="-888" rx="62.29" ry="18"/>
<text text-anchor="start" x="1905" y="-885.3" font-family="Times,serif" font-size="14.00">(BLOCK,,)</text>
<text text-anchor="start" x="1977" y="-885.3" font-family="Times,serif" baseline-shift="sub" font-size="14.00">1</text>
</g>
<!-- 20&#45;&gt;21 -->
<g id="edge2" class="edge">
<title>20&#45;&gt;21</title>
<path fill="none" stroke="black" d="M2325.12,-960.01C2235.88,-943.34 2088.5,-915.81 2005.92,-900.38"/>
<polygon fill="black" stroke="black" points="2006.41,-896.91 1995.93,-898.52 2005.12,-903.79 2006.41,-896.91"/>
<text text-anchor="middle" x="2219" y="-927.8" font-family="Times,serif" font-size="14.00">AST: </text>
</g>
<!-- 27 -->
<g id="node3" class="node">
<title>27</title>
<ellipse fill="none" stroke="black" cx="622" cy="-801" rx="201.46" ry="18"/>
<text text-anchor="start" x="475" y="-798.3" font-family="Times,serif" font-size="14.00">(&lt;operator&gt;.assignment,temp_list = [])</text>
<text text-anchor="start" x="761" y="-798.3" font-family="Times,serif" baseline-shift="sub" font-size="14.00">2</text>
</g>
<!-- 20&#45;&gt;27 -->
<g id="edge59" class="edge">
<title>20&#45;&gt;27</title>
<path fill="none" stroke="black" d="M2265.52,-972.84C1944.11,-969.74 1149.16,-960.04 1030,-939 894.79,-915.13 743.48,-854.94 668.84,-822.87"/>
<polygon fill="black" stroke="black" points="669.83,-819.49 659.26,-818.73 667.05,-825.91 669.83,-819.49"/>
<text text-anchor="middle" x="911.5" y="-884.3" font-family="Times,serif" font-size="14.00">DDG: </text>
</g>
<!-- 25 -->
<g id="node5" class="node">
<title>25</title>
<ellipse fill="none" stroke="black" cx="164" cy="-714" rx="136.48" ry="18"/>
<text text-anchor="start" x="67" y="-711.3" font-family="Times,serif" font-size="14.00">(&lt;operator&gt;.listLiteral,[])</text>
<text text-anchor="start" x="253" y="-711.3" font-family="Times,serif" baseline-shift="sub" font-size="14.00">2</text>
</g>
<!-- 20&#45;&gt;25 -->
<g id="edge46" class="edge">
<title>20&#45;&gt;25</title>
<path fill="none" stroke="black" d="M2265.21,-973.44C1957.91,-971.71 1212.77,-964.9 963,-939 882.54,-930.66 863.19,-922.55 784,-906 548.35,-856.75 481.82,-860.89 261,-765 241.32,-756.45 220.07,-745.68 202.48,-736.33"/>
<polygon fill="black" stroke="black" points="204.12,-733.23 193.65,-731.58 200.81,-739.4 204.12,-733.23"/>
<text text-anchor="middle" x="531.5" y="-840.8" font-family="Times,serif" font-size="14.00">CFG: </text>
</g>
<!-- 30 -->
<g id="node6" class="node">
<title>30</title>
<ellipse fill="none" stroke="black" cx="1061" cy="-627" rx="204.96" ry="18"/>
<text text-anchor="start" x="911.5" y="-624.3" font-family="Times,serif" font-size="14.00">(&lt;operator&gt;.assignment,result_list = [])</text>
<text text-anchor="start" x="1202.5" y="-624.3" font-family="Times,serif" baseline-shift="sub" font-size="14.00">3</text>
</g>
<!-- 20&#45;&gt;30 -->
<g id="edge60" class="edge">
<title>20&#45;&gt;30</title>
<path fill="none" stroke="black" d="M2276.28,-967.74C2055.65,-955.2 1580.32,-922 1185,-852 1126.73,-841.68 1092.29,-865.74 1056,-819 1036.75,-794.21 1048.7,-701.68 1056.23,-655.12"/>
<polygon fill="black" stroke="black" points="1059.71,-655.57 1057.9,-645.13 1052.8,-654.42 1059.71,-655.57"/>
<text text-anchor="middle" x="1077.5" y="-797.3" font-family="Times,serif" font-size="14.00">DDG: </text>
</g>
<!-- 36 -->
<g id="node9" class="node">
<title>36</title>
<ellipse fill="none" stroke="black" cx="1711" cy="-366" rx="172.47" ry="18"/>
<text text-anchor="start" x="1586.5" y="-363.3" font-family="Times,serif" font-size="14.00">(append,temp_list.append(name))</text>
<text text-anchor="start" x="1827.5" y="-363.3" font-family="Times,serif" baseline-shift="sub" font-size="14.00">5</text>
</g>
<!-- 20&#45;&gt;36 -->
<g id="edge62" class="edge">
<title>20&#45;&gt;36</title>
<path fill="none" stroke="black" d="M2383.83,-956.95C2370.23,-940.78 2353,-915.14 2353,-889 2353,-889 2353,-889 2353,-495.5 2353,-401 2082.16,-375.05 1892.31,-368.46"/>
<polygon fill="black" stroke="black" points="1892.31,-364.96 1882.2,-368.13 1892.08,-371.96 1892.31,-364.96"/>
<text text-anchor="middle" x="2374.5" y="-666.8" font-family="Times,serif" font-size="14.00">DDG: </text>
</g>
<!-- 44 -->
<g id="node15" class="node">
<title>44</title>
<ellipse fill="none" stroke="black" cx="2339" cy="-279" rx="205.26" ry="18"/>
<text text-anchor="start" x="2189" y="-276.3" font-family="Times,serif" font-size="14.00">(append,result_list.append(temp_list[0]))</text>
<text text-anchor="start" x="2481" y="-276.3" font-family="Times,serif" baseline-shift="sub" font-size="14.00">6</text>
</g>
<!-- 20&#45;&gt;44 -->
<g id="edge65" class="edge">
<title>20&#45;&gt;44</title>
<path fill="none" stroke="black" d="M2521.13,-966.92C2552.25,-961.71 2584.85,-953.1 2613,-939 2641.67,-924.64 2665,-921.06 2665,-889 2665,-889 2665,-889 2665,-365 2665,-326.25 2577.66,-304.84 2493.4,-293.2"/>
<polygon fill="black" stroke="black" points="2493.79,-289.72 2483.41,-291.87 2492.86,-296.66 2493.79,-289.72"/>
<text text-anchor="middle" x="2686.5" y="-623.3" font-family="Times,serif" font-size="14.00">DDG: </text>
</g>
<!-- 48 -->
<g id="node24" class="node">
<title>48</title>
<ellipse fill="none" stroke="black" cx="3767" cy="-105" rx="198.47" ry="18"/>
<text text-anchor="start" x="3622.5" y="-102.3" font-family="Times,serif" font-size="14.00">(IDENTIFIER,print,print(result_list[0]))</text>
<text text-anchor="start" x="3903.5" y="-102.3" font-family="Times,serif" baseline-shift="sub" font-size="14.00">8</text>
</g>
<!-- 20&#45;&gt;48 -->
<g id="edge68" class="edge">
<title>20&#45;&gt;48</title>
<path fill="none" stroke="black" d="M2528.65,-969.45C2795.8,-959.13 3386,-931.54 3386,-889 3386,-889 3386,-889 3386,-191 3386,-163.86 3535.14,-137.41 3646.8,-121.41"/>
<polygon fill="black" stroke="black" points="3647.39,-124.86 3656.8,-119.99 3646.41,-117.93 3647.39,-124.86"/>
<text text-anchor="middle" x="3407.5" y="-536.3" font-family="Times,serif" font-size="14.00">DDG: </text>
</g>
<!-- 22 -->
<g id="node31" class="node">
<title>22</title>
<ellipse fill="none" stroke="black" cx="3527" cy="-888" rx="113.18" ry="18"/>
<text text-anchor="start" x="3448" y="-884.3" font-family="Times,serif" font-size="14.00">(MODIFIER,VIRTUAL)</text>
</g>
<!-- 20&#45;&gt;22 -->
<g id="edge1" class="edge">
<title>20&#45;&gt;22</title>
<path fill="none" stroke="black" d="M2533.53,-971.85C2786.45,-967.39 3317.56,-956.14 3400,-939 3429.49,-932.87 3461.01,-920.5 3485.27,-909.59"/>
<polygon fill="black" stroke="black" points="3486.9,-912.7 3494.53,-905.35 3483.98,-906.34 3486.9,-912.7"/>
<text text-anchor="middle" x="3470" y="-927.8" font-family="Times,serif" font-size="14.00">AST: </text>
</g>
<!-- 23 -->
<g id="node32" class="node">
<title>23</title>
<ellipse fill="none" stroke="black" cx="2466" cy="-888" rx="85.29" ry="18"/>
<text text-anchor="start" x="2408.5" y="-885.3" font-family="Times,serif" font-size="14.00">(PARAM,name)</text>
<text text-anchor="start" x="2515.5" y="-885.3" font-family="Times,serif" baseline-shift="sub" font-size="14.00">1</text>
</g>
<!-- 20&#45;&gt;23 -->
<g id="edge3" class="edge">
<title>20&#45;&gt;23</title>
<path fill="none" stroke="black" d="M2425.66,-956.99C2432.23,-951.78 2438.88,-945.65 2444,-939 2449.35,-932.06 2453.71,-923.61 2457.09,-915.65"/>
<polygon fill="black" stroke="black" points="2460.35,-916.91 2460.73,-906.32 2453.83,-914.36 2460.35,-916.91"/>
<text text-anchor="middle" x="2472" y="-927.8" font-family="Times,serif" font-size="14.00">AST: </text>
</g>
<!-- 20&#45;&gt;23 -->
<g id="edge58" class="edge">
<title>20&#45;&gt;23</title>
<path fill="none" stroke="black" d="M2394.24,-956.59C2391.95,-946.38 2391.08,-933.63 2397,-924 2400.68,-918 2405.75,-912.99 2411.48,-908.82"/>
<polygon fill="black" stroke="black" points="2413.67,-911.58 2420.26,-903.28 2409.94,-905.65 2413.67,-911.58"/>
<text text-anchor="middle" x="2418.5" y="-927.8" font-family="Times,serif" font-size="14.00">DDG: </text>
</g>
<!-- 24 -->
<g id="node33" class="node">
<title>24</title>
<ellipse fill="none" stroke="black" cx="1125" cy="-105" rx="135.68" ry="18"/>
<text text-anchor="start" x="1028.5" y="-102.3" font-family="Times,serif" font-size="14.00">(METHOD_RETURN,ANY)</text>
<text text-anchor="start" x="1213.5" y="-102.3" font-family="Times,serif" baseline-shift="sub" font-size="14.00">1</text>
</g>
<!-- 20&#45;&gt;24 -->
<g id="edge4" class="edge">
<title>20&#45;&gt;24</title>
<path fill="none" stroke="black" d="M2512.29,-964.91C2557.43,-954.49 2599,-932.95 2599,-889 2599,-889 2599,-889 2599,-582.5 2599,-458.46 2703,-447.54 2703,-323.5 2703,-323.5 2703,-323.5 2703,-191 2703,-120.4 1504.52,-126.41 1434,-123 1375.9,-120.19 1311.68,-116.72 1256.91,-113.65"/>
<polygon fill="black" stroke="black" points="1256.97,-110.14 1246.79,-113.08 1256.58,-117.13 1256.97,-110.14"/>
<text text-anchor="middle" x="2628" y="-536.3" font-family="Times,serif" font-size="14.00">AST: </text>
</g>
<!-- 21&#45;&gt;27 -->
<g id="edge5" class="edge">
<title>21&#45;&gt;27</title>
<path fill="none" stroke="black" d="M1882.89,-886.1C1738.7,-883.66 1370.13,-875.47 1063,-852 952.77,-843.58 827.58,-828.89 738.82,-817.61"/>
<polygon fill="black" stroke="black" points="739.09,-814.11 728.73,-816.32 738.2,-821.06 739.09,-814.11"/>
<text text-anchor="middle" x="1082" y="-840.8" font-family="Times,serif" font-size="14.00">AST: </text>
</g>
<!-- 21&#45;&gt;30 -->
<g id="edge7" class="edge">
<title>21&#45;&gt;30</title>
<path fill="none" stroke="black" d="M1882.87,-885.56C1703.43,-880.9 1193.35,-863.79 1134,-819 1074.83,-774.35 1101.88,-732.08 1075,-663 1073.93,-660.26 1072.81,-657.39 1071.68,-654.54"/>
<polygon fill="black" stroke="black" points="1074.85,-653.06 1067.9,-645.06 1068.35,-655.65 1074.85,-653.06"/>
<text text-anchor="middle" x="1115" y="-753.8" font-family="Times,serif" font-size="14.00">AST: </text>
</g>
<!-- 21&#45;&gt;36 -->
<g id="edge9" class="edge">
<title>21&#45;&gt;36</title>
<path fill="none" stroke="black" d="M1986.59,-874.57C2013,-864.27 2045.1,-846.75 2061,-819 2068.95,-805.12 2061.36,-799 2061,-783 2059,-694.71 2052,-672.81 2052,-584.5 2052,-584.5 2052,-584.5 2052,-452 2052,-409.84 1952.6,-388.42 1861.14,-377.65"/>
<polygon fill="black" stroke="black" points="1861.51,-374.17 1851.17,-376.51 1860.71,-381.12 1861.51,-374.17"/>
<text text-anchor="middle" x="2073" y="-623.3" font-family="Times,serif" font-size="14.00">AST: </text>
</g>
<!-- 21&#45;&gt;44 -->
<g id="edge11" class="edge">
<title>21&#45;&gt;44</title>
<path fill="none" stroke="black" d="M2006.43,-884.82C2108.04,-879.54 2300,-861.65 2300,-802 2300,-802 2300,-802 2300,-626 2300,-603.77 2299.36,-598.17 2301,-576 2308.35,-476.63 2326.1,-359.51 2334.48,-307.39"/>
<polygon fill="black" stroke="black" points="2337.97,-307.71 2336.12,-297.28 2331.06,-306.59 2337.97,-307.71"/>
<text text-anchor="middle" x="2320" y="-579.8" font-family="Times,serif" font-size="14.00">AST: </text>
</g>
<!-- 49 -->
<g id="node23" class="node">
<title>49</title>
<ellipse fill="none" stroke="black" cx="1430" cy="-192" rx="137.28" ry="18"/>
<text text-anchor="start" x="1332.5" y="-189.3" font-family="Times,serif" font-size="14.00">(print,print(result_list[0]))</text>
<text text-anchor="start" x="1519.5" y="-189.3" font-family="Times,serif" baseline-shift="sub" font-size="14.00">8</text>
</g>
<!-- 21&#45;&gt;49 -->
<g id="edge12" class="edge">
<title>21&#45;&gt;49</title>
<path fill="none" stroke="black" d="M2004.05,-882.04C2054.17,-874.22 2118,-854.04 2118,-802 2118,-802 2118,-802 2118,-669.5 2118,-592.87 2106,-574.13 2106,-497.5 2106,-497.5 2106,-497.5 2106,-321.5 2106,-293.32 2109.48,-278 2087,-261 2030.7,-218.43 1510.56,-282.41 1452,-243 1444.11,-237.69 1439.03,-228.87 1435.76,-220.1"/>
<polygon fill="black" stroke="black" points="1439.07,-218.95 1432.79,-210.42 1432.38,-221.01 1439.07,-218.95"/>
<text text-anchor="middle" x="2128" y="-536.3" font-family="Times,serif" font-size="14.00">AST: </text>
</g>
<!-- 83 -->
<g id="node28" class="node">
<title>83</title>
<ellipse fill="none" stroke="black" cx="1306" cy="-801" rx="163.27" ry="18"/>
<text text-anchor="start" x="1188.5" y="-798.3" font-family="Times,serif" font-size="14.00">(LOCAL,temp_list: __builtin.list)</text>
<text text-anchor="start" x="1415.5" y="-798.3" font-family="Times,serif" baseline-shift="sub" font-size="14.00">2</text>
</g>
<!-- 21&#45;&gt;83 -->
<g id="edge6" class="edge">
<title>21&#45;&gt;83</title>
<path fill="none" stroke="black" d="M1889.69,-879.64C1784.46,-865.65 1553.69,-834.95 1415.93,-816.62"/>
<polygon fill="black" stroke="black" points="1416.14,-813.12 1405.77,-815.27 1415.22,-820.06 1416.14,-813.12"/>
<text text-anchor="middle" x="1683" y="-840.8" font-family="Times,serif" font-size="14.00">AST: </text>
</g>
<!-- 84 -->
<g id="node29" class="node">
<title>84</title>
<ellipse fill="none" stroke="black" cx="1654" cy="-801" rx="166.27" ry="18"/>
<text text-anchor="start" x="1534" y="-798.3" font-family="Times,serif" font-size="14.00">(LOCAL,result_list: __builtin.list)</text>
<text text-anchor="start" x="1766" y="-798.3" font-family="Times,serif" baseline-shift="sub" font-size="14.00">3</text>
</g>
<!-- 21&#45;&gt;84 -->
<g id="edge8" class="edge">
<title>21&#45;&gt;84</title>
<path fill="none" stroke="black" d="M1902.69,-874.64C1854.36,-860.52 1774.74,-837.27 1718.63,-820.88"/>
<polygon fill="black" stroke="black" points="1719.37,-817.45 1708.79,-818 1717.4,-824.17 1719.37,-817.45"/>
<text text-anchor="middle" x="1836" y="-840.8" font-family="Times,serif" font-size="14.00">AST: </text>
</g>
<!-- 85 -->
<g id="node30" class="node">
<title>85</title>
<ellipse fill="none" stroke="black" cx="1945" cy="-801" rx="106.68" ry="18"/>
<text text-anchor="start" x="1871" y="-798.3" font-family="Times,serif" font-size="14.00">(LOCAL,print: ANY)</text>
<text text-anchor="start" x="2011" y="-798.3" font-family="Times,serif" baseline-shift="sub" font-size="14.00">8</text>
</g>
<!-- 21&#45;&gt;85 -->
<g id="edge10" class="edge">
<title>21&#45;&gt;85</title>
<path fill="none" stroke="black" d="M1945,-869.8C1945,-858.16 1945,-842.55 1945,-829.24"/>
<polygon fill="black" stroke="black" points="1948.5,-829.18 1945,-819.18 1941.5,-829.18 1948.5,-829.18"/>
<text text-anchor="middle" x="1964" y="-840.8" font-family="Times,serif" font-size="14.00">AST: </text>
</g>
<!-- 26 -->
<g id="node4" class="node">
<title>26</title>
<ellipse fill="none" stroke="black" cx="512" cy="-714" rx="193.07" ry="18"/>
<text text-anchor="start" x="371.5" y="-711.3" font-family="Times,serif" font-size="14.00">(IDENTIFIER,temp_list,temp_list = [])</text>
<text text-anchor="start" x="644.5" y="-711.3" font-family="Times,serif" baseline-shift="sub" font-size="14.00">2</text>
</g>
<!-- 27&#45;&gt;26 -->
<g id="edge13" class="edge">
<title>27&#45;&gt;26</title>
<path fill="none" stroke="black" d="M600,-783C583.37,-770.15 560.34,-752.35 542.01,-738.19"/>
<polygon fill="black" stroke="black" points="544.01,-735.31 533.96,-731.97 539.73,-740.85 544.01,-735.31"/>
<text text-anchor="middle" x="593" y="-753.8" font-family="Times,serif" font-size="14.00">AST: </text>
</g>
<!-- 27&#45;&gt;25 -->
<g id="edge14" class="edge">
<title>27&#45;&gt;25</title>
<path fill="none" stroke="black" d="M538.79,-784.56C456.89,-769.36 332.39,-746.25 249.65,-730.9"/>
<polygon fill="black" stroke="black" points="250.24,-727.45 239.77,-729.06 248.96,-734.33 250.24,-727.45"/>
<text text-anchor="middle" x="440" y="-753.8" font-family="Times,serif" font-size="14.00">AST: </text>
</g>
<!-- 28 -->
<g id="node8" class="node">
<title>28</title>
<ellipse fill="none" stroke="black" cx="897" cy="-714" rx="136.48" ry="18"/>
<text text-anchor="start" x="800" y="-711.3" font-family="Times,serif" font-size="14.00">(&lt;operator&gt;.listLiteral,[])</text>
<text text-anchor="start" x="986" y="-711.3" font-family="Times,serif" baseline-shift="sub" font-size="14.00">3</text>
</g>
<!-- 27&#45;&gt;28 -->
<g id="edge33" class="edge">
<title>27&#45;&gt;28</title>
<path fill="none" stroke="black" d="M682.26,-783.77C702.85,-778.05 725.99,-771.44 747,-765 778.34,-755.39 813.08,-743.87 841.23,-734.31"/>
<polygon fill="black" stroke="black" points="842.56,-737.55 850.9,-731.01 840.31,-730.93 842.56,-737.55"/>
<text text-anchor="middle" x="813.5" y="-753.8" font-family="Times,serif" font-size="14.00">CFG: </text>
</g>
<!-- 27&#45;&gt;36 -->
<g id="edge61" class="edge">
<title>27&#45;&gt;36</title>
<path fill="none" stroke="black" d="M656.96,-783.24C677.04,-771.72 700.83,-754.44 714,-732 749.39,-671.72 691.96,-631.85 734,-576 770.4,-527.65 801.08,-539.53 859,-522 1111.42,-445.61 1417.95,-401.13 1585.92,-380.7"/>
<polygon fill="black" stroke="black" points="1586.53,-384.15 1596.04,-379.48 1585.69,-377.2 1586.53,-384.15"/>
<text text-anchor="middle" x="788.5" y="-579.8" font-family="Times,serif" font-size="14.00">DDG: temp_list</text>
</g>
<!-- 27&#45;&gt;24 -->
<g id="edge47" class="edge">
<title>27&#45;&gt;24</title>
<path fill="none" stroke="black" d="M443.76,-792.55C259.96,-782.41 0,-760.09 0,-715 0,-715 0,-715 0,-191 0,-142.26 680.15,-117.93 982.75,-109.51"/>
<polygon fill="black" stroke="black" points="983.02,-113.01 992.92,-109.23 982.82,-106.01 983.02,-113.01"/>
<text text-anchor="middle" x="70.5" y="-449.3" font-family="Times,serif" font-size="14.00">DDG: temp_list = []</text>
</g>
<!-- 25&#45;&gt;27 -->
<g id="edge38" class="edge">
<title>25&#45;&gt;27</title>
<path fill="none" stroke="black" d="M207.04,-731.18C238.26,-742.31 281.71,-756.54 321,-765 367.36,-774.98 418.39,-782.27 465.05,-787.53"/>
<polygon fill="black" stroke="black" points="464.92,-791.04 475.25,-788.65 465.69,-784.08 464.92,-791.04"/>
<text text-anchor="middle" x="341.5" y="-753.8" font-family="Times,serif" font-size="14.00">CFG: </text>
</g>
<!-- 29 -->
<g id="node7" class="node">
<title>29</title>
<ellipse fill="none" stroke="black" cx="1101" cy="-540" rx="199.56" ry="18"/>
<text text-anchor="start" x="955.5" y="-537.3" font-family="Times,serif" font-size="14.00">(IDENTIFIER,result_list,result_list = [])</text>
<text text-anchor="start" x="1238.5" y="-537.3" font-family="Times,serif" baseline-shift="sub" font-size="14.00">3</text>
</g>
<!-- 30&#45;&gt;29 -->
<g id="edge15" class="edge">
<title>30&#45;&gt;29</title>
<path fill="none" stroke="black" d="M1069.09,-608.8C1074.68,-596.93 1082.21,-580.93 1088.55,-567.45"/>
<polygon fill="black" stroke="black" points="1091.83,-568.71 1092.92,-558.18 1085.49,-565.73 1091.83,-568.71"/>
<text text-anchor="middle" x="1103" y="-579.8" font-family="Times,serif" font-size="14.00">AST: </text>
</g>
<!-- 30&#45;&gt;28 -->
<g id="edge16" class="edge">
<title>30&#45;&gt;28</title>
<path fill="none" stroke="black" d="M1028.51,-644.84C1002.58,-658.28 966.1,-677.18 938.14,-691.68"/>
<polygon fill="black" stroke="black" points="936.28,-688.7 929.01,-696.41 939.5,-694.92 936.28,-688.7"/>
<text text-anchor="middle" x="1008" y="-666.8" font-family="Times,serif" font-size="14.00">AST: </text>
</g>
<!-- 33 -->
<g id="node12" class="node">
<title>33</title>
<ellipse fill="none" stroke="black" cx="1518" cy="-540" rx="189.27" ry="18"/>
<text text-anchor="start" x="1380.5" y="-537.3" font-family="Times,serif" font-size="14.00">(FIELD_IDENTIFIER,append,append)</text>
<text text-anchor="start" x="1647.5" y="-537.3" font-family="Times,serif" baseline-shift="sub" font-size="14.00">5</text>
</g>
<!-- 30&#45;&gt;33 -->
<g id="edge34" class="edge">
<title>30&#45;&gt;33</title>
<path fill="none" stroke="black" d="M1144.29,-610.51C1223.95,-595.69 1343.82,-573.4 1426.2,-558.07"/>
<polygon fill="black" stroke="black" points="1426.86,-561.51 1436.05,-556.24 1425.58,-554.63 1426.86,-561.51"/>
<text text-anchor="middle" x="1337.5" y="-579.8" font-family="Times,serif" font-size="14.00">CFG: </text>
</g>
<!-- 30&#45;&gt;44 -->
<g id="edge64" class="edge">
<title>30&#45;&gt;44</title>
<path fill="none" stroke="black" d="M1265.71,-626.47C1534.54,-624.8 1990.82,-613.49 2148,-558 2160.33,-553.65 2172,-554.07 2172,-541 2172,-541 2172,-541 2172,-365 2172,-331.1 2199.67,-310.71 2232.49,-298.45"/>
<polygon fill="black" stroke="black" points="2234.03,-301.63 2242.34,-295.06 2231.74,-295.01 2234.03,-301.63"/>
<text text-anchor="middle" x="2229.5" y="-449.3" font-family="Times,serif" font-size="14.00">DDG: result_list</text>
</g>
<!-- 30&#45;&gt;24 -->
<g id="edge48" class="edge">
<title>30&#45;&gt;24</title>
<path fill="none" stroke="black" d="M936.48,-612.7C907.65,-607.48 882.14,-600.42 871,-591 775.44,-510.17 783,-448.66 783,-323.5 783,-323.5 783,-323.5 783,-191 783,-166.35 786.89,-155.25 807,-141 835.02,-121.14 910.18,-112.3 980.39,-108.47"/>
<polygon fill="black" stroke="black" points="980.9,-111.95 990.71,-107.94 980.55,-104.96 980.9,-111.95"/>
<text text-anchor="middle" x="810" y="-362.3" font-family="Times,serif" font-size="14.00">DDG: []</text>
</g>
<!-- 30&#45;&gt;24 -->
<g id="edge49" class="edge">
<title>30&#45;&gt;24</title>
<path fill="none" stroke="black" d="M976.28,-610.46C945.27,-600.53 912.73,-584.35 892,-558 865.39,-524.18 820.65,-211.36 842,-174 858.94,-144.36 936.82,-127.07 1006.6,-117.34"/>
<polygon fill="black" stroke="black" points="1007.39,-120.77 1016.83,-115.96 1006.45,-113.83 1007.39,-120.77"/>
<text text-anchor="middle" x="925" y="-362.3" font-family="Times,serif" font-size="14.00">DDG: result_list = []</text>
</g>
<!-- 28&#45;&gt;30 -->
<g id="edge39" class="edge">
<title>28&#45;&gt;30</title>
<path fill="none" stroke="black" d="M902.62,-695.78C907.05,-684.85 914.28,-671.25 925,-663 933.65,-656.34 943.44,-650.94 953.7,-646.56"/>
<polygon fill="black" stroke="black" points="955.21,-649.73 963.24,-642.82 952.65,-643.21 955.21,-649.73"/>
<text text-anchor="middle" x="945.5" y="-666.8" font-family="Times,serif" font-size="14.00">CFG: </text>
</g>
<!-- 34 -->
<g id="node10" class="node">
<title>34</title>
<ellipse fill="none" stroke="black" cx="1579" cy="-453" rx="215.26" ry="18"/>
<text text-anchor="start" x="1421.5" y="-450.3" font-family="Times,serif" font-size="14.00">(&lt;operator&gt;.fieldAccess,temp_list.append)</text>
<text text-anchor="start" x="1728.5" y="-450.3" font-family="Times,serif" baseline-shift="sub" font-size="14.00">5</text>
</g>
<!-- 36&#45;&gt;34 -->
<g id="edge17" class="edge">
<title>36&#45;&gt;34</title>
<path fill="none" stroke="black" d="M1685.02,-383.95C1670.11,-393.66 1651.03,-406.05 1634,-417 1627.65,-421.08 1620.88,-425.41 1614.33,-429.58"/>
<polygon fill="black" stroke="black" points="1612.16,-426.81 1605.61,-435.14 1615.92,-432.72 1612.16,-426.81"/>
<text text-anchor="middle" x="1675" y="-405.8" font-family="Times,serif" font-size="14.00">AST: </text>
</g>
<!-- 35 -->
<g id="node13" class="node">
<title>35</title>
<ellipse fill="none" stroke="black" cx="1836" cy="-279" rx="241.56" ry="18"/>
<text text-anchor="start" x="1658" y="-276.3" font-family="Times,serif" font-size="14.00">(IDENTIFIER,temp_list,temp_list.append(name))</text>
<text text-anchor="start" x="2006" y="-276.3" font-family="Times,serif" baseline-shift="sub" font-size="14.00">5</text>
</g>
<!-- 36&#45;&gt;35 -->
<g id="edge18" class="edge">
<title>36&#45;&gt;35</title>
<path fill="none" stroke="black" d="M1736,-348C1755.16,-334.97 1781.78,-316.87 1802.74,-302.62"/>
<polygon fill="black" stroke="black" points="1804.75,-305.48 1811.05,-296.97 1800.81,-299.7 1804.75,-305.48"/>
<text text-anchor="middle" x="1800" y="-318.8" font-family="Times,serif" font-size="14.00">AST: </text>
</g>
<!-- 31 -->
<g id="node14" class="node">
<title>31</title>
<ellipse fill="none" stroke="black" cx="1314" cy="-279" rx="224.46" ry="18"/>
<text text-anchor="start" x="1149.5" y="-276.3" font-family="Times,serif" font-size="14.00">(IDENTIFIER,name,temp_list.append(name))</text>
<text text-anchor="start" x="1470.5" y="-276.3" font-family="Times,serif" baseline-shift="sub" font-size="14.00">5</text>
</g>
<!-- 36&#45;&gt;31 -->
<g id="edge19" class="edge">
<title>36&#45;&gt;31</title>
<path fill="none" stroke="black" d="M1622,-350.53C1588.09,-344.67 1549.16,-337.51 1514,-330 1470.95,-320.81 1423.09,-308.9 1384.99,-299.02"/>
<polygon fill="black" stroke="black" points="1385.58,-295.55 1375.02,-296.42 1383.81,-302.33 1385.58,-295.55"/>
<text text-anchor="middle" x="1533" y="-318.8" font-family="Times,serif" font-size="14.00">AST: </text>
</g>
<!-- 36&#45;&gt;44 -->
<g id="edge66" class="edge">
<title>36&#45;&gt;44</title>
<path fill="none" stroke="black" d="M1802.72,-350.75C1870.65,-340.37 1965.52,-326.21 2049,-315 2101.54,-307.94 2159.52,-300.82 2209.75,-294.85"/>
<polygon fill="black" stroke="black" points="2210.17,-298.32 2219.68,-293.67 2209.34,-291.37 2210.17,-298.32"/>
<text text-anchor="middle" x="2103.5" y="-318.8" font-family="Times,serif" font-size="14.00">DDG: temp_list</text>
</g>
<!-- 41 -->
<g id="node18" class="node">
<title>41</title>
<ellipse fill="none" stroke="black" cx="2375" cy="-105" rx="189.27" ry="18"/>
<text text-anchor="start" x="2237.5" y="-102.3" font-family="Times,serif" font-size="14.00">(FIELD_IDENTIFIER,append,append)</text>
<text text-anchor="start" x="2504.5" y="-102.3" font-family="Times,serif" baseline-shift="sub" font-size="14.00">6</text>
</g>
<!-- 36&#45;&gt;41 -->
<g id="edge35" class="edge">
<title>36&#45;&gt;41</title>
<path fill="none" stroke="black" d="M1881.12,-363.18C2091.2,-358.87 2435.18,-344.53 2553,-297 2609.84,-274.07 2633.67,-265.35 2660,-210 2666.87,-195.55 2669.91,-186.56 2660,-174 2639.8,-148.41 2568.39,-131.4 2502.11,-120.79"/>
<polygon fill="black" stroke="black" points="2502.37,-117.29 2491.95,-119.21 2501.29,-124.21 2502.37,-117.29"/>
<text text-anchor="middle" x="2671.5" y="-231.8" font-family="Times,serif" font-size="14.00">CFG: </text>
</g>
<!-- 36&#45;&gt;24 -->
<g id="edge50" class="edge">
<title>36&#45;&gt;24</title>
<path fill="none" stroke="black" d="M1590.9,-353.04C1409.28,-334.82 1085.23,-301.71 1081,-297 1076.88,-292.41 1074.09,-166.26 1086,-141 1087.83,-137.11 1090.32,-133.47 1093.15,-130.11"/>
<polygon fill="black" stroke="black" points="1095.79,-132.41 1100.25,-122.81 1090.77,-127.53 1095.79,-132.41"/>
<text text-anchor="middle" x="1132.5" y="-231.8" font-family="Times,serif" font-size="14.00">DDG: temp_list</text>
</g>
<!-- 36&#45;&gt;24 -->
<g id="edge51" class="edge">
<title>36&#45;&gt;24</title>
<path fill="none" stroke="black" d="M1674.2,-348.34C1648.23,-335.83 1613.19,-317.41 1585,-297 1566.16,-283.36 1568.26,-270.46 1547,-261 1500.56,-240.34 1369.43,-249.36 1319,-243 1297.74,-240.32 1143.82,-225.47 1129,-210 1109.82,-189.97 1112.2,-156.57 1117.18,-133.04"/>
<polygon fill="black" stroke="black" points="1120.66,-133.54 1119.59,-123 1113.85,-131.91 1120.66,-133.54"/>
<text text-anchor="middle" x="1360" y="-231.8" font-family="Times,serif" font-size="14.00">DDG: name</text>
</g>
<!-- 36&#45;&gt;24 -->
<g id="edge52" class="edge">
<title>36&#45;&gt;24</title>
<path fill="none" stroke="black" d="M1590.32,-353.07C1570.19,-351.25 1549.51,-349.49 1530,-348 1379.29,-336.52 951.02,-362.13 858,-243 805.59,-175.87 928.97,-138.61 1025.02,-120.45"/>
<polygon fill="black" stroke="black" points="1025.9,-123.84 1035.11,-118.59 1024.64,-116.96 1025.9,-123.84"/>
<text text-anchor="middle" x="966" y="-231.8" font-family="Times,serif" font-size="14.00">DDG: temp_list.append(name)</text>
</g>
<!-- 34&#45;&gt;36 -->
<g id="edge40" class="edge">
<title>34&#45;&gt;36</title>
<path fill="none" stroke="black" d="M1578.17,-434.7C1578.6,-424.01 1580.96,-410.72 1589,-402 1595.02,-395.46 1602.17,-390.12 1609.95,-385.75"/>
<polygon fill="black" stroke="black" points="1611.6,-388.84 1618.96,-381.23 1608.46,-382.58 1611.6,-388.84"/>
<text text-anchor="middle" x="1609.5" y="-405.8" font-family="Times,serif" font-size="14.00">CFG: </text>
</g>
<!-- 32 -->
<g id="node11" class="node">
<title>32</title>
<ellipse fill="none" stroke="black" cx="1279" cy="-366" rx="241.56" ry="18"/>
<text text-anchor="start" x="1101" y="-363.3" font-family="Times,serif" font-size="14.00">(IDENTIFIER,temp_list,temp_list.append(name))</text>
<text text-anchor="start" x="1449" y="-363.3" font-family="Times,serif" baseline-shift="sub" font-size="14.00">5</text>
</g>
<!-- 34&#45;&gt;32 -->
<g id="edge20" class="edge">
<title>34&#45;&gt;32</title>
<path fill="none" stroke="black" d="M1521.16,-435.61C1471.41,-421.52 1399.58,-401.17 1347.08,-386.29"/>
<polygon fill="black" stroke="black" points="1347.75,-382.84 1337.18,-383.48 1345.84,-389.58 1347.75,-382.84"/>
<text text-anchor="middle" x="1466" y="-405.8" font-family="Times,serif" font-size="14.00">AST: </text>
</g>
<!-- 34&#45;&gt;33 -->
<g id="edge21" class="edge">
<title>34&#45;&gt;33</title>
<path fill="none" stroke="black" d="M1537.08,-470.85C1529.89,-475.64 1523.34,-481.62 1519,-489 1515.07,-495.69 1513.76,-503.8 1513.72,-511.53"/>
<polygon fill="black" stroke="black" points="1510.24,-511.89 1514.33,-521.66 1517.22,-511.47 1510.24,-511.89"/>
<text text-anchor="middle" x="1538" y="-492.8" font-family="Times,serif" font-size="14.00">AST: </text>
</g>
<!-- 33&#45;&gt;34 -->
<g id="edge44" class="edge">
<title>33&#45;&gt;34</title>
<path fill="none" stroke="black" d="M1540.27,-521.94C1546.23,-516.65 1552.3,-510.48 1557,-504 1562.14,-496.9 1566.44,-488.41 1569.83,-480.46"/>
<polygon fill="black" stroke="black" points="1573.09,-481.74 1573.51,-471.16 1566.58,-479.17 1573.09,-481.74"/>
<text text-anchor="middle" x="1586.5" y="-492.8" font-family="Times,serif" font-size="14.00">CFG: </text>
</g>
<!-- 42 -->
<g id="node16" class="node">
<title>42</title>
<ellipse fill="none" stroke="black" cx="2988" cy="-192" rx="219.06" ry="18"/>
<text text-anchor="start" x="2827.5" y="-189.3" font-family="Times,serif" font-size="14.00">(&lt;operator&gt;.fieldAccess,result_list.append)</text>
<text text-anchor="start" x="3140.5" y="-189.3" font-family="Times,serif" baseline-shift="sub" font-size="14.00">6</text>
</g>
<!-- 44&#45;&gt;42 -->
<g id="edge22" class="edge">
<title>44&#45;&gt;42</title>
<path fill="none" stroke="black" d="M2462,-264.54C2487.97,-259.48 2514.82,-252.54 2539,-243 2550.35,-238.52 2550.45,-231.95 2562,-228 2585.49,-219.96 2700.8,-210.76 2805.54,-203.81"/>
<polygon fill="black" stroke="black" points="2805.89,-207.3 2815.64,-203.15 2805.43,-200.31 2805.89,-207.3"/>
<text text-anchor="middle" x="2581" y="-231.8" font-family="Times,serif" font-size="14.00">AST: </text>
</g>
<!-- 43 -->
<g id="node19" class="node">
<title>43</title>
<ellipse fill="none" stroke="black" cx="2319" cy="-192" rx="278.65" ry="18"/>
<text text-anchor="start" x="2112.5" y="-189.3" font-family="Times,serif" font-size="14.00">(IDENTIFIER,result_list,result_list.append(temp_list[0]))</text>
<text text-anchor="start" x="2517.5" y="-189.3" font-family="Times,serif" baseline-shift="sub" font-size="14.00">6</text>
</g>
<!-- 44&#45;&gt;43 -->
<g id="edge23" class="edge">
<title>44&#45;&gt;43</title>
<path fill="none" stroke="black" d="M2334.95,-260.8C2332.21,-249.16 2328.54,-233.55 2325.41,-220.24"/>
<polygon fill="black" stroke="black" points="2328.74,-219.11 2323.04,-210.18 2321.92,-220.71 2328.74,-219.11"/>
<text text-anchor="middle" x="2350" y="-231.8" font-family="Times,serif" font-size="14.00">AST: </text>
</g>
<!-- 39 -->
<g id="node20" class="node">
<title>39</title>
<ellipse fill="none" stroke="black" cx="3354" cy="-105" rx="196.07" ry="18"/>
<text text-anchor="start" x="3211" y="-102.3" font-family="Times,serif" font-size="14.00">(&lt;operator&gt;.indexAccess,temp_list[0])</text>
<text text-anchor="start" x="3489" y="-102.3" font-family="Times,serif" baseline-shift="sub" font-size="14.00">6</text>
</g>
<!-- 44&#45;&gt;39 -->
<g id="edge24" class="edge">
<title>44&#45;&gt;39</title>
<path fill="none" stroke="black" d="M2491.49,-266.87C2527.62,-261.69 2565.63,-254.11 2600,-243 2613.43,-238.66 2614.36,-231.65 2628,-228 2691.15,-211.12 3155.19,-233.98 3216,-210 3238.56,-201.1 3238.01,-189.09 3257,-174 3276.7,-158.35 3282.4,-155.45 3303,-141 3308.67,-137.02 3314.72,-132.83 3320.6,-128.78"/>
<polygon fill="black" stroke="black" points="3322.77,-131.53 3329.03,-122.99 3318.8,-125.76 3322.77,-131.53"/>
<text text-anchor="middle" x="3276" y="-188.3" font-family="Times,serif" font-size="14.00">AST: </text>
</g>
<!-- 44&#45;&gt;49 -->
<g id="edge69" class="edge">
<title>44&#45;&gt;49</title>
<path fill="none" stroke="black" d="M2197.11,-265.95C2171.46,-264.07 2144.94,-262.31 2120,-261 2084.15,-259.11 1506.51,-258.24 1474,-243 1462.66,-237.68 1453.05,-227.92 1445.72,-218.42"/>
<polygon fill="black" stroke="black" points="1448.55,-216.36 1439.89,-210.26 1442.86,-220.43 1448.55,-216.36"/>
<text text-anchor="middle" x="1531.5" y="-231.8" font-family="Times,serif" font-size="14.00">DDG: result_list</text>
</g>
<!-- 47 -->
<g id="node25" class="node">
<title>47</title>
<ellipse fill="none" stroke="black" cx="1643" cy="-105" rx="199.56" ry="18"/>
<text text-anchor="start" x="1497.5" y="-102.3" font-family="Times,serif" font-size="14.00">(&lt;operator&gt;.indexAccess,result_list[0])</text>
<text text-anchor="start" x="1780.5" y="-102.3" font-family="Times,serif" baseline-shift="sub" font-size="14.00">8</text>
</g>
<!-- 44&#45;&gt;47 -->
<g id="edge36" class="edge">
<title>44&#45;&gt;47</title>
<path fill="none" stroke="black" d="M2404.4,-261.92C2483.22,-242.47 2605.4,-212.05 2607,-210 2616.82,-197.37 2617.91,-185.7 2607,-174 2581.07,-146.18 2108.26,-123.66 1834.62,-112.88"/>
<polygon fill="black" stroke="black" points="1834.7,-109.38 1824.57,-112.49 1834.42,-116.38 1834.7,-109.38"/>
<text text-anchor="middle" x="2635.5" y="-188.3" font-family="Times,serif" font-size="14.00">CFG: </text>
</g>
<!-- 44&#45;&gt;24 -->
<g id="edge53" class="edge">
<title>44&#45;&gt;24</title>
<path fill="none" stroke="black" d="M2208.75,-265.05C2104.16,-253.18 1966.68,-233.86 1916,-210 1894.06,-199.67 1896.72,-184.78 1875,-174 1809.18,-141.33 1785.86,-150.54 1713,-141 1690.82,-138.1 1424.31,-122.81 1257.8,-113.43"/>
<polygon fill="black" stroke="black" points="1257.65,-109.91 1247.47,-112.85 1257.26,-116.9 1257.65,-109.91"/>
<text text-anchor="middle" x="1973.5" y="-188.3" font-family="Times,serif" font-size="14.00">DDG: result_list</text>
</g>
<!-- 44&#45;&gt;24 -->
<g id="edge54" class="edge">
<title>44&#45;&gt;24</title>
<path fill="none" stroke="black" d="M2187.48,-266.82C2154.38,-264.64 2119.52,-262.56 2087,-261 1805.88,-247.53 1733.94,-272.11 1454,-243 1416.71,-239.12 1408.17,-232.9 1371,-228 1347.12,-224.85 1173.63,-225.27 1155,-210 1132.57,-191.61 1126.28,-157.59 1124.82,-133.47"/>
<polygon fill="black" stroke="black" points="1128.31,-133.04 1124.45,-123.18 1121.31,-133.3 1128.31,-133.04"/>
<text text-anchor="middle" x="1219.5" y="-188.3" font-family="Times,serif" font-size="14.00">DDG: temp_list[0]</text>
</g>
<!-- 44&#45;&gt;24 -->
<g id="edge55" class="edge">
<title>44&#45;&gt;24</title>
<path fill="none" stroke="black" d="M2196.1,-266C1983.45,-247.97 1607.95,-215.43 1603,-210 1592.22,-198.18 1593.09,-186.56 1603,-174 1624.22,-147.08 1656.78,-182.92 1678,-156 1682.13,-150.76 1682.56,-145.86 1678,-141 1674.42,-137.19 1420.29,-122.39 1257.81,-113.3"/>
<polygon fill="black" stroke="black" points="1257.91,-109.8 1247.73,-112.74 1257.52,-116.79 1257.91,-109.8"/>
<text text-anchor="middle" x="1737" y="-188.3" font-family="Times,serif" font-size="14.00">DDG: result_list.append(temp_list[0])</text>
</g>
<!-- 40 -->
<g id="node17" class="node">
<title>40</title>
<ellipse fill="none" stroke="black" cx="2861" cy="-105" rx="278.65" ry="18"/>
<text text-anchor="start" x="2654.5" y="-102.3" font-family="Times,serif" font-size="14.00">(IDENTIFIER,result_list,result_list.append(temp_list[0]))</text>
<text text-anchor="start" x="3059.5" y="-102.3" font-family="Times,serif" baseline-shift="sub" font-size="14.00">6</text>
</g>
<!-- 42&#45;&gt;40 -->
<g id="edge25" class="edge">
<title>42&#45;&gt;40</title>
<path fill="none" stroke="black" d="M2962.6,-174C2943.14,-160.97 2916.09,-142.87 2894.79,-128.62"/>
<polygon fill="black" stroke="black" points="2896.61,-125.62 2886.35,-122.97 2892.71,-131.44 2896.61,-125.62"/>
<text text-anchor="middle" x="2952" y="-144.8" font-family="Times,serif" font-size="14.00">AST: </text>
</g>
<!-- 42&#45;&gt;41 -->
<g id="edge26" class="edge">
<title>42&#45;&gt;41</title>
<path fill="none" stroke="black" d="M2935.76,-174.51C2894.06,-161.59 2838.95,-145.14 2816,-141 2709.42,-121.78 2680.95,-131.63 2573,-123 2555.52,-121.6 2537.17,-120.09 2518.99,-118.56"/>
<polygon fill="black" stroke="black" points="2519.17,-115.06 2508.91,-117.71 2518.59,-122.04 2519.17,-115.06"/>
<text text-anchor="middle" x="2890" y="-144.8" font-family="Times,serif" font-size="14.00">AST: </text>
</g>
<!-- 42&#45;&gt;39 -->
<g id="edge41" class="edge">
<title>42&#45;&gt;39</title>
<path fill="none" stroke="black" d="M3050.91,-174.64C3090.23,-164.57 3141.96,-151.6 3188,-141 3213.59,-135.11 3241.49,-129.07 3266.99,-123.71"/>
<polygon fill="black" stroke="black" points="3267.94,-127.09 3277.01,-121.61 3266.5,-120.24 3267.94,-127.09"/>
<text text-anchor="middle" x="3208.5" y="-144.8" font-family="Times,serif" font-size="14.00">CFG: </text>
</g>
<!-- 41&#45;&gt;42 -->
<g id="edge45" class="edge">
<title>41&#45;&gt;42</title>
<path fill="none" stroke="black" d="M2509.81,-117.63C2615.68,-126.89 2746.23,-138.69 2752,-141 2761.99,-144.99 2761.15,-151.67 2771,-156 2790.84,-164.72 2812.56,-171.3 2834.35,-176.25"/>
<polygon fill="black" stroke="black" points="2833.85,-179.72 2844.36,-178.41 2835.33,-172.88 2833.85,-179.72"/>
<text text-anchor="middle" x="2791.5" y="-144.8" font-family="Times,serif" font-size="14.00">CFG: </text>
</g>
<!-- 39&#45;&gt;44 -->
<g id="edge42" class="edge">
<title>39&#45;&gt;44</title>
<path fill="none" stroke="black" d="M3349.73,-123.18C3342.75,-147.23 3326.43,-190.17 3295,-210 3233.35,-248.9 2808.11,-266.41 2545.96,-273.58"/>
<polygon fill="black" stroke="black" points="2545.83,-270.08 2535.93,-273.85 2546.02,-277.08 2545.83,-270.08"/>
<text text-anchor="middle" x="3348.5" y="-188.3" font-family="Times,serif" font-size="14.00">CFG: </text>
</g>
<!-- 37 -->
<g id="node21" class="node">
<title>37</title>
<ellipse fill="none" stroke="black" cx="3096" cy="-18" rx="275.65" ry="18"/>
<text text-anchor="start" x="2892" y="-15.3" font-family="Times,serif" font-size="14.00">(IDENTIFIER,temp_list,result_list.append(temp_list[0]))</text>
<text text-anchor="start" x="3292" y="-15.3" font-family="Times,serif" baseline-shift="sub" font-size="14.00">6</text>
</g>
<!-- 39&#45;&gt;37 -->
<g id="edge27" class="edge">
<title>39&#45;&gt;37</title>
<path fill="none" stroke="black" d="M3303.95,-87.51C3261.76,-73.61 3201.28,-53.68 3156.4,-38.9"/>
<polygon fill="black" stroke="black" points="3157.39,-35.54 3146.79,-35.73 3155.2,-42.19 3157.39,-35.54"/>
<text text-anchor="middle" x="3260" y="-57.8" font-family="Times,serif" font-size="14.00">AST: </text>
</g>
<!-- 38 -->
<g id="node22" class="node">
<title>38</title>
<ellipse fill="none" stroke="black" cx="3611" cy="-18" rx="220.96" ry="18"/>
<text text-anchor="start" x="3449" y="-15.3" font-family="Times,serif" font-size="14.00">(LITERAL,0,result_list.append(temp_list[0]))</text>
<text text-anchor="start" x="3765" y="-15.3" font-family="Times,serif" baseline-shift="sub" font-size="14.00">6</text>
</g>
<!-- 39&#45;&gt;38 -->
<g id="edge28" class="edge">
<title>39&#45;&gt;38</title>
<path fill="none" stroke="black" d="M3403.86,-87.51C3446.01,-73.57 3506.52,-53.56 3551.26,-38.76"/>
<polygon fill="black" stroke="black" points="3552.45,-42.05 3560.84,-35.59 3550.25,-35.41 3552.45,-42.05"/>
<text text-anchor="middle" x="3516" y="-57.8" font-family="Times,serif" font-size="14.00">AST: </text>
</g>
<!-- 49&#45;&gt;48 -->
<g id="edge29" class="edge">
<title>49&#45;&gt;48</title>
<path fill="none" stroke="black" d="M1524.52,-178.9C1543.21,-176.92 1562.7,-175.15 1581,-174 2199.4,-135.29 2357.07,-201.57 2975,-156 3024.65,-152.34 3036.4,-145.28 3086,-141 3295.59,-122.89 3349,-135.57 3559,-123 3578.74,-121.82 3599.51,-120.37 3619.98,-118.82"/>
<polygon fill="black" stroke="black" points="3620.3,-122.3 3630,-118.05 3619.76,-115.32 3620.3,-122.3"/>
<text text-anchor="middle" x="3105" y="-144.8" font-family="Times,serif" font-size="14.00">AST: </text>
</g>
<!-- 49&#45;&gt;47 -->
<g id="edge30" class="edge">
<title>49&#45;&gt;47</title>
<path fill="none" stroke="black" d="M1499.88,-176.5C1519.75,-171.23 1541.12,-164.44 1560,-156 1571.14,-151.02 1572.61,-147.41 1583,-141 1589.85,-136.77 1597.22,-132.36 1604.36,-128.16"/>
<polygon fill="black" stroke="black" points="1606.36,-131.05 1613.22,-122.98 1602.82,-125 1606.36,-131.05"/>
<text text-anchor="middle" x="1602" y="-144.8" font-family="Times,serif" font-size="14.00">AST: </text>
</g>
<!-- 49&#45;&gt;24 -->
<g id="edge37" class="edge">
<title>49&#45;&gt;24</title>
<path fill="none" stroke="black" d="M1332.18,-179.3C1256.1,-170.06 1162.81,-158.34 1159,-156 1149.74,-150.31 1142.41,-141.05 1136.97,-132.03"/>
<polygon fill="black" stroke="black" points="1140.02,-130.33 1132.15,-123.24 1133.88,-133.69 1140.02,-130.33"/>
<text text-anchor="middle" x="1179.5" y="-144.8" font-family="Times,serif" font-size="14.00">CFG: </text>
</g>
<!-- 49&#45;&gt;24 -->
<g id="edge56" class="edge">
<title>49&#45;&gt;24</title>
<path fill="none" stroke="black" d="M1320.84,-181.09C1288.59,-175.9 1253.72,-168.01 1223,-156 1211.63,-151.56 1210.67,-146.93 1200,-141 1191.15,-136.08 1181.48,-131.21 1172.12,-126.75"/>
<polygon fill="black" stroke="black" points="1173.45,-123.5 1162.91,-122.43 1170.47,-129.84 1173.45,-123.5"/>
<text text-anchor="middle" x="1290" y="-144.8" font-family="Times,serif" font-size="14.00">DDG: result_list[0]</text>
</g>
<!-- 49&#45;&gt;24 -->
<g id="edge57" class="edge">
<title>49&#45;&gt;24</title>
<path fill="none" stroke="black" d="M1403.03,-174.22C1394.29,-168.59 1384.63,-162.18 1376,-156 1367.25,-149.73 1366.87,-145.28 1357,-141 1326.43,-127.75 1291.72,-119.39 1258.62,-114.16"/>
<polygon fill="black" stroke="black" points="1258.82,-110.65 1248.41,-112.63 1257.78,-117.57 1258.82,-110.65"/>
<text text-anchor="middle" x="1466" y="-144.8" font-family="Times,serif" font-size="14.00">DDG: print(result_list[0])</text>
</g>
<!-- 47&#45;&gt;49 -->
<g id="edge43" class="edge">
<title>47&#45;&gt;49</title>
<path fill="none" stroke="black" d="M1639.7,-123.39C1636.7,-134.39 1631.12,-148 1621,-156 1608.3,-166.04 1578.23,-173.47 1545.62,-178.84"/>
<polygon fill="black" stroke="black" points="1544.78,-175.43 1535.44,-180.44 1545.86,-182.35 1544.78,-175.43"/>
<text text-anchor="middle" x="1653.5" y="-144.8" font-family="Times,serif" font-size="14.00">CFG: </text>
</g>
<!-- 45 -->
<g id="node26" class="node">
<title>45</title>
<ellipse fill="none" stroke="black" cx="1441" cy="-18" rx="221.76" ry="18"/>
<text text-anchor="start" x="1278.5" y="-15.3" font-family="Times,serif" font-size="14.00">(IDENTIFIER,result_list,print(result_list[0]))</text>
<text text-anchor="start" x="1595.5" y="-15.3" font-family="Times,serif" baseline-shift="sub" font-size="14.00">8</text>
</g>
<!-- 47&#45;&gt;45 -->
<g id="edge31" class="edge">
<title>47&#45;&gt;45</title>
<path fill="none" stroke="black" d="M1603.09,-87.21C1570.72,-73.59 1524.94,-54.32 1490.29,-39.74"/>
<polygon fill="black" stroke="black" points="1491.4,-36.41 1480.83,-35.76 1488.69,-42.86 1491.4,-36.41"/>
<text text-anchor="middle" x="1574" y="-57.8" font-family="Times,serif" font-size="14.00">AST: </text>
</g>
<!-- 46 -->
<g id="node27" class="node">
<title>46</title>
<ellipse fill="none" stroke="black" cx="1845" cy="-18" rx="164.37" ry="18"/>
<text text-anchor="start" x="1726.5" y="-15.3" font-family="Times,serif" font-size="14.00">(LITERAL,0,print(result_list[0]))</text>
<text text-anchor="start" x="1955.5" y="-15.3" font-family="Times,serif" baseline-shift="sub" font-size="14.00">8</text>
</g>
<!-- 47&#45;&gt;46 -->
<g id="edge32" class="edge">
<title>47&#45;&gt;46</title>
<path fill="none" stroke="black" d="M1682.91,-87.21C1715.38,-73.54 1761.36,-54.2 1796.05,-39.6"/>
<polygon fill="black" stroke="black" points="1797.66,-42.72 1805.52,-35.61 1794.94,-36.27 1797.66,-42.72"/>
<text text-anchor="middle" x="1776" y="-57.8" font-family="Times,serif" font-size="14.00">AST: </text>
</g>
<!-- 23&#45;&gt;36 -->
<g id="edge63" class="edge">
<title>23&#45;&gt;36</title>
<path fill="none" stroke="black" d="M2446.76,-870.16C2430.9,-854.33 2411,-829.07 2411,-802 2411,-802 2411,-802 2411,-452 2411,-399.27 2093.89,-379.01 1886.54,-371.41"/>
<polygon fill="black" stroke="black" points="1886.57,-367.9 1876.45,-371.04 1886.31,-374.9 1886.57,-367.9"/>
<text text-anchor="middle" x="2452" y="-623.3" font-family="Times,serif" font-size="14.00">DDG: name</text>
</g>
<!-- 17 -->
<g id="node34" class="node">
<title>17</title>
<ellipse fill="none" stroke="black" cx="3767" cy="-192" rx="27" ry="18"/>
<text text-anchor="middle" x="3767" y="-188.3" font-family="Times,serif" font-size="14.00">17</text>
</g>
<!-- 17&#45;&gt;48 -->
<g id="edge67" class="edge">
<title>17&#45;&gt;48</title>
<path fill="none" stroke="black" d="M3767,-173.8C3767,-162.16 3767,-146.55 3767,-133.24"/>
<polygon fill="black" stroke="black" points="3770.5,-133.18 3767,-123.18 3763.5,-133.18 3770.5,-133.18"/>
<text text-anchor="middle" x="3806.5" y="-144.8" font-family="Times,serif" font-size="14.00">DDG: print</text>
</g>
</g>
</svg>
