<?xml version="1.0" encoding="UTF-8" standalone="no"?>
<!DOCTYPE svg PUBLIC "-//W3C//DTD SVG 1.1//EN"
 "http://www.w3.org/Graphics/SVG/1.1/DTD/svg11.dtd">
<!-- Generated by graphviz version 2.43.0 (0)
 -->
<!-- Title: process_name Pages: 1 -->
<svg width="1323pt" height="479pt"
 viewBox="0.00 0.00 1323.48 479.00" xmlns="http://www.w3.org/2000/svg" xmlns:xlink="http://www.w3.org/1999/xlink">
<g id="graph0" class="graph" transform="scale(1 1) rotate(0) translate(4 475)">
<title>process_name</title>
<polygon fill="white" stroke="transparent" points="-4,4 -4,-475 1319.48,-475 1319.48,4 -4,4"/>
<!-- 20 -->
<g id="node1" class="node">
<title>20</title>
<ellipse fill="none" stroke="black" cx="638.48" cy="-453" rx="135.38" ry="18"/>
<text text-anchor="start" x="542.48" y="-450.3" font-family="Times,serif" font-size="14.00">(METHOD,process_name)</text>
<text text-anchor="start" x="726.48" y="-450.3" font-family="Times,serif" baseline-shift="sub" font-size="14.00">1</text>
</g>
<!-- 23 -->
<g id="node3" class="node">
<title>23</title>
<ellipse fill="none" stroke="black" cx="506.48" cy="-366" rx="85.29" ry="18"/>
<text text-anchor="start" x="448.98" y="-363.3" font-family="Times,serif" font-size="14.00">(PARAM,name)</text>
<text text-anchor="start" x="555.98" y="-363.3" font-family="Times,serif" baseline-shift="sub" font-size="14.00">1</text>
</g>
<!-- 20&#45;&gt;23 -->
<g id="edge12" class="edge">
<title>20&#45;&gt;23</title>
<path fill="none" stroke="black" d="M612.4,-435.21C591.84,-421.97 563,-403.39 540.6,-388.97"/>
<polygon fill="black" stroke="black" points="542.36,-385.94 532.06,-383.47 538.57,-391.83 542.36,-385.94"/>
</g>
<!-- 27 -->
<g id="node4" class="node">
<title>27</title>
<ellipse fill="none" stroke="black" cx="201.48" cy="-366" rx="201.46" ry="18"/>
<text text-anchor="start" x="54.48" y="-363.3" font-family="Times,serif" font-size="14.00">(&lt;operator&gt;.assignment,temp_list = [])</text>
<text text-anchor="start" x="340.48" y="-363.3" font-family="Times,serif" baseline-shift="sub" font-size="14.00">2</text>
</g>
<!-- 20&#45;&gt;27 -->
<g id="edge13" class="edge">
<title>20&#45;&gt;27</title>
<path fill="none" stroke="black" d="M565.34,-437.77C490.08,-423.13 372.71,-400.3 291.72,-384.55"/>
<polygon fill="black" stroke="black" points="292.02,-381.05 281.54,-382.57 290.69,-387.92 292.02,-381.05"/>
</g>
<!-- 30 -->
<g id="node5" class="node">
<title>30</title>
<ellipse fill="none" stroke="black" cx="1054.48" cy="-279" rx="204.96" ry="18"/>
<text text-anchor="start" x="904.98" y="-276.3" font-family="Times,serif" font-size="14.00">(&lt;operator&gt;.assignment,result_list = [])</text>
<text text-anchor="start" x="1195.98" y="-276.3" font-family="Times,serif" baseline-shift="sub" font-size="14.00">3</text>
</g>
<!-- 20&#45;&gt;30 -->
<g id="edge14" class="edge">
<title>20&#45;&gt;30</title>
<path fill="none" stroke="black" d="M655.98,-434.8C661.21,-429.32 666.79,-423.09 671.48,-417 693.54,-388.38 684.77,-368.57 714.48,-348 748.48,-324.47 843.9,-306.61 925.02,-295.11"/>
<polygon fill="black" stroke="black" points="925.93,-298.52 935.35,-293.67 924.96,-291.59 925.93,-298.52"/>
</g>
<!-- 36 -->
<g id="node6" class="node">
<title>36</title>
<ellipse fill="none" stroke="black" cx="400.48" cy="-279" rx="172.47" ry="18"/>
<text text-anchor="start" x="275.98" y="-276.3" font-family="Times,serif" font-size="14.00">(append,temp_list.append(name))</text>
<text text-anchor="start" x="516.98" y="-276.3" font-family="Times,serif" baseline-shift="sub" font-size="14.00">5</text>
</g>
<!-- 20&#45;&gt;36 -->
<g id="edge16" class="edge">
<title>20&#45;&gt;36</title>
<path fill="none" stroke="black" d="M636.74,-434.82C633.54,-411.96 624.63,-371.69 600.48,-348 574.75,-322.76 539.29,-306.87 505.37,-296.88"/>
<polygon fill="black" stroke="black" points="505.95,-293.41 495.38,-294.09 504.07,-300.15 505.95,-293.41"/>
</g>
<!-- 44 -->
<g id="node7" class="node">
<title>44</title>
<ellipse fill="none" stroke="black" cx="713.48" cy="-192" rx="205.26" ry="18"/>
<text text-anchor="start" x="563.48" y="-189.3" font-family="Times,serif" font-size="14.00">(append,result_list.append(temp_list[0]))</text>
<text text-anchor="start" x="855.48" y="-189.3" font-family="Times,serif" baseline-shift="sub" font-size="14.00">6</text>
</g>
<!-- 20&#45;&gt;44 -->
<g id="edge19" class="edge">
<title>20&#45;&gt;44</title>
<path fill="none" stroke="black" d="M643.4,-435.01C656.14,-391.01 690.28,-273.11 705.72,-219.81"/>
<polygon fill="black" stroke="black" points="709.12,-220.64 708.54,-210.06 702.4,-218.69 709.12,-220.64"/>
</g>
<!-- 48 -->
<g id="node9" class="node">
<title>48</title>
<ellipse fill="none" stroke="black" cx="921.48" cy="-366" rx="198.47" ry="18"/>
<text text-anchor="start" x="776.98" y="-363.3" font-family="Times,serif" font-size="14.00">(IDENTIFIER,print,print(result_list[0]))</text>
<text text-anchor="start" x="1057.98" y="-363.3" font-family="Times,serif" baseline-shift="sub" font-size="14.00">8</text>
</g>
<!-- 20&#45;&gt;48 -->
<g id="edge22" class="edge">
<title>20&#45;&gt;48</title>
<path fill="none" stroke="black" d="M690.72,-436.31C737.73,-422.19 806.97,-401.39 857.33,-386.27"/>
<polygon fill="black" stroke="black" points="858.57,-389.55 867.14,-383.32 856.56,-382.85 858.57,-389.55"/>
</g>
<!-- 24 -->
<g id="node2" class="node">
<title>24</title>
<ellipse fill="none" stroke="black" cx="607.48" cy="-18" rx="135.68" ry="18"/>
<text text-anchor="start" x="510.98" y="-15.3" font-family="Times,serif" font-size="14.00">(METHOD_RETURN,ANY)</text>
<text text-anchor="start" x="695.98" y="-15.3" font-family="Times,serif" baseline-shift="sub" font-size="14.00">1</text>
</g>
<!-- 23&#45;&gt;36 -->
<g id="edge17" class="edge">
<title>23&#45;&gt;36</title>
<path fill="none" stroke="black" d="M485.79,-348.41C469.8,-335.59 447.47,-317.68 429.67,-303.4"/>
<polygon fill="black" stroke="black" points="431.84,-300.66 421.85,-297.13 427.46,-306.12 431.84,-300.66"/>
<text text-anchor="middle" x="480.48" y="-318.8" font-family="Times,serif" font-size="14.00">name</text>
</g>
<!-- 27&#45;&gt;24 -->
<g id="edge1" class="edge">
<title>27&#45;&gt;24</title>
<path fill="none" stroke="black" d="M170.32,-348.09C147.86,-333.39 121.48,-309.79 121.48,-280 121.48,-280 121.48,-280 121.48,-104 121.48,-67.33 339,-41.68 482.99,-28.72"/>
<polygon fill="black" stroke="black" points="483.58,-32.18 493.23,-27.81 482.96,-25.21 483.58,-32.18"/>
<text text-anchor="middle" x="170.48" y="-188.3" font-family="Times,serif" font-size="14.00">temp_list = []</text>
</g>
<!-- 27&#45;&gt;36 -->
<g id="edge15" class="edge">
<title>27&#45;&gt;36</title>
<path fill="none" stroke="black" d="M240.8,-348.21C272.79,-334.54 318.08,-315.2 352.26,-300.6"/>
<polygon fill="black" stroke="black" points="353.77,-303.76 361.59,-296.61 351.02,-297.32 353.77,-303.76"/>
<text text-anchor="middle" x="346.98" y="-318.8" font-family="Times,serif" font-size="14.00">temp_list</text>
</g>
<!-- 30&#45;&gt;24 -->
<g id="edge2" class="edge">
<title>30&#45;&gt;24</title>
<path fill="none" stroke="black" d="M1154.13,-263.18C1234.58,-245.92 1329.93,-210.42 1300.48,-141 1278.76,-89.78 1261.43,-76.34 1210.48,-54 1169.53,-36.05 915.5,-26.48 750.48,-22.09"/>
<polygon fill="black" stroke="black" points="750.33,-18.59 740.24,-21.83 750.14,-25.59 750.33,-18.59"/>
<text text-anchor="middle" x="1309.98" y="-144.8" font-family="Times,serif" font-size="14.00">[]</text>
</g>
<!-- 30&#45;&gt;24 -->
<g id="edge3" class="edge">
<title>30&#45;&gt;24</title>
<path fill="none" stroke="black" d="M1070.98,-260.85C1103.84,-224.65 1170.47,-139.44 1124.48,-87 1099.27,-58.25 882.17,-37.83 737.43,-27.27"/>
<polygon fill="black" stroke="black" points="737.36,-23.76 727.14,-26.53 736.86,-30.74 737.36,-23.76"/>
<text text-anchor="middle" x="1189.98" y="-144.8" font-family="Times,serif" font-size="14.00">result_list = []</text>
</g>
<!-- 30&#45;&gt;44 -->
<g id="edge18" class="edge">
<title>30&#45;&gt;44</title>
<path fill="none" stroke="black" d="M989.94,-261.91C932.42,-247.57 848.24,-226.59 787.9,-211.55"/>
<polygon fill="black" stroke="black" points="788.6,-208.12 778.05,-209.09 786.9,-214.91 788.6,-208.12"/>
<text text-anchor="middle" x="940.48" y="-231.8" font-family="Times,serif" font-size="14.00">result_list</text>
</g>
<!-- 36&#45;&gt;24 -->
<g id="edge4" class="edge">
<title>36&#45;&gt;24</title>
<path fill="none" stroke="black" d="M354.34,-261.55C302.25,-239.94 227.32,-197.95 248.48,-141 266.26,-93.15 278.46,-78.07 323.48,-54 349.63,-40.02 413.13,-31.47 473.47,-26.32"/>
<polygon fill="black" stroke="black" points="473.83,-29.8 483.51,-25.49 473.25,-22.83 473.83,-29.8"/>
<text text-anchor="middle" x="281.98" y="-144.8" font-family="Times,serif" font-size="14.00">temp_list</text>
</g>
<!-- 36&#45;&gt;24 -->
<g id="edge5" class="edge">
<title>36&#45;&gt;24</title>
<path fill="none" stroke="black" d="M388.44,-260.84C373.29,-238.12 348.11,-196.2 338.48,-156 329.72,-119.41 341.28,-71.97 361.48,-54 378.52,-38.85 423.45,-30.24 470.32,-25.36"/>
<polygon fill="black" stroke="black" points="470.73,-28.83 480.34,-24.37 470.05,-21.87 470.73,-28.83"/>
<text text-anchor="middle" x="358.48" y="-144.8" font-family="Times,serif" font-size="14.00">name</text>
</g>
<!-- 36&#45;&gt;24 -->
<g id="edge6" class="edge">
<title>36&#45;&gt;24</title>
<path fill="none" stroke="black" d="M394.88,-260.81C384.58,-225.96 366.13,-145.33 394.48,-87 404.86,-65.65 414.94,-63.98 436.48,-54 456.51,-44.72 478.99,-37.89 500.89,-32.86"/>
<polygon fill="black" stroke="black" points="501.89,-36.23 510.91,-30.67 500.39,-29.39 501.89,-36.23"/>
<text text-anchor="middle" x="466.98" y="-144.8" font-family="Times,serif" font-size="14.00">temp_list.append(name)</text>
</g>
<!-- 36&#45;&gt;44 -->
<g id="edge20" class="edge">
<title>36&#45;&gt;44</title>
<path fill="none" stroke="black" d="M455.86,-261.86C490.47,-251.87 536,-238.92 576.48,-228 596.75,-222.53 618.76,-216.81 639.09,-211.62"/>
<polygon fill="black" stroke="black" points="640.1,-214.98 648.92,-209.12 638.37,-208.19 640.1,-214.98"/>
<text text-anchor="middle" x="609.98" y="-231.8" font-family="Times,serif" font-size="14.00">temp_list</text>
</g>
<!-- 44&#45;&gt;24 -->
<g id="edge7" class="edge">
<title>44&#45;&gt;24</title>
<path fill="none" stroke="black" d="M715.34,-173.77C717.41,-145.57 717.39,-89.19 689.48,-54 685.09,-48.46 679.65,-43.78 673.68,-39.83"/>
<polygon fill="black" stroke="black" points="675.02,-36.56 664.62,-34.56 671.5,-42.61 675.02,-36.56"/>
<text text-anchor="middle" x="750.48" y="-101.3" font-family="Times,serif" font-size="14.00">result_list</text>
</g>
<!-- 44&#45;&gt;24 -->
<g id="edge8" class="edge">
<title>44&#45;&gt;24</title>
<path fill="none" stroke="black" d="M741.48,-174.03C771.37,-153.71 811.73,-118.46 790.48,-87 772.34,-60.14 742.2,-43.85 711.57,-34"/>
<polygon fill="black" stroke="black" points="712.21,-30.53 701.63,-31.02 710.2,-37.24 712.21,-30.53"/>
<text text-anchor="middle" x="839.48" y="-101.3" font-family="Times,serif" font-size="14.00">temp_list[0]</text>
</g>
<!-- 44&#45;&gt;24 -->
<g id="edge9" class="edge">
<title>44&#45;&gt;24</title>
<path fill="none" stroke="black" d="M789.52,-175.25C849.59,-159.18 918.42,-130.39 886.48,-87 866.2,-59.45 787.47,-41.89 718.8,-31.53"/>
<polygon fill="black" stroke="black" points="719.15,-28.05 708.74,-30.06 718.13,-34.97 719.15,-28.05"/>
<text text-anchor="middle" x="1007.98" y="-101.3" font-family="Times,serif" font-size="14.00">result_list.append(temp_list[0])</text>
</g>
<!-- 49 -->
<g id="node8" class="node">
<title>49</title>
<ellipse fill="none" stroke="black" cx="540.48" cy="-105" rx="137.28" ry="18"/>
<text text-anchor="start" x="442.98" y="-102.3" font-family="Times,serif" font-size="14.00">(print,print(result_list[0]))</text>
<text text-anchor="start" x="629.98" y="-102.3" font-family="Times,serif" baseline-shift="sub" font-size="14.00">8</text>
</g>
<!-- 44&#45;&gt;49 -->
<g id="edge23" class="edge">
<title>44&#45;&gt;49</title>
<path fill="none" stroke="black" d="M669.23,-174.32C655.66,-168.85 640.81,-162.5 627.48,-156 610.21,-147.57 591.66,-137.12 576.15,-127.95"/>
<polygon fill="black" stroke="black" points="577.78,-124.85 567.4,-122.73 574.19,-130.86 577.78,-124.85"/>
<text text-anchor="middle" x="663.48" y="-144.8" font-family="Times,serif" font-size="14.00">result_list</text>
</g>
<!-- 49&#45;&gt;24 -->
<g id="edge10" class="edge">
<title>49&#45;&gt;24</title>
<path fill="none" stroke="black" d="M566.74,-87.08C573.45,-81.87 580.25,-75.71 585.48,-69 590.87,-62.09 595.24,-53.65 598.61,-45.69"/>
<polygon fill="black" stroke="black" points="601.88,-46.94 602.25,-36.35 595.36,-44.4 601.88,-46.94"/>
<text text-anchor="middle" x="639.98" y="-57.8" font-family="Times,serif" font-size="14.00">result_list[0]</text>
</g>
<!-- 49&#45;&gt;24 -->
<g id="edge11" class="edge">
<title>49&#45;&gt;24</title>
<path fill="none" stroke="black" d="M469.75,-89.45C447.39,-81.57 431.49,-70.08 444.48,-54 452.2,-44.45 472.69,-37.39 496.65,-32.21"/>
<polygon fill="black" stroke="black" points="497.62,-35.59 506.73,-30.18 496.23,-28.73 497.62,-35.59"/>
<text text-anchor="middle" x="512.98" y="-57.8" font-family="Times,serif" font-size="14.00">print(result_list[0])</text>
</g>
<!-- 17 -->
<g id="node10" class="node">
<title>17</title>
<ellipse fill="none" stroke="black" cx="921.48" cy="-453" rx="27" ry="18"/>
<text text-anchor="middle" x="921.48" y="-449.3" font-family="Times,serif" font-size="14.00">17</text>
</g>
<!-- 17&#45;&gt;48 -->
<g id="edge21" class="edge">
<title>17&#45;&gt;48</title>
<path fill="none" stroke="black" d="M921.48,-434.8C921.48,-423.16 921.48,-407.55 921.48,-394.24"/>
<polygon fill="black" stroke="black" points="924.98,-394.18 921.48,-384.18 917.98,-394.18 924.98,-394.18"/>
<text text-anchor="middle" x="939.48" y="-405.8" font-family="Times,serif" font-size="14.00">print</text>
</g>
</g>
</svg>
