<?xml version="1.0" encoding="UTF-8" standalone="no"?>
<!DOCTYPE svg PUBLIC "-//W3C//DTD SVG 1.1//EN"
 "http://www.w3.org/Graphics/SVG/1.1/DTD/svg11.dtd">
<!-- Generated by graphviz version 2.43.0 (0)
 -->
<!-- Title: process_name Pages: 1 -->
<svg width="1625pt" height="479pt"
 viewBox="0.00 0.00 1625.48 479.00" xmlns="http://www.w3.org/2000/svg" xmlns:xlink="http://www.w3.org/1999/xlink">
<g id="graph0" class="graph" transform="scale(1 1) rotate(0) translate(4 475)">
<title>process_name</title>
<polygon fill="white" stroke="transparent" points="-4,4 -4,-475 1621.48,-475 1621.48,4 -4,4"/>
<!-- 20 -->
<g id="node1" class="node">
<title>20</title>
<ellipse fill="none" stroke="black" cx="663.48" cy="-453" rx="135.38" ry="18"/>
<text text-anchor="start" x="567.48" y="-450.3" font-family="Times,serif" font-size="14.00">(METHOD,process_name)</text>
<text text-anchor="start" x="751.48" y="-450.3" font-family="Times,serif" baseline-shift="sub" font-size="14.00">1</text>
</g>
<!-- 23 -->
<g id="node3" class="node">
<title>23</title>
<ellipse fill="none" stroke="black" cx="506.48" cy="-366" rx="85.29" ry="18"/>
<text text-anchor="start" x="448.98" y="-363.3" font-family="Times,serif" font-size="14.00">(PARAM,name)</text>
<text text-anchor="start" x="555.98" y="-363.3" font-family="Times,serif" baseline-shift="sub" font-size="14.00">1</text>
</g>
<!-- 20&#45;&gt;23 -->
<g id="edge12" class="edge">
<title>20&#45;&gt;23</title>
<path fill="none" stroke="black" d="M613,-436.17C598.85,-430.89 583.72,-424.43 570.48,-417 557.13,-409.5 543.58,-399.36 532.41,-390.18"/>
<polygon fill="black" stroke="black" points="534.64,-387.47 524.74,-383.71 530.13,-392.83 534.64,-387.47"/>
<text text-anchor="middle" x="591.98" y="-405.8" font-family="Times,serif" font-size="14.00">DDG: </text>
</g>
<!-- 27 -->
<g id="node4" class="node">
<title>27</title>
<ellipse fill="none" stroke="black" cx="201.48" cy="-366" rx="201.46" ry="18"/>
<text text-anchor="start" x="54.48" y="-363.3" font-family="Times,serif" font-size="14.00">(&lt;operator&gt;.assignment,temp_list = [])</text>
<text text-anchor="start" x="340.48" y="-363.3" font-family="Times,serif" baseline-shift="sub" font-size="14.00">2</text>
</g>
<!-- 20&#45;&gt;27 -->
<g id="edge13" class="edge">
<title>20&#45;&gt;27</title>
<path fill="none" stroke="black" d="M587.71,-438.06C507.68,-423.34 381.39,-400.1 295.16,-384.24"/>
<polygon fill="black" stroke="black" points="295.58,-380.75 285.12,-382.39 294.32,-387.64 295.58,-380.75"/>
<text text-anchor="middle" x="481.98" y="-405.8" font-family="Times,serif" font-size="14.00">DDG: </text>
</g>
<!-- 30 -->
<g id="node5" class="node">
<title>30</title>
<ellipse fill="none" stroke="black" cx="1171.48" cy="-279" rx="204.96" ry="18"/>
<text text-anchor="start" x="1021.98" y="-276.3" font-family="Times,serif" font-size="14.00">(&lt;operator&gt;.assignment,result_list = [])</text>
<text text-anchor="start" x="1312.98" y="-276.3" font-family="Times,serif" baseline-shift="sub" font-size="14.00">3</text>
</g>
<!-- 20&#45;&gt;30 -->
<g id="edge14" class="edge">
<title>20&#45;&gt;30</title>
<path fill="none" stroke="black" d="M690.04,-435.18C697.65,-429.8 705.71,-423.54 712.48,-417 740.3,-390.14 732.33,-367.91 765.48,-348 808.35,-322.25 925.68,-304.33 1023.24,-293.38"/>
<polygon fill="black" stroke="black" points="1023.67,-296.85 1033.22,-292.28 1022.9,-289.9 1023.67,-296.85"/>
<text text-anchor="middle" x="786.98" y="-362.3" font-family="Times,serif" font-size="14.00">DDG: </text>
</g>
<!-- 36 -->
<g id="node6" class="node">
<title>36</title>
<ellipse fill="none" stroke="black" cx="430.48" cy="-279" rx="172.47" ry="18"/>
<text text-anchor="start" x="305.98" y="-276.3" font-family="Times,serif" font-size="14.00">(append,temp_list.append(name))</text>
<text text-anchor="start" x="546.98" y="-276.3" font-family="Times,serif" baseline-shift="sub" font-size="14.00">5</text>
</g>
<!-- 20&#45;&gt;36 -->
<g id="edge16" class="edge">
<title>20&#45;&gt;36</title>
<path fill="none" stroke="black" d="M656.6,-435C643.18,-404.41 610.3,-340.9 559.48,-315 546.17,-308.21 531.39,-302.63 516.73,-298.07"/>
<polygon fill="black" stroke="black" points="517.71,-294.71 507.12,-295.22 515.71,-301.42 517.71,-294.71"/>
<text text-anchor="middle" x="649.98" y="-362.3" font-family="Times,serif" font-size="14.00">DDG: </text>
</g>
<!-- 44 -->
<g id="node7" class="node">
<title>44</title>
<ellipse fill="none" stroke="black" cx="799.48" cy="-192" rx="205.26" ry="18"/>
<text text-anchor="start" x="649.48" y="-189.3" font-family="Times,serif" font-size="14.00">(append,result_list.append(temp_list[0]))</text>
<text text-anchor="start" x="941.48" y="-189.3" font-family="Times,serif" baseline-shift="sub" font-size="14.00">6</text>
</g>
<!-- 20&#45;&gt;44 -->
<g id="edge19" class="edge">
<title>20&#45;&gt;44</title>
<path fill="none" stroke="black" d="M672.41,-435.01C695.6,-390.83 757.93,-272.13 785.75,-219.15"/>
<polygon fill="black" stroke="black" points="788.98,-220.54 790.53,-210.06 782.78,-217.28 788.98,-220.54"/>
<text text-anchor="middle" x="756.98" y="-318.8" font-family="Times,serif" font-size="14.00">DDG: </text>
</g>
<!-- 48 -->
<g id="node9" class="node">
<title>48</title>
<ellipse fill="none" stroke="black" cx="1015.48" cy="-366" rx="198.47" ry="18"/>
<text text-anchor="start" x="870.98" y="-363.3" font-family="Times,serif" font-size="14.00">(IDENTIFIER,print,print(result_list[0]))</text>
<text text-anchor="start" x="1151.98" y="-363.3" font-family="Times,serif" baseline-shift="sub" font-size="14.00">8</text>
</g>
<!-- 20&#45;&gt;48 -->
<g id="edge22" class="edge">
<title>20&#45;&gt;48</title>
<path fill="none" stroke="black" d="M725.6,-437C785.18,-422.61 875.26,-400.86 939.18,-385.43"/>
<polygon fill="black" stroke="black" points="940.3,-388.76 949.2,-383.01 938.66,-381.95 940.3,-388.76"/>
<text text-anchor="middle" x="882.98" y="-405.8" font-family="Times,serif" font-size="14.00">DDG: </text>
</g>
<!-- 24 -->
<g id="node2" class="node">
<title>24</title>
<ellipse fill="none" stroke="black" cx="666.48" cy="-18" rx="135.68" ry="18"/>
<text text-anchor="start" x="569.98" y="-15.3" font-family="Times,serif" font-size="14.00">(METHOD_RETURN,ANY)</text>
<text text-anchor="start" x="754.98" y="-15.3" font-family="Times,serif" baseline-shift="sub" font-size="14.00">1</text>
</g>
<!-- 23&#45;&gt;36 -->
<g id="edge17" class="edge">
<title>23&#45;&gt;36</title>
<path fill="none" stroke="black" d="M491.47,-348.21C480.4,-335.83 465.17,-318.8 452.7,-304.85"/>
<polygon fill="black" stroke="black" points="455,-302.17 445.73,-297.05 449.78,-306.84 455,-302.17"/>
<text text-anchor="middle" x="514.48" y="-318.8" font-family="Times,serif" font-size="14.00">DDG: name</text>
</g>
<!-- 27&#45;&gt;24 -->
<g id="edge1" class="edge">
<title>27&#45;&gt;24</title>
<path fill="none" stroke="black" d="M95.96,-350.66C58.06,-339.03 24.48,-318.01 24.48,-280 24.48,-280 24.48,-280 24.48,-104 24.48,-53.74 337.66,-32.22 526.55,-23.82"/>
<polygon fill="black" stroke="black" points="526.73,-27.31 536.56,-23.38 526.42,-20.32 526.73,-27.31"/>
<text text-anchor="middle" x="94.98" y="-188.3" font-family="Times,serif" font-size="14.00">DDG: temp_list = []</text>
</g>
<!-- 27&#45;&gt;36 -->
<g id="edge15" class="edge">
<title>27&#45;&gt;36</title>
<path fill="none" stroke="black" d="M246.18,-348.41C283.58,-334.53 337.04,-314.68 376.76,-299.94"/>
<polygon fill="black" stroke="black" points="378.13,-303.17 386.29,-296.4 375.69,-296.6 378.13,-303.17"/>
<text text-anchor="middle" x="384.98" y="-318.8" font-family="Times,serif" font-size="14.00">DDG: temp_list</text>
</g>
<!-- 30&#45;&gt;24 -->
<g id="edge2" class="edge">
<title>30&#45;&gt;24</title>
<path fill="none" stroke="black" d="M1328.31,-267.43C1361.09,-262.18 1394.94,-254.43 1425.48,-243 1495.25,-216.89 1593.92,-206.52 1558.48,-141 1524.88,-78.87 1492.69,-75.73 1425.48,-54 1368.82,-35.68 1014.45,-25.79 810.55,-21.55"/>
<polygon fill="black" stroke="black" points="810.43,-18.05 800.36,-21.34 810.29,-25.05 810.43,-18.05"/>
<text text-anchor="middle" x="1590.48" y="-144.8" font-family="Times,serif" font-size="14.00">DDG: []</text>
</g>
<!-- 30&#45;&gt;24 -->
<g id="edge3" class="edge">
<title>30&#45;&gt;24</title>
<path fill="none" stroke="black" d="M1209.51,-261.22C1278.96,-228.37 1413.93,-153.05 1354.48,-87 1318.69,-47.23 998.98,-29.87 808.23,-23"/>
<polygon fill="black" stroke="black" points="808.23,-19.5 798.11,-22.64 807.98,-26.49 808.23,-19.5"/>
<text text-anchor="middle" x="1437.48" y="-144.8" font-family="Times,serif" font-size="14.00">DDG: result_list = []</text>
</g>
<!-- 30&#45;&gt;44 -->
<g id="edge18" class="edge">
<title>30&#45;&gt;44</title>
<path fill="none" stroke="black" d="M1101.51,-262.01C1038.35,-247.58 945.47,-226.36 879.41,-211.26"/>
<polygon fill="black" stroke="black" points="879.98,-207.8 869.45,-208.99 878.42,-214.63 879.98,-207.8"/>
<text text-anchor="middle" x="1065.98" y="-231.8" font-family="Times,serif" font-size="14.00">DDG: result_list</text>
</g>
<!-- 36&#45;&gt;24 -->
<g id="edge4" class="edge">
<title>36&#45;&gt;24</title>
<path fill="none" stroke="black" d="M342.58,-263.48C262.09,-245.65 160.28,-209.05 194.48,-141 223.58,-83.1 251.04,-77.36 311.48,-54 350.41,-38.95 446.74,-30.05 529.24,-24.99"/>
<polygon fill="black" stroke="black" points="529.46,-28.48 539.23,-24.39 529.04,-21.5 529.46,-28.48"/>
<text text-anchor="middle" x="248.98" y="-144.8" font-family="Times,serif" font-size="14.00">DDG: temp_list</text>
</g>
<!-- 36&#45;&gt;24 -->
<g id="edge5" class="edge">
<title>36&#45;&gt;24</title>
<path fill="none" stroke="black" d="M401.62,-261.22C364.11,-237.05 305.73,-189.93 326.48,-141 348.21,-89.78 366.48,-78.39 416.48,-54 439.15,-42.95 491.95,-34.76 543.22,-29.09"/>
<polygon fill="black" stroke="black" points="543.88,-32.54 553.45,-27.99 543.13,-25.58 543.88,-32.54"/>
<text text-anchor="middle" x="367.48" y="-144.8" font-family="Times,serif" font-size="14.00">DDG: name</text>
</g>
<!-- 36&#45;&gt;24 -->
<g id="edge6" class="edge">
<title>36&#45;&gt;24</title>
<path fill="none" stroke="black" d="M425.51,-260.96C414.42,-218.99 392.88,-109.99 449.48,-54 462.74,-40.88 497.52,-32.68 535.45,-27.55"/>
<polygon fill="black" stroke="black" points="536.2,-30.98 545.68,-26.25 535.32,-24.04 536.2,-30.98"/>
<text text-anchor="middle" x="521.48" y="-144.8" font-family="Times,serif" font-size="14.00">DDG: temp_list.append(name)</text>
</g>
<!-- 36&#45;&gt;44 -->
<g id="edge20" class="edge">
<title>36&#45;&gt;44</title>
<path fill="none" stroke="black" d="M472.08,-261.45C500.76,-250.6 539.95,-236.83 575.48,-228 607.33,-220.09 642.19,-213.62 674.73,-208.49"/>
<polygon fill="black" stroke="black" points="675.4,-211.92 684.75,-206.94 674.33,-205.01 675.4,-211.92"/>
<text text-anchor="middle" x="629.98" y="-231.8" font-family="Times,serif" font-size="14.00">DDG: temp_list</text>
</g>
<!-- 44&#45;&gt;24 -->
<g id="edge7" class="edge">
<title>44&#45;&gt;24</title>
<path fill="none" stroke="black" d="M803.93,-173.59C810.07,-145.13 817.48,-88.4 789.48,-54 783.4,-46.52 775.84,-40.58 767.48,-35.86"/>
<polygon fill="black" stroke="black" points="769.02,-32.71 758.51,-31.37 765.88,-38.97 769.02,-32.71"/>
<text text-anchor="middle" x="867.98" y="-101.3" font-family="Times,serif" font-size="14.00">DDG: result_list</text>
</g>
<!-- 44&#45;&gt;24 -->
<g id="edge8" class="edge">
<title>44&#45;&gt;24</title>
<path fill="none" stroke="black" d="M849.88,-174.39C897.2,-156.06 956.82,-124.18 928.48,-87 908.91,-61.32 834.88,-43.62 770.48,-32.73"/>
<polygon fill="black" stroke="black" points="770.67,-29.21 760.23,-31.04 769.53,-36.12 770.67,-29.21"/>
<text text-anchor="middle" x="1000.98" y="-101.3" font-family="Times,serif" font-size="14.00">DDG: temp_list[0]</text>
</g>
<!-- 44&#45;&gt;24 -->
<g id="edge9" class="edge">
<title>44&#45;&gt;24</title>
<path fill="none" stroke="black" d="M945.9,-179.29C1031.11,-166.69 1113.77,-140.65 1069.48,-87 1036.48,-47.02 909.84,-30.52 807.21,-23.73"/>
<polygon fill="black" stroke="black" points="807.25,-20.23 797.04,-23.08 806.8,-27.21 807.25,-20.23"/>
<text text-anchor="middle" x="1216.48" y="-101.3" font-family="Times,serif" font-size="14.00">DDG: result_list.append(temp_list[0])</text>
</g>
<!-- 49 -->
<g id="node8" class="node">
<title>49</title>
<ellipse fill="none" stroke="black" cx="626.48" cy="-105" rx="137.28" ry="18"/>
<text text-anchor="start" x="528.98" y="-102.3" font-family="Times,serif" font-size="14.00">(print,print(result_list[0]))</text>
<text text-anchor="start" x="715.98" y="-102.3" font-family="Times,serif" baseline-shift="sub" font-size="14.00">8</text>
</g>
<!-- 44&#45;&gt;49 -->
<g id="edge23" class="edge">
<title>44&#45;&gt;49</title>
<path fill="none" stroke="black" d="M714.62,-175.59C699.26,-170.72 683.88,-164.34 670.48,-156 660.26,-149.63 651.08,-140.18 643.78,-131.19"/>
<polygon fill="black" stroke="black" points="646.49,-128.98 637.62,-123.18 640.94,-133.24 646.49,-128.98"/>
<text text-anchor="middle" x="727.98" y="-144.8" font-family="Times,serif" font-size="14.00">DDG: result_list</text>
</g>
<!-- 49&#45;&gt;24 -->
<g id="edge10" class="edge">
<title>49&#45;&gt;24</title>
<path fill="none" stroke="black" d="M635.48,-87.01C638.42,-81.32 641.66,-74.92 644.48,-69 648.1,-61.42 651.84,-53.09 655.2,-45.45"/>
<polygon fill="black" stroke="black" points="658.43,-46.81 659.2,-36.24 652.01,-44.02 658.43,-46.81"/>
<text text-anchor="middle" x="718.48" y="-57.8" font-family="Times,serif" font-size="14.00">DDG: result_list[0]</text>
</g>
<!-- 49&#45;&gt;24 -->
<g id="edge11" class="edge">
<title>49&#45;&gt;24</title>
<path fill="none" stroke="black" d="M500.84,-97.68C464.7,-91.08 439.95,-78.32 460.48,-54 471.4,-41.07 501.72,-32.92 535.84,-27.78"/>
<polygon fill="black" stroke="black" points="536.63,-31.2 546.05,-26.34 535.66,-24.27 536.63,-31.2"/>
<text text-anchor="middle" x="550.48" y="-57.8" font-family="Times,serif" font-size="14.00">DDG: print(result_list[0])</text>
</g>
<!-- 17 -->
<g id="node10" class="node">
<title>17</title>
<ellipse fill="none" stroke="black" cx="1015.48" cy="-453" rx="27" ry="18"/>
<text text-anchor="middle" x="1015.48" y="-449.3" font-family="Times,serif" font-size="14.00">17</text>
</g>
<!-- 17&#45;&gt;48 -->
<g id="edge21" class="edge">
<title>17&#45;&gt;48</title>
<path fill="none" stroke="black" d="M1015.48,-434.8C1015.48,-423.16 1015.48,-407.55 1015.48,-394.24"/>
<polygon fill="black" stroke="black" points="1018.98,-394.18 1015.48,-384.18 1011.98,-394.18 1018.98,-394.18"/>
<text text-anchor="middle" x="1054.98" y="-405.8" font-family="Times,serif" font-size="14.00">DDG: print</text>
</g>
</g>
</svg>
