<?xml version="1.0" encoding="UTF-8" standalone="no"?>
<!DOCTYPE svg PUBLIC "-//W3C//DTD SVG 1.1//EN"
 "http://www.w3.org/Graphics/SVG/1.1/DTD/svg11.dtd">
<!-- Generated by graphviz version 2.43.0 (0)
 -->
<!-- Title: main Pages: 1 -->
<svg width="2861pt" height="332pt"
 viewBox="0.00 0.00 2861.05 332.00" xmlns="http://www.w3.org/2000/svg" xmlns:xlink="http://www.w3.org/1999/xlink">
<g id="graph0" class="graph" transform="scale(1 1) rotate(0) translate(4 328)">
<title>main</title>
<polygon fill="white" stroke="transparent" points="-4,4 -4,-328 2857.05,-328 2857.05,4 -4,4"/>
<!-- 56 -->
<g id="node1" class="node">
<title>56</title>
<ellipse fill="none" stroke="black" cx="2077.02" cy="-306" rx="97.48" ry="18"/>
<text text-anchor="start" x="2010.02" y="-303.3" font-family="Times,serif" font-size="14.00">(METHOD,main)</text>
<text text-anchor="start" x="2128.02" y="-303.3" font-family="Times,serif" baseline-shift="sub" font-size="14.00">10</text>
</g>
<!-- 57 -->
<g id="node2" class="node">
<title>57</title>
<ellipse fill="none" stroke="black" cx="1878.02" cy="-234" rx="67.69" ry="18"/>
<text text-anchor="start" x="1834.02" y="-231.3" font-family="Times,serif" font-size="14.00">(BLOCK,,)</text>
<text text-anchor="start" x="1906.02" y="-231.3" font-family="Times,serif" baseline-shift="sub" font-size="14.00">10</text>
</g>
<!-- 56&#45;&gt;57 -->
<g id="edge2" class="edge">
<title>56&#45;&gt;57</title>
<path fill="none" stroke="black" d="M2033.84,-289.81C2002.35,-278.73 1959.63,-263.71 1926.88,-252.19"/>
<polygon fill="black" stroke="black" points="1927.66,-248.75 1917.07,-248.74 1925.34,-255.36 1927.66,-248.75"/>
</g>
<!-- 58 -->
<g id="node14" class="node">
<title>58</title>
<ellipse fill="none" stroke="black" cx="2077.02" cy="-234" rx="113.18" ry="18"/>
<text text-anchor="start" x="1998.02" y="-230.3" font-family="Times,serif" font-size="14.00">(MODIFIER,VIRTUAL)</text>
</g>
<!-- 56&#45;&gt;58 -->
<g id="edge1" class="edge">
<title>56&#45;&gt;58</title>
<path fill="none" stroke="black" d="M2077.02,-287.7C2077.02,-279.98 2077.02,-270.71 2077.02,-262.11"/>
<polygon fill="black" stroke="black" points="2080.52,-262.1 2077.02,-252.1 2073.52,-262.1 2080.52,-262.1"/>
</g>
<!-- 59 -->
<g id="node15" class="node">
<title>59</title>
<ellipse fill="none" stroke="black" cx="2349.02" cy="-234" rx="141.07" ry="18"/>
<text text-anchor="start" x="2248.52" y="-231.3" font-family="Times,serif" font-size="14.00">(METHOD_RETURN,ANY)</text>
<text text-anchor="start" x="2433.52" y="-231.3" font-family="Times,serif" baseline-shift="sub" font-size="14.00">10</text>
</g>
<!-- 56&#45;&gt;59 -->
<g id="edge3" class="edge">
<title>56&#45;&gt;59</title>
<path fill="none" stroke="black" d="M2131.41,-291C2173.87,-280.07 2233.18,-264.81 2279.16,-252.98"/>
<polygon fill="black" stroke="black" points="2280.24,-256.31 2289.05,-250.43 2278.49,-249.54 2280.24,-256.31"/>
</g>
<!-- 64 -->
<g id="node3" class="node">
<title>64</title>
<ellipse fill="none" stroke="black" cx="930.02" cy="-162" rx="362.84" ry="18"/>
<text text-anchor="start" x="659.02" y="-159.3" font-family="Times,serif" font-size="14.00">(&lt;operator&gt;.assignment,user_name = input(&quot;Please enter your name: &quot;))</text>
<text text-anchor="start" x="1185.02" y="-159.3" font-family="Times,serif" baseline-shift="sub" font-size="14.00">11</text>
</g>
<!-- 57&#45;&gt;64 -->
<g id="edge4" class="edge">
<title>57&#45;&gt;64</title>
<path fill="none" stroke="black" d="M1813.6,-228.24C1676.08,-218.09 1348.75,-193.92 1133.43,-178.02"/>
<polygon fill="black" stroke="black" points="1133.5,-174.52 1123.27,-177.27 1132.98,-181.5 1133.5,-174.52"/>
</g>
<!-- 67 -->
<g id="node8" class="node">
<title>67</title>
<ellipse fill="none" stroke="black" cx="1529.02" cy="-162" rx="218.26" ry="18"/>
<text text-anchor="start" x="1369.02" y="-159.3" font-family="Times,serif" font-size="14.00">(process_name,process_name(user_name))</text>
<text text-anchor="start" x="1673.02" y="-159.3" font-family="Times,serif" baseline-shift="sub" font-size="14.00">12</text>
</g>
<!-- 57&#45;&gt;67 -->
<g id="edge6" class="edge">
<title>57&#45;&gt;67</title>
<path fill="none" stroke="black" d="M1825.77,-222.52C1770.88,-211.51 1683.54,-193.99 1617.81,-180.81"/>
<polygon fill="black" stroke="black" points="1618.35,-177.35 1607.86,-178.81 1616.98,-184.21 1618.35,-177.35"/>
</g>
<!-- 87 -->
<g id="node11" class="node">
<title>87</title>
<ellipse fill="none" stroke="black" cx="1878.02" cy="-162" rx="113.18" ry="18"/>
<text text-anchor="start" x="1799.02" y="-159.3" font-family="Times,serif" font-size="14.00">(LOCAL,input: ANY)</text>
<text text-anchor="start" x="1941.02" y="-159.3" font-family="Times,serif" baseline-shift="sub" font-size="14.00">11</text>
</g>
<!-- 57&#45;&gt;87 -->
<g id="edge5" class="edge">
<title>57&#45;&gt;87</title>
<path fill="none" stroke="black" d="M1878.02,-215.7C1878.02,-207.98 1878.02,-198.71 1878.02,-190.11"/>
<polygon fill="black" stroke="black" points="1881.52,-190.1 1878.02,-180.1 1874.52,-190.1 1881.52,-190.1"/>
</g>
<!-- 89 -->
<g id="node12" class="node">
<title>89</title>
<ellipse fill="none" stroke="black" cx="2268.02" cy="-162" rx="259.15" ry="18"/>
<text text-anchor="start" x="2076.52" y="-159.3" font-family="Times,serif" font-size="14.00">(LOCAL,user_name: __builtin.input.&lt;returnValue&gt;)</text>
<text text-anchor="start" x="2443.52" y="-159.3" font-family="Times,serif" baseline-shift="sub" font-size="14.00">11</text>
</g>
<!-- 57&#45;&gt;89 -->
<g id="edge7" class="edge">
<title>57&#45;&gt;89</title>
<path fill="none" stroke="black" d="M1927.65,-221.66C1936.74,-219.7 1946.15,-217.73 1955.02,-216 2022.27,-202.89 2098.03,-190.01 2158.16,-180.23"/>
<polygon fill="black" stroke="black" points="2158.75,-183.69 2168.06,-178.63 2157.63,-176.78 2158.75,-183.69"/>
</g>
<!-- 90 -->
<g id="node13" class="node">
<title>90</title>
<ellipse fill="none" stroke="black" cx="2699.02" cy="-162" rx="154.07" ry="18"/>
<text text-anchor="start" x="2588.52" y="-159.3" font-family="Times,serif" font-size="14.00">(LOCAL,process_name: ANY)</text>
<text text-anchor="start" x="2793.52" y="-159.3" font-family="Times,serif" baseline-shift="sub" font-size="14.00">12</text>
</g>
<!-- 57&#45;&gt;90 -->
<g id="edge8" class="edge">
<title>57&#45;&gt;90</title>
<path fill="none" stroke="black" d="M1925.87,-221.23C1935.47,-219.21 1945.53,-217.33 1955.02,-216 2211.22,-180 2278.19,-201.42 2536.02,-180 2550.67,-178.78 2566.05,-177.36 2581.27,-175.87"/>
<polygon fill="black" stroke="black" points="2581.63,-179.36 2591.23,-174.89 2580.94,-172.39 2581.63,-179.36"/>
</g>
<!-- 63 -->
<g id="node4" class="node">
<title>63</title>
<ellipse fill="none" stroke="black" cx="362.02" cy="-90" rx="362.04" ry="18"/>
<text text-anchor="start" x="91.52" y="-87.3" font-family="Times,serif" font-size="14.00">(IDENTIFIER,user_name,user_name = input(&quot;Please enter your name: &quot;))</text>
<text text-anchor="start" x="616.52" y="-87.3" font-family="Times,serif" baseline-shift="sub" font-size="14.00">11</text>
</g>
<!-- 64&#45;&gt;63 -->
<g id="edge9" class="edge">
<title>64&#45;&gt;63</title>
<path fill="none" stroke="black" d="M801.48,-145.16C711.9,-134.12 592.49,-119.4 500.75,-108.1"/>
<polygon fill="black" stroke="black" points="500.91,-104.59 490.55,-106.84 500.05,-111.54 500.91,-104.59"/>
</g>
<!-- 62 -->
<g id="node5" class="node">
<title>62</title>
<ellipse fill="none" stroke="black" cx="953.02" cy="-90" rx="211.46" ry="18"/>
<text text-anchor="start" x="798.52" y="-87.3" font-family="Times,serif" font-size="14.00">(input,input(&quot;Please enter your name: &quot;))</text>
<text text-anchor="start" x="1091.52" y="-87.3" font-family="Times,serif" baseline-shift="sub" font-size="14.00">11</text>
</g>
<!-- 64&#45;&gt;62 -->
<g id="edge10" class="edge">
<title>64&#45;&gt;62</title>
<path fill="none" stroke="black" d="M935.7,-143.7C938.27,-135.9 941.35,-126.51 944.2,-117.83"/>
<polygon fill="black" stroke="black" points="947.6,-118.7 947.4,-108.1 940.95,-116.51 947.6,-118.7"/>
</g>
<!-- 61 -->
<g id="node6" class="node">
<title>61</title>
<ellipse fill="none" stroke="black" cx="630.02" cy="-18" rx="272.15" ry="18"/>
<text text-anchor="start" x="428.52" y="-15.3" font-family="Times,serif" font-size="14.00">(IDENTIFIER,input,input(&quot;Please enter your name: &quot;))</text>
<text text-anchor="start" x="815.52" y="-15.3" font-family="Times,serif" baseline-shift="sub" font-size="14.00">11</text>
</g>
<!-- 62&#45;&gt;61 -->
<g id="edge11" class="edge">
<title>62&#45;&gt;61</title>
<path fill="none" stroke="black" d="M879.72,-73.12C830.87,-62.53 766.47,-48.57 715.31,-37.48"/>
<polygon fill="black" stroke="black" points="715.78,-34 705.26,-35.31 714.29,-40.85 715.78,-34"/>
</g>
<!-- 60 -->
<g id="node7" class="node">
<title>60</title>
<ellipse fill="none" stroke="black" cx="1276.02" cy="-18" rx="355.54" ry="18"/>
<text text-anchor="start" x="1010.52" y="-15.3" font-family="Times,serif" font-size="14.00">(LITERAL,&quot;Please enter your name: &quot;,input(&quot;Please enter your name: &quot;))</text>
<text text-anchor="start" x="1525.52" y="-15.3" font-family="Times,serif" baseline-shift="sub" font-size="14.00">11</text>
</g>
<!-- 62&#45;&gt;60 -->
<g id="edge12" class="edge">
<title>62&#45;&gt;60</title>
<path fill="none" stroke="black" d="M1026.31,-73.12C1074.73,-62.62 1138.42,-48.82 1189.35,-37.78"/>
<polygon fill="black" stroke="black" points="1190.33,-41.15 1199.36,-35.61 1188.85,-34.31 1190.33,-41.15"/>
</g>
<!-- 66 -->
<g id="node9" class="node">
<title>66</title>
<ellipse fill="none" stroke="black" cx="1507.02" cy="-90" rx="279.45" ry="18"/>
<text text-anchor="start" x="1300.02" y="-87.3" font-family="Times,serif" font-size="14.00">(IDENTIFIER,process_name,process_name(user_name))</text>
<text text-anchor="start" x="1698.02" y="-87.3" font-family="Times,serif" baseline-shift="sub" font-size="14.00">12</text>
</g>
<!-- 67&#45;&gt;66 -->
<g id="edge13" class="edge">
<title>67&#45;&gt;66</title>
<path fill="none" stroke="black" d="M1523.58,-143.7C1521.13,-135.9 1518.18,-126.51 1515.45,-117.83"/>
<polygon fill="black" stroke="black" points="1518.73,-116.59 1512.39,-108.1 1512.05,-118.69 1518.73,-116.59"/>
</g>
<!-- 65 -->
<g id="node10" class="node">
<title>65</title>
<ellipse fill="none" stroke="black" cx="2069.02" cy="-90" rx="264.55" ry="18"/>
<text text-anchor="start" x="1873.52" y="-87.3" font-family="Times,serif" font-size="14.00">(IDENTIFIER,user_name,process_name(user_name))</text>
<text text-anchor="start" x="2248.52" y="-87.3" font-family="Times,serif" baseline-shift="sub" font-size="14.00">12</text>
</g>
<!-- 67&#45;&gt;65 -->
<g id="edge14" class="edge">
<title>67&#45;&gt;65</title>
<path fill="none" stroke="black" d="M1640.91,-146.5C1728.6,-135.13 1850.64,-119.31 1942,-107.47"/>
<polygon fill="black" stroke="black" points="1942.67,-110.91 1952.14,-106.15 1941.77,-103.97 1942.67,-110.91"/>
</g>
</g>
</svg>
