<?xml version="1.0" encoding="UTF-8" standalone="no"?>
<!DOCTYPE svg PUBLIC "-//W3C//DTD SVG 1.1//EN"
 "http://www.w3.org/Graphics/SVG/1.1/DTD/svg11.dtd">
<!-- Generated by graphviz version 2.43.0 (0)
 -->
<!-- Title: main Pages: 1 -->
<svg width="733pt" height="332pt"
 viewBox="0.00 0.00 733.34 332.00" xmlns="http://www.w3.org/2000/svg" xmlns:xlink="http://www.w3.org/1999/xlink">
<g id="graph0" class="graph" transform="scale(1 1) rotate(0) translate(4 328)">
<title>main</title>
<polygon fill="white" stroke="transparent" points="-4,4 -4,-328 729.34,-328 729.34,4 -4,4"/>
<!-- 64 -->
<g id="node1" class="node">
<title>64</title>
<ellipse fill="none" stroke="black" cx="362.67" cy="-162" rx="362.84" ry="18"/>
<text text-anchor="start" x="91.67" y="-159.3" font-family="Times,serif" font-size="14.00">(&lt;operator&gt;.assignment,user_name = input(&quot;Please enter your name: &quot;))</text>
<text text-anchor="start" x="617.67" y="-159.3" font-family="Times,serif" baseline-shift="sub" font-size="14.00">11</text>
</g>
<!-- 67 -->
<g id="node2" class="node">
<title>67</title>
<ellipse fill="none" stroke="black" cx="362.67" cy="-90" rx="218.26" ry="18"/>
<text text-anchor="start" x="202.67" y="-87.3" font-family="Times,serif" font-size="14.00">(process_name,process_name(user_name))</text>
<text text-anchor="start" x="506.67" y="-87.3" font-family="Times,serif" baseline-shift="sub" font-size="14.00">12</text>
</g>
<!-- 64&#45;&gt;67 -->
<g id="edge1" class="edge">
<title>64&#45;&gt;67</title>
<path fill="none" stroke="black" d="M362.67,-143.7C362.67,-135.98 362.67,-126.71 362.67,-118.11"/>
<polygon fill="black" stroke="black" points="366.17,-118.1 362.67,-108.1 359.17,-118.1 366.17,-118.1"/>
</g>
<!-- 59 -->
<g id="node5" class="node">
<title>59</title>
<ellipse fill="none" stroke="black" cx="362.67" cy="-18" rx="141.07" ry="18"/>
<text text-anchor="start" x="262.17" y="-15.3" font-family="Times,serif" font-size="14.00">(METHOD_RETURN,ANY)</text>
<text text-anchor="start" x="447.17" y="-15.3" font-family="Times,serif" baseline-shift="sub" font-size="14.00">10</text>
</g>
<!-- 67&#45;&gt;59 -->
<g id="edge2" class="edge">
<title>67&#45;&gt;59</title>
<path fill="none" stroke="black" d="M362.67,-71.7C362.67,-63.98 362.67,-54.71 362.67,-46.11"/>
<polygon fill="black" stroke="black" points="366.17,-46.1 362.67,-36.1 359.17,-46.1 366.17,-46.1"/>
</g>
<!-- 62 -->
<g id="node3" class="node">
<title>62</title>
<ellipse fill="none" stroke="black" cx="362.67" cy="-234" rx="211.46" ry="18"/>
<text text-anchor="start" x="208.17" y="-231.3" font-family="Times,serif" font-size="14.00">(input,input(&quot;Please enter your name: &quot;))</text>
<text text-anchor="start" x="501.17" y="-231.3" font-family="Times,serif" baseline-shift="sub" font-size="14.00">11</text>
</g>
<!-- 62&#45;&gt;64 -->
<g id="edge3" class="edge">
<title>62&#45;&gt;64</title>
<path fill="none" stroke="black" d="M362.67,-215.7C362.67,-207.98 362.67,-198.71 362.67,-190.11"/>
<polygon fill="black" stroke="black" points="366.17,-190.1 362.67,-180.1 359.17,-190.1 366.17,-190.1"/>
</g>
<!-- 56 -->
<g id="node4" class="node">
<title>56</title>
<ellipse fill="none" stroke="black" cx="362.67" cy="-306" rx="97.48" ry="18"/>
<text text-anchor="start" x="295.67" y="-303.3" font-family="Times,serif" font-size="14.00">(METHOD,main)</text>
<text text-anchor="start" x="413.67" y="-303.3" font-family="Times,serif" baseline-shift="sub" font-size="14.00">10</text>
</g>
<!-- 56&#45;&gt;62 -->
<g id="edge4" class="edge">
<title>56&#45;&gt;62</title>
<path fill="none" stroke="black" d="M362.67,-287.7C362.67,-279.98 362.67,-270.71 362.67,-262.11"/>
<polygon fill="black" stroke="black" points="366.17,-262.1 362.67,-252.1 359.17,-262.1 366.17,-262.1"/>
</g>
</g>
</svg>
