<?xml version="1.0" encoding="UTF-8" standalone="no"?>
<!DOCTYPE svg PUBLIC "-//W3C//DTD SVG 1.1//EN"
 "http://www.w3.org/Graphics/SVG/1.1/DTD/svg11.dtd">
<!-- Generated by graphviz version 2.43.0 (0)
 -->
<!-- Title: main Pages: 1 -->
<svg width="3173pt" height="392pt"
 viewBox="0.00 0.00 3173.33 392.00" xmlns="http://www.w3.org/2000/svg" xmlns:xlink="http://www.w3.org/1999/xlink">
<g id="graph0" class="graph" transform="scale(1 1) rotate(0) translate(4 388)">
<title>main</title>
<polygon fill="white" stroke="transparent" points="-4,4 -4,-388 3169.33,-388 3169.33,4 -4,4"/>
<!-- 56 -->
<g id="node1" class="node">
<title>56</title>
<ellipse fill="none" stroke="black" cx="2156" cy="-366" rx="97.48" ry="18"/>
<text text-anchor="start" x="2089" y="-363.3" font-family="Times,serif" font-size="14.00">(METHOD,main)</text>
<text text-anchor="start" x="2207" y="-363.3" font-family="Times,serif" baseline-shift="sub" font-size="14.00">10</text>
</g>
<!-- 57 -->
<g id="node2" class="node">
<title>57</title>
<ellipse fill="none" stroke="black" cx="858" cy="-279" rx="67.69" ry="18"/>
<text text-anchor="start" x="814" y="-276.3" font-family="Times,serif" font-size="14.00">(BLOCK,,)</text>
<text text-anchor="start" x="886" y="-276.3" font-family="Times,serif" baseline-shift="sub" font-size="14.00">10</text>
</g>
<!-- 56&#45;&gt;57 -->
<g id="edge2" class="edge">
<title>56&#45;&gt;57</title>
<path fill="none" stroke="black" d="M2065.76,-359.09C1822.57,-343.17 1156.85,-299.57 932.75,-284.9"/>
<polygon fill="black" stroke="black" points="932.94,-281.4 922.73,-284.24 932.48,-288.39 932.94,-281.4"/>
<text text-anchor="middle" x="1604" y="-318.8" font-family="Times,serif" font-size="14.00">AST: </text>
</g>
<!-- 62 -->
<g id="node5" class="node">
<title>62</title>
<ellipse fill="none" stroke="black" cx="2172" cy="-105" rx="211.46" ry="18"/>
<text text-anchor="start" x="2017.5" y="-102.3" font-family="Times,serif" font-size="14.00">(input,input(&quot;Please enter your name: &quot;))</text>
<text text-anchor="start" x="2310.5" y="-102.3" font-family="Times,serif" baseline-shift="sub" font-size="14.00">11</text>
</g>
<!-- 56&#45;&gt;62 -->
<g id="edge18" class="edge">
<title>56&#45;&gt;62</title>
<path fill="none" stroke="black" d="M2147.5,-347.79C2135.77,-321.91 2116.93,-271.39 2125,-228 2131.38,-193.68 2147.06,-156.56 2158.56,-132.39"/>
<polygon fill="black" stroke="black" points="2161.82,-133.71 2163.04,-123.18 2155.52,-130.64 2161.82,-133.71"/>
<text text-anchor="middle" x="2145.5" y="-231.8" font-family="Times,serif" font-size="14.00">CFG: </text>
</g>
<!-- 56&#45;&gt;62 -->
<g id="edge29" class="edge">
<title>56&#45;&gt;62</title>
<path fill="none" stroke="black" d="M2157.63,-347.64C2159.81,-323.99 2163.65,-280.33 2166,-243 2168.39,-205.03 2170.13,-161.09 2171.11,-133.42"/>
<polygon fill="black" stroke="black" points="2174.61,-133.43 2171.45,-123.31 2167.61,-133.19 2174.61,-133.43"/>
<text text-anchor="middle" x="2188.5" y="-231.8" font-family="Times,serif" font-size="14.00">DDG: </text>
</g>
<!-- 61 -->
<g id="node6" class="node">
<title>61</title>
<ellipse fill="none" stroke="black" cx="2893" cy="-18" rx="272.15" ry="18"/>
<text text-anchor="start" x="2691.5" y="-15.3" font-family="Times,serif" font-size="14.00">(IDENTIFIER,input,input(&quot;Please enter your name: &quot;))</text>
<text text-anchor="start" x="3078.5" y="-15.3" font-family="Times,serif" baseline-shift="sub" font-size="14.00">11</text>
</g>
<!-- 56&#45;&gt;61 -->
<g id="edge28" class="edge">
<title>56&#45;&gt;61</title>
<path fill="none" stroke="black" d="M2250.31,-361.39C2421.53,-353.56 2766,-331.42 2766,-280 2766,-280 2766,-280 2766,-104 2766,-73 2792.46,-52.59 2821.23,-39.56"/>
<polygon fill="black" stroke="black" points="2822.77,-42.71 2830.62,-35.58 2820.04,-36.26 2822.77,-42.71"/>
<text text-anchor="middle" x="2787.5" y="-188.3" font-family="Times,serif" font-size="14.00">DDG: </text>
</g>
<!-- 67 -->
<g id="node8" class="node">
<title>67</title>
<ellipse fill="none" stroke="black" cx="246" cy="-105" rx="218.26" ry="18"/>
<text text-anchor="start" x="86" y="-102.3" font-family="Times,serif" font-size="14.00">(process_name,process_name(user_name))</text>
<text text-anchor="start" x="390" y="-102.3" font-family="Times,serif" baseline-shift="sub" font-size="14.00">12</text>
</g>
<!-- 56&#45;&gt;67 -->
<g id="edge26" class="edge">
<title>56&#45;&gt;67</title>
<path fill="none" stroke="black" d="M2062.65,-360.62C1923.83,-354.09 1654.74,-341.33 1426,-330 1139.55,-315.81 326.9,-428.39 141,-210 115.13,-179.61 159.45,-147.76 198.22,-127.44"/>
<polygon fill="black" stroke="black" points="200.07,-130.43 207.4,-122.78 196.9,-124.19 200.07,-130.43"/>
<text text-anchor="middle" x="198.5" y="-231.8" font-family="Times,serif" font-size="14.00">DDG: </text>
</g>
<!-- 66 -->
<g id="node9" class="node">
<title>66</title>
<ellipse fill="none" stroke="black" cx="1594" cy="-18" rx="279.45" ry="18"/>
<text text-anchor="start" x="1387" y="-15.3" font-family="Times,serif" font-size="14.00">(IDENTIFIER,process_name,process_name(user_name))</text>
<text text-anchor="start" x="1785" y="-15.3" font-family="Times,serif" baseline-shift="sub" font-size="14.00">12</text>
</g>
<!-- 56&#45;&gt;66 -->
<g id="edge24" class="edge">
<title>56&#45;&gt;66</title>
<path fill="none" stroke="black" d="M2231.82,-354.67C2306.99,-342.24 2411,-318.15 2411,-280 2411,-280 2411,-280 2411,-104 2411,-80.92 2415.14,-68.26 2397,-54 2374.5,-36.3 1910.6,-37.34 1882,-36 1854.59,-34.71 1825.72,-33.2 1797.27,-31.61"/>
<polygon fill="black" stroke="black" points="1797.41,-28.11 1787.23,-31.05 1797.01,-35.1 1797.41,-28.11"/>
<text text-anchor="middle" x="2432.5" y="-188.3" font-family="Times,serif" font-size="14.00">DDG: </text>
</g>
<!-- 58 -->
<g id="node14" class="node">
<title>58</title>
<ellipse fill="none" stroke="black" cx="2552" cy="-279" rx="113.18" ry="18"/>
<text text-anchor="start" x="2473" y="-275.3" font-family="Times,serif" font-size="14.00">(MODIFIER,VIRTUAL)</text>
</g>
<!-- 56&#45;&gt;58 -->
<g id="edge1" class="edge">
<title>56&#45;&gt;58</title>
<path fill="none" stroke="black" d="M2245.8,-358.87C2298.59,-353.9 2366.28,-345.13 2425,-330 2453.56,-322.64 2484.37,-310.62 2508.5,-300.2"/>
<polygon fill="black" stroke="black" points="2509.97,-303.38 2517.73,-296.16 2507.16,-296.97 2509.97,-303.38"/>
<text text-anchor="middle" x="2490" y="-318.8" font-family="Times,serif" font-size="14.00">AST: </text>
</g>
<!-- 59 -->
<g id="node15" class="node">
<title>59</title>
<ellipse fill="none" stroke="black" cx="445" cy="-18" rx="141.07" ry="18"/>
<text text-anchor="start" x="344.5" y="-15.3" font-family="Times,serif" font-size="14.00">(METHOD_RETURN,ANY)</text>
<text text-anchor="start" x="529.5" y="-15.3" font-family="Times,serif" baseline-shift="sub" font-size="14.00">10</text>
</g>
<!-- 56&#45;&gt;59 -->
<g id="edge3" class="edge">
<title>56&#45;&gt;59</title>
<path fill="none" stroke="black" d="M2058.66,-364.61C1734.92,-363.09 695.95,-356.23 362,-330 200.08,-317.28 0,-442.42 0,-280 0,-280 0,-280 0,-104 0,-42.67 165.11,-24.52 294.19,-19.7"/>
<polygon fill="black" stroke="black" points="294.33,-23.2 304.2,-19.35 294.08,-16.2 294.33,-23.2"/>
<text text-anchor="middle" x="19" y="-188.3" font-family="Times,serif" font-size="14.00">AST: </text>
</g>
<!-- 64 -->
<g id="node3" class="node">
<title>64</title>
<ellipse fill="none" stroke="black" cx="1693" cy="-192" rx="362.84" ry="18"/>
<text text-anchor="start" x="1422" y="-189.3" font-family="Times,serif" font-size="14.00">(&lt;operator&gt;.assignment,user_name = input(&quot;Please enter your name: &quot;))</text>
<text text-anchor="start" x="1948" y="-189.3" font-family="Times,serif" baseline-shift="sub" font-size="14.00">11</text>
</g>
<!-- 57&#45;&gt;64 -->
<g id="edge4" class="edge">
<title>57&#45;&gt;64</title>
<path fill="none" stroke="black" d="M920.08,-271.68C1048.21,-258.64 1345.53,-228.37 1531.81,-209.41"/>
<polygon fill="black" stroke="black" points="1532.38,-212.87 1541.97,-208.37 1531.67,-205.9 1532.38,-212.87"/>
<text text-anchor="middle" x="1345" y="-231.8" font-family="Times,serif" font-size="14.00">AST: </text>
</g>
<!-- 57&#45;&gt;67 -->
<g id="edge6" class="edge">
<title>57&#45;&gt;67</title>
<path fill="none" stroke="black" d="M790.68,-276.75C716.25,-272.8 594.77,-258.63 503,-210 483.01,-199.4 486.39,-185.67 467,-174 428.16,-150.61 380.57,-134.63 339.52,-124.06"/>
<polygon fill="black" stroke="black" points="340.33,-120.66 329.78,-121.62 338.63,-127.45 340.33,-120.66"/>
<text text-anchor="middle" x="522" y="-188.3" font-family="Times,serif" font-size="14.00">AST: </text>
</g>
<!-- 87 -->
<g id="node11" class="node">
<title>87</title>
<ellipse fill="none" stroke="black" cx="663" cy="-192" rx="113.18" ry="18"/>
<text text-anchor="start" x="584" y="-189.3" font-family="Times,serif" font-size="14.00">(LOCAL,input: ANY)</text>
<text text-anchor="start" x="726" y="-189.3" font-family="Times,serif" baseline-shift="sub" font-size="14.00">11</text>
</g>
<!-- 57&#45;&gt;87 -->
<g id="edge5" class="edge">
<title>57&#45;&gt;87</title>
<path fill="none" stroke="black" d="M824.03,-263.19C792.32,-249.37 744.71,-228.62 709.48,-213.26"/>
<polygon fill="black" stroke="black" points="710.46,-209.87 699.89,-209.08 707.66,-216.29 710.46,-209.87"/>
<text text-anchor="middle" x="792" y="-231.8" font-family="Times,serif" font-size="14.00">AST: </text>
</g>
<!-- 89 -->
<g id="node12" class="node">
<title>89</title>
<ellipse fill="none" stroke="black" cx="1053" cy="-192" rx="259.15" ry="18"/>
<text text-anchor="start" x="861.5" y="-189.3" font-family="Times,serif" font-size="14.00">(LOCAL,user_name: __builtin.input.&lt;returnValue&gt;)</text>
<text text-anchor="start" x="1228.5" y="-189.3" font-family="Times,serif" baseline-shift="sub" font-size="14.00">11</text>
</g>
<!-- 57&#45;&gt;89 -->
<g id="edge7" class="edge">
<title>57&#45;&gt;89</title>
<path fill="none" stroke="black" d="M891.97,-263.19C923.19,-249.59 969.8,-229.27 1004.85,-213.99"/>
<polygon fill="black" stroke="black" points="1006.64,-217.03 1014.41,-209.82 1003.84,-210.61 1006.64,-217.03"/>
<text text-anchor="middle" x="987" y="-231.8" font-family="Times,serif" font-size="14.00">AST: </text>
</g>
<!-- 90 -->
<g id="node13" class="node">
<title>90</title>
<ellipse fill="none" stroke="black" cx="304" cy="-192" rx="154.07" ry="18"/>
<text text-anchor="start" x="193.5" y="-189.3" font-family="Times,serif" font-size="14.00">(LOCAL,process_name: ANY)</text>
<text text-anchor="start" x="398.5" y="-189.3" font-family="Times,serif" baseline-shift="sub" font-size="14.00">12</text>
</g>
<!-- 57&#45;&gt;90 -->
<g id="edge8" class="edge">
<title>57&#45;&gt;90</title>
<path fill="none" stroke="black" d="M790.55,-277.76C707.58,-276.22 562.89,-269.5 442,-243 410.74,-236.15 376.94,-223.99 350.62,-213.37"/>
<polygon fill="black" stroke="black" points="351.86,-210.1 341.28,-209.55 349.2,-216.58 351.86,-210.1"/>
<text text-anchor="middle" x="461" y="-231.8" font-family="Times,serif" font-size="14.00">AST: </text>
</g>
<!-- 63 -->
<g id="node4" class="node">
<title>63</title>
<ellipse fill="none" stroke="black" cx="844" cy="-105" rx="362.04" ry="18"/>
<text text-anchor="start" x="573.5" y="-102.3" font-family="Times,serif" font-size="14.00">(IDENTIFIER,user_name,user_name = input(&quot;Please enter your name: &quot;))</text>
<text text-anchor="start" x="1098.5" y="-102.3" font-family="Times,serif" baseline-shift="sub" font-size="14.00">11</text>
</g>
<!-- 64&#45;&gt;63 -->
<g id="edge9" class="edge">
<title>64&#45;&gt;63</title>
<path fill="none" stroke="black" d="M1458.21,-178.28C1373.55,-172.74 1277.37,-165.34 1190,-156 1110.64,-147.52 1021.52,-134.56 953.6,-123.96"/>
<polygon fill="black" stroke="black" points="953.73,-120.43 943.31,-122.34 952.65,-127.35 953.73,-120.43"/>
<text text-anchor="middle" x="1209" y="-144.8" font-family="Times,serif" font-size="14.00">AST: </text>
</g>
<!-- 64&#45;&gt;62 -->
<g id="edge10" class="edge">
<title>64&#45;&gt;62</title>
<path fill="none" stroke="black" d="M1821.07,-175.15C1859.14,-169.8 1900.87,-163.31 1939,-156 1966.84,-150.66 1973.33,-147.18 2001,-141 2027.36,-135.12 2056.08,-129.09 2082.34,-123.73"/>
<polygon fill="black" stroke="black" points="2083.17,-127.13 2092.27,-121.71 2081.77,-120.27 2083.17,-127.13"/>
<text text-anchor="middle" x="2020" y="-144.8" font-family="Times,serif" font-size="14.00">AST: </text>
</g>
<!-- 64&#45;&gt;67 -->
<g id="edge15" class="edge">
<title>64&#45;&gt;67</title>
<path fill="none" stroke="black" d="M1445.51,-178.84C1198.96,-166.34 809.67,-145.56 473,-123 452.49,-121.63 430.94,-120.11 409.63,-118.56"/>
<polygon fill="black" stroke="black" points="409.75,-115.06 399.53,-117.83 409.24,-122.04 409.75,-115.06"/>
<text text-anchor="middle" x="1029.5" y="-144.8" font-family="Times,serif" font-size="14.00">CFG: </text>
</g>
<!-- 64&#45;&gt;67 -->
<g id="edge25" class="edge">
<title>64&#45;&gt;67</title>
<path fill="none" stroke="black" d="M1443.15,-178.93C1402.33,-177.15 1360.49,-175.43 1321,-174 1022.87,-163.19 947.49,-178.35 650,-156 596.34,-151.97 463.58,-135.04 364.81,-121.99"/>
<polygon fill="black" stroke="black" points="365.13,-118.5 354.76,-120.66 364.21,-125.44 365.13,-118.5"/>
<text text-anchor="middle" x="710.5" y="-144.8" font-family="Times,serif" font-size="14.00">DDG: user_name</text>
</g>
<!-- 64&#45;&gt;59 -->
<g id="edge19" class="edge">
<title>64&#45;&gt;59</title>
<path fill="none" stroke="black" d="M1535.13,-175.79C1430.82,-163.97 1304.69,-145.77 1256,-123 1234.03,-112.73 1237.29,-96.54 1215,-87 1158.47,-62.81 788.2,-38.4 582.41,-26.49"/>
<polygon fill="black" stroke="black" points="582.32,-22.98 572.13,-25.9 581.91,-29.97 582.32,-22.98"/>
<text text-anchor="middle" x="1397.5" y="-101.3" font-family="Times,serif" font-size="14.00">DDG: input(&quot;Please enter your name: &quot;)</text>
</g>
<!-- 64&#45;&gt;59 -->
<g id="edge20" class="edge">
<title>64&#45;&gt;59</title>
<path fill="none" stroke="black" d="M1654.23,-173.98C1628.86,-161.81 1595.75,-143.93 1570,-123 1553.61,-109.68 1557.91,-96.39 1539,-87 1528.39,-81.73 871.49,-43.47 580.83,-26.76"/>
<polygon fill="black" stroke="black" points="580.83,-23.26 570.65,-26.18 580.43,-30.25 580.83,-23.26"/>
<text text-anchor="middle" x="1761" y="-101.3" font-family="Times,serif" font-size="14.00">DDG: user_name = input(&quot;Please enter your name: &quot;)</text>
</g>
<!-- 62&#45;&gt;64 -->
<g id="edge17" class="edge">
<title>62&#45;&gt;64</title>
<path fill="none" stroke="black" d="M2119.09,-122.44C2102.85,-127.9 2085.03,-134.3 2069,-141 2055.24,-146.74 2053.32,-151.85 2039,-156 2007.86,-165.03 1974.57,-171.81 1941.39,-176.89"/>
<polygon fill="black" stroke="black" points="1940.47,-173.49 1931.09,-178.41 1941.5,-180.41 1940.47,-173.49"/>
<text text-anchor="middle" x="2089.5" y="-144.8" font-family="Times,serif" font-size="14.00">CFG: </text>
</g>
<!-- 62&#45;&gt;64 -->
<g id="edge23" class="edge">
<title>62&#45;&gt;64</title>
<path fill="none" stroke="black" d="M2020.11,-117.53C1995.67,-119.37 1970.64,-121.25 1947,-123 1919.56,-125.04 1720.09,-122.2 1700,-141 1693.88,-146.73 1691.36,-155.15 1690.59,-163.46"/>
<polygon fill="black" stroke="black" points="1687.09,-163.66 1690.43,-173.71 1694.09,-163.77 1687.09,-163.66"/>
<text text-anchor="middle" x="1817.5" y="-144.8" font-family="Times,serif" font-size="14.00">DDG: &quot;Please enter your name: &quot;</text>
</g>
<!-- 62&#45;&gt;61 -->
<g id="edge11" class="edge">
<title>62&#45;&gt;61</title>
<path fill="none" stroke="black" d="M2290.25,-90.06C2418.09,-74.99 2621.57,-51 2756.21,-35.13"/>
<polygon fill="black" stroke="black" points="2756.66,-38.6 2766.19,-33.95 2755.84,-31.65 2756.66,-38.6"/>
<text text-anchor="middle" x="2594" y="-57.8" font-family="Times,serif" font-size="14.00">AST: </text>
</g>
<!-- 60 -->
<g id="node7" class="node">
<title>60</title>
<ellipse fill="none" stroke="black" cx="2247" cy="-18" rx="355.54" ry="18"/>
<text text-anchor="start" x="1981.5" y="-15.3" font-family="Times,serif" font-size="14.00">(LITERAL,&quot;Please enter your name: &quot;,input(&quot;Please enter your name: &quot;))</text>
<text text-anchor="start" x="2496.5" y="-15.3" font-family="Times,serif" baseline-shift="sub" font-size="14.00">11</text>
</g>
<!-- 62&#45;&gt;60 -->
<g id="edge12" class="edge">
<title>62&#45;&gt;60</title>
<path fill="none" stroke="black" d="M2187.18,-86.8C2198.05,-74.47 2212.87,-57.68 2225.04,-43.89"/>
<polygon fill="black" stroke="black" points="2227.85,-45.99 2231.85,-36.18 2222.6,-41.36 2227.85,-45.99"/>
<text text-anchor="middle" x="2233" y="-57.8" font-family="Times,serif" font-size="14.00">AST: </text>
</g>
<!-- 67&#45;&gt;66 -->
<g id="edge13" class="edge">
<title>67&#45;&gt;66</title>
<path fill="none" stroke="black" d="M399.53,-92.18C424.09,-90.38 449.24,-88.6 473,-87 607.16,-77.98 640.78,-77.1 775,-69 984.26,-56.38 1223.59,-41.74 1389.26,-31.58"/>
<polygon fill="black" stroke="black" points="1389.8,-35.05 1399.57,-30.95 1389.37,-28.07 1389.8,-35.05"/>
<text text-anchor="middle" x="1019" y="-57.8" font-family="Times,serif" font-size="14.00">AST: </text>
</g>
<!-- 65 -->
<g id="node10" class="node">
<title>65</title>
<ellipse fill="none" stroke="black" cx="1032" cy="-18" rx="264.55" ry="18"/>
<text text-anchor="start" x="836.5" y="-15.3" font-family="Times,serif" font-size="14.00">(IDENTIFIER,user_name,process_name(user_name))</text>
<text text-anchor="start" x="1211.5" y="-15.3" font-family="Times,serif" baseline-shift="sub" font-size="14.00">12</text>
</g>
<!-- 67&#45;&gt;65 -->
<g id="edge14" class="edge">
<title>67&#45;&gt;65</title>
<path fill="none" stroke="black" d="M383.84,-91.02C449.87,-84.66 530.06,-76.72 602,-69 701.38,-58.34 813.54,-45.26 898.39,-35.15"/>
<polygon fill="black" stroke="black" points="898.82,-38.63 908.34,-33.97 898,-31.68 898.82,-38.63"/>
<text text-anchor="middle" x="752" y="-57.8" font-family="Times,serif" font-size="14.00">AST: </text>
</g>
<!-- 67&#45;&gt;59 -->
<g id="edge16" class="edge">
<title>67&#45;&gt;59</title>
<path fill="none" stroke="black" d="M391.61,-91.52C467.28,-84.32 545.26,-75.44 551,-69 563.8,-54.65 552.7,-44.07 533.59,-36.45"/>
<polygon fill="black" stroke="black" points="534.57,-33.08 523.98,-33.05 532.24,-39.68 534.57,-33.08"/>
<text text-anchor="middle" x="577.5" y="-57.8" font-family="Times,serif" font-size="14.00">CFG: </text>
</g>
<!-- 67&#45;&gt;59 -->
<g id="edge21" class="edge">
<title>67&#45;&gt;59</title>
<path fill="none" stroke="black" d="M195.16,-87.28C176.95,-78.63 163.46,-67.14 175,-54 184.81,-42.84 250.15,-34.19 314.09,-28.29"/>
<polygon fill="black" stroke="black" points="314.69,-31.75 324.33,-27.37 314.06,-24.78 314.69,-31.75"/>
<text text-anchor="middle" x="235.5" y="-57.8" font-family="Times,serif" font-size="14.00">DDG: user_name</text>
</g>
<!-- 67&#45;&gt;59 -->
<g id="edge22" class="edge">
<title>67&#45;&gt;59</title>
<path fill="none" stroke="black" d="M270.87,-87.01C278.96,-81.38 287.92,-75.01 296,-69 304.63,-62.58 305.39,-58.83 315,-54 329.35,-46.79 345.37,-40.92 361.13,-36.21"/>
<polygon fill="black" stroke="black" points="362.23,-39.53 370.88,-33.41 360.31,-32.8 362.23,-39.53"/>
<text text-anchor="middle" x="431" y="-57.8" font-family="Times,serif" font-size="14.00">DDG: process_name(user_name)</text>
</g>
<!-- 14 -->
<g id="node16" class="node">
<title>14</title>
<ellipse fill="none" stroke="black" cx="2893" cy="-105" rx="27" ry="18"/>
<text text-anchor="middle" x="2893" y="-101.3" font-family="Times,serif" font-size="14.00">14</text>
</g>
<!-- 14&#45;&gt;61 -->
<g id="edge27" class="edge">
<title>14&#45;&gt;61</title>
<path fill="none" stroke="black" d="M2893,-86.8C2893,-75.16 2893,-59.55 2893,-46.24"/>
<polygon fill="black" stroke="black" points="2896.5,-46.18 2893,-36.18 2889.5,-46.18 2896.5,-46.18"/>
<text text-anchor="middle" x="2933.5" y="-57.8" font-family="Times,serif" font-size="14.00">DDG: input</text>
</g>
</g>
</svg>
