<?xml version="1.0" encoding="UTF-8" standalone="no"?>
<!DOCTYPE svg PUBLIC "-//W3C//DTD SVG 1.1//EN"
 "http://www.w3.org/Graphics/SVG/1.1/DTD/svg11.dtd">
<!-- Generated by graphviz version 2.43.0 (0)
 -->
<!-- Title: main Pages: 1 -->
<svg width="1957pt" height="392pt"
 viewBox="0.00 0.00 1957.01 392.00" xmlns="http://www.w3.org/2000/svg" xmlns:xlink="http://www.w3.org/1999/xlink">
<g id="graph0" class="graph" transform="scale(1 1) rotate(0) translate(4 388)">
<title>main</title>
<polygon fill="white" stroke="transparent" points="-4,4 -4,-388 1953.01,-388 1953.01,4 -4,4"/>
<!-- 56 -->
<g id="node1" class="node">
<title>56</title>
<ellipse fill="none" stroke="black" cx="953.69" cy="-366" rx="97.48" ry="18"/>
<text text-anchor="start" x="886.69" y="-363.3" font-family="Times,serif" font-size="14.00">(METHOD,main)</text>
<text text-anchor="start" x="1004.69" y="-363.3" font-family="Times,serif" baseline-shift="sub" font-size="14.00">10</text>
</g>
<!-- 67 -->
<g id="node4" class="node">
<title>67</title>
<ellipse fill="none" stroke="black" cx="845.69" cy="-105" rx="218.26" ry="18"/>
<text text-anchor="start" x="685.69" y="-102.3" font-family="Times,serif" font-size="14.00">(process_name,process_name(user_name))</text>
<text text-anchor="start" x="989.69" y="-102.3" font-family="Times,serif" baseline-shift="sub" font-size="14.00">12</text>
</g>
<!-- 56&#45;&gt;67 -->
<g id="edge8" class="edge">
<title>56&#45;&gt;67</title>
<path fill="none" stroke="black" d="M896.29,-351.38C867.7,-341.39 835.69,-324.59 818.69,-297 786.87,-245.35 813.6,-171.16 831.95,-132.19"/>
<polygon fill="black" stroke="black" points="835.16,-133.6 836.4,-123.08 828.87,-130.53 835.16,-133.6"/>
</g>
<!-- 66 -->
<g id="node5" class="node">
<title>66</title>
<ellipse fill="none" stroke="black" cx="1106.69" cy="-279" rx="279.45" ry="18"/>
<text text-anchor="start" x="899.69" y="-276.3" font-family="Times,serif" font-size="14.00">(IDENTIFIER,process_name,process_name(user_name))</text>
<text text-anchor="start" x="1297.69" y="-276.3" font-family="Times,serif" baseline-shift="sub" font-size="14.00">12</text>
</g>
<!-- 56&#45;&gt;66 -->
<g id="edge6" class="edge">
<title>56&#45;&gt;66</title>
<path fill="none" stroke="black" d="M982.83,-348.81C1006.72,-335.54 1040.76,-316.63 1067.11,-301.99"/>
<polygon fill="black" stroke="black" points="1069.04,-304.92 1076.09,-297 1065.65,-298.8 1069.04,-304.92"/>
</g>
<!-- 61 -->
<g id="node6" class="node">
<title>61</title>
<ellipse fill="none" stroke="black" cx="1676.69" cy="-279" rx="272.15" ry="18"/>
<text text-anchor="start" x="1475.19" y="-276.3" font-family="Times,serif" font-size="14.00">(IDENTIFIER,input,input(&quot;Please enter your name: &quot;))</text>
<text text-anchor="start" x="1862.19" y="-276.3" font-family="Times,serif" baseline-shift="sub" font-size="14.00">11</text>
</g>
<!-- 56&#45;&gt;61 -->
<g id="edge10" class="edge">
<title>56&#45;&gt;61</title>
<path fill="none" stroke="black" d="M1033.48,-355.62C1155.45,-341.28 1389.83,-313.73 1539.46,-296.13"/>
<polygon fill="black" stroke="black" points="1540.12,-299.58 1549.64,-294.94 1539.3,-292.63 1540.12,-299.58"/>
</g>
<!-- 62 -->
<g id="node7" class="node">
<title>62</title>
<ellipse fill="none" stroke="black" cx="522.69" cy="-279" rx="211.46" ry="18"/>
<text text-anchor="start" x="368.19" y="-276.3" font-family="Times,serif" font-size="14.00">(input,input(&quot;Please enter your name: &quot;))</text>
<text text-anchor="start" x="661.19" y="-276.3" font-family="Times,serif" baseline-shift="sub" font-size="14.00">11</text>
</g>
<!-- 56&#45;&gt;62 -->
<g id="edge11" class="edge">
<title>56&#45;&gt;62</title>
<path fill="none" stroke="black" d="M889.63,-352.37C816.17,-337.88 695.24,-314.03 612.42,-297.7"/>
<polygon fill="black" stroke="black" points="613,-294.24 602.52,-295.74 611.65,-301.11 613,-294.24"/>
</g>
<!-- 59 -->
<g id="node2" class="node">
<title>59</title>
<ellipse fill="none" stroke="black" cx="396.69" cy="-18" rx="141.07" ry="18"/>
<text text-anchor="start" x="296.19" y="-15.3" font-family="Times,serif" font-size="14.00">(METHOD_RETURN,ANY)</text>
<text text-anchor="start" x="481.19" y="-15.3" font-family="Times,serif" baseline-shift="sub" font-size="14.00">10</text>
</g>
<!-- 64 -->
<g id="node3" class="node">
<title>64</title>
<ellipse fill="none" stroke="black" cx="362.69" cy="-192" rx="362.84" ry="18"/>
<text text-anchor="start" x="91.69" y="-189.3" font-family="Times,serif" font-size="14.00">(&lt;operator&gt;.assignment,user_name = input(&quot;Please enter your name: &quot;))</text>
<text text-anchor="start" x="617.69" y="-189.3" font-family="Times,serif" baseline-shift="sub" font-size="14.00">11</text>
</g>
<!-- 64&#45;&gt;59 -->
<g id="edge1" class="edge">
<title>64&#45;&gt;59</title>
<path fill="none" stroke="black" d="M174.79,-176.57C101.78,-166.71 30.23,-150.27 7.69,-123 -2.5,-110.67 -2.6,-99.25 7.69,-87 39.22,-49.48 156.85,-32.66 254.58,-25.12"/>
<polygon fill="black" stroke="black" points="254.87,-28.61 264.58,-24.38 254.35,-21.63 254.87,-28.61"/>
<text text-anchor="middle" x="128.19" y="-101.3" font-family="Times,serif" font-size="14.00">input(&quot;Please enter your name: &quot;)</text>
</g>
<!-- 64&#45;&gt;59 -->
<g id="edge2" class="edge">
<title>64&#45;&gt;59</title>
<path fill="none" stroke="black" d="M332.31,-173.98C301.39,-154.3 260.51,-120.34 279.69,-87 292.25,-65.17 314.8,-49.7 336.78,-39.09"/>
<polygon fill="black" stroke="black" points="338.48,-42.17 346.13,-34.84 335.58,-35.79 338.48,-42.17"/>
<text text-anchor="middle" x="449.19" y="-101.3" font-family="Times,serif" font-size="14.00">user_name = input(&quot;Please enter your name: &quot;)</text>
</g>
<!-- 64&#45;&gt;67 -->
<g id="edge7" class="edge">
<title>64&#45;&gt;67</title>
<path fill="none" stroke="black" d="M456.1,-174.56C539.86,-159.82 662.31,-138.27 747.5,-123.28"/>
<polygon fill="black" stroke="black" points="748.19,-126.71 757.43,-121.53 746.98,-119.82 748.19,-126.71"/>
<text text-anchor="middle" x="672.69" y="-144.8" font-family="Times,serif" font-size="14.00">user_name</text>
</g>
<!-- 67&#45;&gt;59 -->
<g id="edge3" class="edge">
<title>67&#45;&gt;59</title>
<path fill="none" stroke="black" d="M748.9,-88.83C712.97,-82.97 671.91,-75.99 634.69,-69 580.76,-58.87 520.25,-46.14 473.74,-36.06"/>
<polygon fill="black" stroke="black" points="474.25,-32.59 463.73,-33.88 472.76,-39.43 474.25,-32.59"/>
<text text-anchor="middle" x="673.69" y="-57.8" font-family="Times,serif" font-size="14.00">user_name</text>
</g>
<!-- 67&#45;&gt;59 -->
<g id="edge4" class="edge">
<title>67&#45;&gt;59</title>
<path fill="none" stroke="black" d="M808.64,-87.22C782.38,-76.04 746.04,-61.98 712.69,-54 654.96,-40.18 589.97,-31.8 534,-26.72"/>
<polygon fill="black" stroke="black" points="534.29,-23.23 524.02,-25.84 533.68,-30.2 534.29,-23.23"/>
<text text-anchor="middle" x="856.19" y="-57.8" font-family="Times,serif" font-size="14.00">process_name(user_name)</text>
</g>
<!-- 62&#45;&gt;64 -->
<g id="edge5" class="edge">
<title>62&#45;&gt;64</title>
<path fill="none" stroke="black" d="M490.7,-261C465.62,-247.68 430.57,-229.06 403.48,-214.67"/>
<polygon fill="black" stroke="black" points="405.1,-211.57 394.63,-209.97 401.82,-217.75 405.1,-211.57"/>
<text text-anchor="middle" x="549.19" y="-231.8" font-family="Times,serif" font-size="14.00">&quot;Please enter your name: &quot;</text>
</g>
<!-- 14 -->
<g id="node8" class="node">
<title>14</title>
<ellipse fill="none" stroke="black" cx="1676.69" cy="-366" rx="27" ry="18"/>
<text text-anchor="middle" x="1676.69" y="-362.3" font-family="Times,serif" font-size="14.00">14</text>
</g>
<!-- 14&#45;&gt;61 -->
<g id="edge9" class="edge">
<title>14&#45;&gt;61</title>
<path fill="none" stroke="black" d="M1676.69,-347.8C1676.69,-336.16 1676.69,-320.55 1676.69,-307.24"/>
<polygon fill="black" stroke="black" points="1680.19,-307.18 1676.69,-297.18 1673.19,-307.18 1680.19,-307.18"/>
<text text-anchor="middle" x="1695.69" y="-318.8" font-family="Times,serif" font-size="14.00">input</text>
</g>
</g>
</svg>
