<?xml version="1.0" encoding="UTF-8" standalone="no"?>
<!DOCTYPE svg PUBLIC "-//W3C//DTD SVG 1.1//EN"
 "http://www.w3.org/Graphics/SVG/1.1/DTD/svg11.dtd">
<!-- Generated by graphviz version 2.43.0 (0)
 -->
<!-- Title: main Pages: 1 -->
<svg width="2031pt" height="392pt"
 viewBox="0.00 0.00 2031.11 392.00" xmlns="http://www.w3.org/2000/svg" xmlns:xlink="http://www.w3.org/1999/xlink">
<g id="graph0" class="graph" transform="scale(1 1) rotate(0) translate(4 388)">
<title>main</title>
<polygon fill="white" stroke="transparent" points="-4,4 -4,-388 2027.11,-388 2027.11,4 -4,4"/>
<!-- 56 -->
<g id="node1" class="node">
<title>56</title>
<ellipse fill="none" stroke="black" cx="1027.79" cy="-366" rx="97.48" ry="18"/>
<text text-anchor="start" x="960.79" y="-363.3" font-family="Times,serif" font-size="14.00">(METHOD,main)</text>
<text text-anchor="start" x="1078.79" y="-363.3" font-family="Times,serif" baseline-shift="sub" font-size="14.00">10</text>
</g>
<!-- 67 -->
<g id="node4" class="node">
<title>67</title>
<ellipse fill="none" stroke="black" cx="930.79" cy="-105" rx="218.26" ry="18"/>
<text text-anchor="start" x="770.79" y="-102.3" font-family="Times,serif" font-size="14.00">(process_name,process_name(user_name))</text>
<text text-anchor="start" x="1074.79" y="-102.3" font-family="Times,serif" baseline-shift="sub" font-size="14.00">12</text>
</g>
<!-- 56&#45;&gt;67 -->
<g id="edge8" class="edge">
<title>56&#45;&gt;67</title>
<path fill="none" stroke="black" d="M970.39,-351.38C941.8,-341.39 909.79,-324.59 892.79,-297 860.67,-244.85 893.03,-170.87 914.7,-132.06"/>
<polygon fill="black" stroke="black" points="917.97,-133.4 919.94,-122.99 911.91,-129.9 917.97,-133.4"/>
<text text-anchor="middle" x="902.29" y="-231.8" font-family="Times,serif" font-size="14.00">DDG: </text>
</g>
<!-- 66 -->
<g id="node5" class="node">
<title>66</title>
<ellipse fill="none" stroke="black" cx="1180.79" cy="-279" rx="279.45" ry="18"/>
<text text-anchor="start" x="973.79" y="-276.3" font-family="Times,serif" font-size="14.00">(IDENTIFIER,process_name,process_name(user_name))</text>
<text text-anchor="start" x="1371.79" y="-276.3" font-family="Times,serif" baseline-shift="sub" font-size="14.00">12</text>
</g>
<!-- 56&#45;&gt;66 -->
<g id="edge6" class="edge">
<title>56&#45;&gt;66</title>
<path fill="none" stroke="black" d="M1056.93,-348.81C1080.81,-335.54 1114.86,-316.63 1141.21,-301.99"/>
<polygon fill="black" stroke="black" points="1143.14,-304.92 1150.18,-297 1139.74,-298.8 1143.14,-304.92"/>
<text text-anchor="middle" x="1135.29" y="-318.8" font-family="Times,serif" font-size="14.00">DDG: </text>
</g>
<!-- 61 -->
<g id="node6" class="node">
<title>61</title>
<ellipse fill="none" stroke="black" cx="1750.79" cy="-279" rx="272.15" ry="18"/>
<text text-anchor="start" x="1549.29" y="-276.3" font-family="Times,serif" font-size="14.00">(IDENTIFIER,input,input(&quot;Please enter your name: &quot;))</text>
<text text-anchor="start" x="1936.29" y="-276.3" font-family="Times,serif" baseline-shift="sub" font-size="14.00">11</text>
</g>
<!-- 56&#45;&gt;61 -->
<g id="edge10" class="edge">
<title>56&#45;&gt;61</title>
<path fill="none" stroke="black" d="M1107.58,-355.62C1229.54,-341.28 1463.92,-313.73 1613.56,-296.13"/>
<polygon fill="black" stroke="black" points="1614.21,-299.58 1623.74,-294.94 1613.4,-292.63 1614.21,-299.58"/>
<text text-anchor="middle" x="1454.29" y="-318.8" font-family="Times,serif" font-size="14.00">DDG: </text>
</g>
<!-- 62 -->
<g id="node7" class="node">
<title>62</title>
<ellipse fill="none" stroke="black" cx="625.79" cy="-279" rx="211.46" ry="18"/>
<text text-anchor="start" x="471.29" y="-276.3" font-family="Times,serif" font-size="14.00">(input,input(&quot;Please enter your name: &quot;))</text>
<text text-anchor="start" x="764.29" y="-276.3" font-family="Times,serif" baseline-shift="sub" font-size="14.00">11</text>
</g>
<!-- 56&#45;&gt;62 -->
<g id="edge11" class="edge">
<title>56&#45;&gt;62</title>
<path fill="none" stroke="black" d="M953.26,-354.34C912.73,-348.12 861.82,-339.61 816.79,-330 775.27,-321.14 729.22,-309.15 692.73,-299.13"/>
<polygon fill="black" stroke="black" points="693.28,-295.65 682.71,-296.36 691.42,-302.4 693.28,-295.65"/>
<text text-anchor="middle" x="838.29" y="-318.8" font-family="Times,serif" font-size="14.00">DDG: </text>
</g>
<!-- 59 -->
<g id="node2" class="node">
<title>59</title>
<ellipse fill="none" stroke="black" cx="438.79" cy="-18" rx="141.07" ry="18"/>
<text text-anchor="start" x="338.29" y="-15.3" font-family="Times,serif" font-size="14.00">(METHOD_RETURN,ANY)</text>
<text text-anchor="start" x="523.29" y="-15.3" font-family="Times,serif" baseline-shift="sub" font-size="14.00">10</text>
</g>
<!-- 64 -->
<g id="node3" class="node">
<title>64</title>
<ellipse fill="none" stroke="black" cx="425.79" cy="-192" rx="362.84" ry="18"/>
<text text-anchor="start" x="154.79" y="-189.3" font-family="Times,serif" font-size="14.00">(&lt;operator&gt;.assignment,user_name = input(&quot;Please enter your name: &quot;))</text>
<text text-anchor="start" x="680.79" y="-189.3" font-family="Times,serif" baseline-shift="sub" font-size="14.00">11</text>
</g>
<!-- 64&#45;&gt;59 -->
<g id="edge1" class="edge">
<title>64&#45;&gt;59</title>
<path fill="none" stroke="black" d="M186.03,-178.49C106.9,-168.97 32.67,-152.26 7.79,-123 -2.58,-110.81 -2.61,-99.16 7.79,-87 43.97,-44.66 180.77,-28.53 290.67,-22.46"/>
<polygon fill="black" stroke="black" points="291.08,-25.94 300.88,-21.92 290.71,-18.95 291.08,-25.94"/>
<text text-anchor="middle" x="149.29" y="-101.3" font-family="Times,serif" font-size="14.00">DDG: input(&quot;Please enter your name: &quot;)</text>
</g>
<!-- 64&#45;&gt;59 -->
<g id="edge2" class="edge">
<title>64&#45;&gt;59</title>
<path fill="none" stroke="black" d="M386.36,-174.08C348.87,-155.37 301.03,-123.07 321.79,-87 334.35,-65.17 356.9,-49.7 378.88,-39.09"/>
<polygon fill="black" stroke="black" points="380.58,-42.17 388.23,-34.84 377.68,-35.79 380.58,-42.17"/>
<text text-anchor="middle" x="512.79" y="-101.3" font-family="Times,serif" font-size="14.00">DDG: user_name = input(&quot;Please enter your name: &quot;)</text>
</g>
<!-- 64&#45;&gt;67 -->
<g id="edge7" class="edge">
<title>64&#45;&gt;67</title>
<path fill="none" stroke="black" d="M523.16,-174.61C611.14,-159.8 740.17,-138.08 829.38,-123.07"/>
<polygon fill="black" stroke="black" points="829.96,-126.52 839.24,-121.41 828.8,-119.62 829.96,-126.52"/>
<text text-anchor="middle" x="769.29" y="-144.8" font-family="Times,serif" font-size="14.00">DDG: user_name</text>
</g>
<!-- 67&#45;&gt;59 -->
<g id="edge3" class="edge">
<title>67&#45;&gt;59</title>
<path fill="none" stroke="black" d="M814.51,-89.72C771.17,-83.94 721.63,-76.79 676.79,-69 622.05,-59.49 560.69,-46.55 513.99,-36.21"/>
<polygon fill="black" stroke="black" points="514.48,-32.73 503.96,-33.98 512.96,-39.57 514.48,-32.73"/>
<text text-anchor="middle" x="737.29" y="-57.8" font-family="Times,serif" font-size="14.00">DDG: user_name</text>
</g>
<!-- 67&#45;&gt;59 -->
<g id="edge4" class="edge">
<title>67&#45;&gt;59</title>
<path fill="none" stroke="black" d="M894.05,-87.2C867.79,-75.94 831.31,-61.79 797.79,-54 728.02,-37.78 648.93,-29.07 582.78,-24.39"/>
<polygon fill="black" stroke="black" points="582.91,-20.89 572.7,-23.71 582.43,-27.88 582.91,-20.89"/>
<text text-anchor="middle" x="962.79" y="-57.8" font-family="Times,serif" font-size="14.00">DDG: process_name(user_name)</text>
</g>
<!-- 62&#45;&gt;64 -->
<g id="edge5" class="edge">
<title>62&#45;&gt;64</title>
<path fill="none" stroke="black" d="M586.27,-261.21C554.33,-247.63 509.19,-228.45 474.92,-213.88"/>
<polygon fill="black" stroke="black" points="476.13,-210.59 465.56,-209.9 473.39,-217.04 476.13,-210.59"/>
<text text-anchor="middle" x="655.29" y="-231.8" font-family="Times,serif" font-size="14.00">DDG: &quot;Please enter your name: &quot;</text>
</g>
<!-- 14 -->
<g id="node8" class="node">
<title>14</title>
<ellipse fill="none" stroke="black" cx="1750.79" cy="-366" rx="27" ry="18"/>
<text text-anchor="middle" x="1750.79" y="-362.3" font-family="Times,serif" font-size="14.00">14</text>
</g>
<!-- 14&#45;&gt;61 -->
<g id="edge9" class="edge">
<title>14&#45;&gt;61</title>
<path fill="none" stroke="black" d="M1750.79,-347.8C1750.79,-336.16 1750.79,-320.55 1750.79,-307.24"/>
<polygon fill="black" stroke="black" points="1754.29,-307.18 1750.79,-297.18 1747.29,-307.18 1754.29,-307.18"/>
<text text-anchor="middle" x="1791.29" y="-318.8" font-family="Times,serif" font-size="14.00">DDG: input</text>
</g>
</g>
</svg>
