<?xml version="1.0" encoding="UTF-8" standalone="no"?>
<!DOCTYPE svg PUBLIC "-//W3C//DTD SVG 1.1//EN"
 "http://www.w3.org/Graphics/SVG/1.1/DTD/svg11.dtd">
<!-- Generated by graphviz version 2.43.0 (0)
 -->
<!-- Title: &lt;operator&gt;.assignment Pages: 1 -->
<svg width="362pt" height="204pt"
 viewBox="0.00 0.00 361.57 204.00" xmlns="http://www.w3.org/2000/svg" xmlns:xlink="http://www.w3.org/1999/xlink">
<g id="graph0" class="graph" transform="scale(1 1) rotate(0) translate(4 200)">
<title>&lt;operator&gt;.assignment</title>
<polygon fill="white" stroke="transparent" points="-4,4 -4,-200 357.57,-200 357.57,4 -4,4"/>
<!-- 95 -->
<g id="node1" class="node">
<title>95</title>
<ellipse fill="none" stroke="black" cx="176.78" cy="-178" rx="176.57" ry="18"/>
<text text-anchor="start" x="48.78" y="-174.3" font-family="Times,serif" font-size="14.00">(METHOD,&lt;operator&gt;.assignment)</text>
</g>
<!-- 96 -->
<g id="node3" class="node">
<title>96</title>
<ellipse fill="none" stroke="black" cx="101.78" cy="-105" rx="66.09" ry="18"/>
<text text-anchor="start" x="58.78" y="-101.3" font-family="Times,serif" font-size="14.00">(PARAM,p1)</text>
</g>
<!-- 95&#45;&gt;96 -->
<g id="edge3" class="edge">
<title>95&#45;&gt;96</title>
<path fill="none" stroke="black" d="M158.63,-159.81C149,-150.7 137.03,-139.37 126.56,-129.45"/>
<polygon fill="black" stroke="black" points="128.92,-126.87 119.26,-122.54 124.11,-131.96 128.92,-126.87"/>
</g>
<!-- 97 -->
<g id="node4" class="node">
<title>97</title>
<ellipse fill="none" stroke="black" cx="252.78" cy="-105" rx="66.09" ry="18"/>
<text text-anchor="start" x="209.78" y="-101.3" font-family="Times,serif" font-size="14.00">(PARAM,p2)</text>
</g>
<!-- 95&#45;&gt;97 -->
<g id="edge4" class="edge">
<title>95&#45;&gt;97</title>
<path fill="none" stroke="black" d="M195.18,-159.81C204.94,-150.7 217.07,-139.37 227.68,-129.45"/>
<polygon fill="black" stroke="black" points="230.16,-131.92 235.08,-122.54 225.38,-126.81 230.16,-131.92"/>
</g>
<!-- 99 -->
<g id="node2" class="node">
<title>99</title>
<ellipse fill="none" stroke="black" cx="176.78" cy="-18" rx="130.78" ry="18"/>
<text text-anchor="start" x="84.28" y="-14.3" font-family="Times,serif" font-size="14.00">(METHOD_RETURN,ANY)</text>
</g>
<!-- 96&#45;&gt;99 -->
<g id="edge1" class="edge">
<title>96&#45;&gt;99</title>
<path fill="none" stroke="black" d="M116.6,-87.21C127.52,-74.83 142.55,-57.8 154.86,-43.85"/>
<polygon fill="black" stroke="black" points="157.75,-45.86 161.74,-36.05 152.5,-41.23 157.75,-45.86"/>
<text text-anchor="middle" x="153.28" y="-57.8" font-family="Times,serif" font-size="14.00">p1</text>
</g>
<!-- 97&#45;&gt;99 -->
<g id="edge2" class="edge">
<title>97&#45;&gt;99</title>
<path fill="none" stroke="black" d="M237.77,-87.21C226.7,-74.83 211.47,-57.8 199,-43.85"/>
<polygon fill="black" stroke="black" points="201.3,-41.17 192.03,-36.05 196.08,-45.84 201.3,-41.17"/>
<text text-anchor="middle" x="229.28" y="-57.8" font-family="Times,serif" font-size="14.00">p2</text>
</g>
</g>
</svg>
