<?xml version="1.0" encoding="UTF-8" standalone="no"?>
<!DOCTYPE svg PUBLIC "-//W3C//DTD SVG 1.1//EN"
 "http://www.w3.org/Graphics/SVG/1.1/DTD/svg11.dtd">
<!-- Generated by graphviz version 2.43.0 (0)
 -->
<!-- Title: &lt;operator&gt;.assignment Pages: 1 -->
<svg width="362pt" height="218pt"
 viewBox="0.00 0.00 361.57 218.00" xmlns="http://www.w3.org/2000/svg" xmlns:xlink="http://www.w3.org/1999/xlink">
<g id="graph0" class="graph" transform="scale(1 1) rotate(0) translate(4 214)">
<title>&lt;operator&gt;.assignment</title>
<polygon fill="white" stroke="transparent" points="-4,4 -4,-214 357.57,-214 357.57,4 -4,4"/>
<!-- 95 -->
<g id="node1" class="node">
<title>95</title>
<ellipse fill="none" stroke="black" cx="176.78" cy="-192" rx="176.57" ry="18"/>
<text text-anchor="start" x="48.78" y="-188.3" font-family="Times,serif" font-size="14.00">(METHOD,&lt;operator&gt;.assignment)</text>
</g>
<!-- 96 -->
<g id="node3" class="node">
<title>96</title>
<ellipse fill="none" stroke="black" cx="101.78" cy="-105" rx="66.09" ry="18"/>
<text text-anchor="start" x="58.78" y="-101.3" font-family="Times,serif" font-size="14.00">(PARAM,p1)</text>
</g>
<!-- 95&#45;&gt;96 -->
<g id="edge3" class="edge">
<title>95&#45;&gt;96</title>
<path fill="none" stroke="black" d="M161.61,-173.8C150.59,-161.31 135.52,-144.24 123.27,-130.35"/>
<polygon fill="black" stroke="black" points="125.67,-127.78 116.43,-122.6 120.42,-132.41 125.67,-127.78"/>
<text text-anchor="middle" x="165.28" y="-144.8" font-family="Times,serif" font-size="14.00">DDG: </text>
</g>
<!-- 97 -->
<g id="node4" class="node">
<title>97</title>
<ellipse fill="none" stroke="black" cx="252.78" cy="-105" rx="66.09" ry="18"/>
<text text-anchor="start" x="209.78" y="-101.3" font-family="Times,serif" font-size="14.00">(PARAM,p2)</text>
</g>
<!-- 95&#45;&gt;97 -->
<g id="edge4" class="edge">
<title>95&#45;&gt;97</title>
<path fill="none" stroke="black" d="M192.16,-173.8C203.33,-161.31 218.6,-144.24 231.01,-130.35"/>
<polygon fill="black" stroke="black" points="233.89,-132.38 237.94,-122.6 228.67,-127.72 233.89,-132.38"/>
<text text-anchor="middle" x="241.28" y="-144.8" font-family="Times,serif" font-size="14.00">DDG: </text>
</g>
<!-- 99 -->
<g id="node2" class="node">
<title>99</title>
<ellipse fill="none" stroke="black" cx="176.78" cy="-18" rx="130.78" ry="18"/>
<text text-anchor="start" x="84.28" y="-14.3" font-family="Times,serif" font-size="14.00">(METHOD_RETURN,ANY)</text>
</g>
<!-- 96&#45;&gt;99 -->
<g id="edge1" class="edge">
<title>96&#45;&gt;99</title>
<path fill="none" stroke="black" d="M116.6,-87.21C127.52,-74.83 142.55,-57.8 154.86,-43.85"/>
<polygon fill="black" stroke="black" points="157.75,-45.86 161.74,-36.05 152.5,-41.23 157.75,-45.86"/>
<text text-anchor="middle" x="174.28" y="-57.8" font-family="Times,serif" font-size="14.00">DDG: p1</text>
</g>
<!-- 97&#45;&gt;99 -->
<g id="edge2" class="edge">
<title>97&#45;&gt;99</title>
<path fill="none" stroke="black" d="M238.2,-87.26C229.67,-77.52 218.67,-65.02 208.78,-54 205.73,-50.6 202.5,-47.03 199.31,-43.52"/>
<polygon fill="black" stroke="black" points="201.8,-41.06 192.47,-36.03 196.63,-45.78 201.8,-41.06"/>
<text text-anchor="middle" x="252.28" y="-57.8" font-family="Times,serif" font-size="14.00">DDG: p2</text>
</g>
</g>
</svg>
