<?xml version="1.0" encoding="UTF-8" standalone="no"?>
<!DOCTYPE svg PUBLIC "-//W3C//DTD SVG 1.1//EN"
 "http://www.w3.org/Graphics/SVG/1.1/DTD/svg11.dtd">
<!-- Generated by graphviz version 2.43.0 (0)
 -->
<!-- Title: &lt;operator&gt;.listLiteral Pages: 1 -->
<svg width="582pt" height="116pt"
 viewBox="0.00 0.00 581.53 116.00" xmlns="http://www.w3.org/2000/svg" xmlns:xlink="http://www.w3.org/1999/xlink">
<g id="graph0" class="graph" transform="scale(1 1) rotate(0) translate(4 112)">
<title>&lt;operator&gt;.listLiteral</title>
<polygon fill="white" stroke="transparent" points="-4,4 -4,-112 577.53,-112 577.53,4 -4,4"/>
<!-- 100 -->
<g id="node1" class="node">
<title>100</title>
<ellipse fill="none" stroke="black" cx="294.89" cy="-90" rx="168.17" ry="18"/>
<text text-anchor="start" x="173.39" y="-86.3" font-family="Times,serif" font-size="14.00">(METHOD,&lt;operator&gt;.listLiteral)</text>
</g>
<!-- 101 -->
<g id="node2" class="node">
<title>101</title>
<ellipse fill="none" stroke="black" cx="146.89" cy="-18" rx="146.77" ry="18"/>
<text text-anchor="start" x="41.89" y="-14.3" font-family="Times,serif" font-size="14.00">(BLOCK,&lt;empty&gt;,&lt;empty&gt;)</text>
</g>
<!-- 100&#45;&gt;101 -->
<g id="edge1" class="edge">
<title>100&#45;&gt;101</title>
<path fill="none" stroke="black" d="M259.44,-72.23C238.86,-62.5 212.76,-50.16 190.88,-39.81"/>
<polygon fill="black" stroke="black" points="192.33,-36.62 181.79,-35.51 189.34,-42.95 192.33,-36.62"/>
</g>
<!-- 102 -->
<g id="node3" class="node">
<title>102</title>
<ellipse fill="none" stroke="black" cx="442.89" cy="-18" rx="130.78" ry="18"/>
<text text-anchor="start" x="350.39" y="-14.3" font-family="Times,serif" font-size="14.00">(METHOD_RETURN,ANY)</text>
</g>
<!-- 100&#45;&gt;102 -->
<g id="edge2" class="edge">
<title>100&#45;&gt;102</title>
<path fill="none" stroke="black" d="M330.34,-72.23C350.99,-62.47 377.2,-50.07 399.13,-39.7"/>
<polygon fill="black" stroke="black" points="400.69,-42.83 408.24,-35.39 397.7,-36.5 400.69,-42.83"/>
</g>
</g>
</svg>
