<?xml version="1.0" encoding="UTF-8" standalone="no"?>
<!DOCTYPE svg PUBLIC "-//W3C//DTD SVG 1.1//EN"
 "http://www.w3.org/Graphics/SVG/1.1/DTD/svg11.dtd">
<!-- Generated by graphviz version 2.43.0 (0)
 -->
<!-- Title: &lt;operator&gt;.listLiteral Pages: 1 -->
<svg width="582pt" height="131pt"
 viewBox="0.00 0.00 581.53 131.00" xmlns="http://www.w3.org/2000/svg" xmlns:xlink="http://www.w3.org/1999/xlink">
<g id="graph0" class="graph" transform="scale(1 1) rotate(0) translate(4 127)">
<title>&lt;operator&gt;.listLiteral</title>
<polygon fill="white" stroke="transparent" points="-4,4 -4,-127 577.53,-127 577.53,4 -4,4"/>
<!-- 100 -->
<g id="node1" class="node">
<title>100</title>
<ellipse fill="none" stroke="black" cx="381.89" cy="-105" rx="168.17" ry="18"/>
<text text-anchor="start" x="260.39" y="-101.3" font-family="Times,serif" font-size="14.00">(METHOD,&lt;operator&gt;.listLiteral)</text>
</g>
<!-- 101 -->
<g id="node2" class="node">
<title>101</title>
<ellipse fill="none" stroke="black" cx="146.89" cy="-18" rx="146.77" ry="18"/>
<text text-anchor="start" x="41.89" y="-14.3" font-family="Times,serif" font-size="14.00">(BLOCK,&lt;empty&gt;,&lt;empty&gt;)</text>
</g>
<!-- 100&#45;&gt;101 -->
<g id="edge1" class="edge">
<title>100&#45;&gt;101</title>
<path fill="none" stroke="black" d="M336.58,-87.61C297.93,-73.63 242.27,-53.5 201.23,-38.66"/>
<polygon fill="black" stroke="black" points="202.25,-35.3 191.66,-35.19 199.87,-41.89 202.25,-35.3"/>
<text text-anchor="middle" x="297.89" y="-57.8" font-family="Times,serif" font-size="14.00">AST: </text>
</g>
<!-- 102 -->
<g id="node3" class="node">
<title>102</title>
<ellipse fill="none" stroke="black" cx="442.89" cy="-18" rx="130.78" ry="18"/>
<text text-anchor="start" x="350.39" y="-14.3" font-family="Times,serif" font-size="14.00">(METHOD_RETURN,ANY)</text>
</g>
<!-- 100&#45;&gt;102 -->
<g id="edge2" class="edge">
<title>100&#45;&gt;102</title>
<path fill="none" stroke="black" d="M378.22,-86.66C377,-76.47 377.17,-63.73 382.89,-54 385.71,-49.19 389.48,-44.98 393.75,-41.3"/>
<polygon fill="black" stroke="black" points="395.95,-44.03 401.89,-35.25 391.77,-38.41 395.95,-44.03"/>
<text text-anchor="middle" x="401.89" y="-57.8" font-family="Times,serif" font-size="14.00">AST: </text>
</g>
<!-- 100&#45;&gt;102 -->
<g id="edge3" class="edge">
<title>100&#45;&gt;102</title>
<path fill="none" stroke="black" d="M404.16,-86.94C410.11,-81.65 416.19,-75.48 420.89,-69 426.03,-61.9 430.33,-53.41 433.72,-45.46"/>
<polygon fill="black" stroke="black" points="436.97,-46.74 437.4,-36.16 430.47,-44.17 436.97,-46.74"/>
<text text-anchor="middle" x="449.39" y="-57.8" font-family="Times,serif" font-size="14.00">CFG: </text>
</g>
</g>
</svg>
