<?xml version="1.0" encoding="UTF-8" standalone="no"?>
<!DOCTYPE svg PUBLIC "-//W3C//DTD SVG 1.1//EN"
 "http://www.w3.org/Graphics/SVG/1.1/DTD/svg11.dtd">
<!-- Generated by graphviz version 2.43.0 (0)
 -->
<!-- Title: &lt;operator&gt;.fieldAccess Pages: 1 -->
<svg width="356pt" height="204pt"
 viewBox="0.00 0.00 356.37 204.00" xmlns="http://www.w3.org/2000/svg" xmlns:xlink="http://www.w3.org/1999/xlink">
<g id="graph0" class="graph" transform="scale(1 1) rotate(0) translate(4 200)">
<title>&lt;operator&gt;.fieldAccess</title>
<polygon fill="white" stroke="transparent" points="-4,4 -4,-200 352.37,-200 352.37,4 -4,4"/>
<!-- 103 -->
<g id="node1" class="node">
<title>103</title>
<ellipse fill="none" stroke="black" cx="174.18" cy="-178" rx="174.37" ry="18"/>
<text text-anchor="start" x="48.18" y="-174.3" font-family="Times,serif" font-size="14.00">(METHOD,&lt;operator&gt;.fieldAccess)</text>
</g>
<!-- 104 -->
<g id="node3" class="node">
<title>104</title>
<ellipse fill="none" stroke="black" cx="99.18" cy="-105" rx="66.09" ry="18"/>
<text text-anchor="start" x="56.18" y="-101.3" font-family="Times,serif" font-size="14.00">(PARAM,p1)</text>
</g>
<!-- 103&#45;&gt;104 -->
<g id="edge3" class="edge">
<title>103&#45;&gt;104</title>
<path fill="none" stroke="black" d="M156.03,-159.81C146.4,-150.7 134.43,-139.37 123.96,-129.45"/>
<polygon fill="black" stroke="black" points="126.32,-126.87 116.66,-122.54 121.51,-131.96 126.32,-126.87"/>
</g>
<!-- 105 -->
<g id="node4" class="node">
<title>105</title>
<ellipse fill="none" stroke="black" cx="250.18" cy="-105" rx="66.09" ry="18"/>
<text text-anchor="start" x="207.18" y="-101.3" font-family="Times,serif" font-size="14.00">(PARAM,p2)</text>
</g>
<!-- 103&#45;&gt;105 -->
<g id="edge4" class="edge">
<title>103&#45;&gt;105</title>
<path fill="none" stroke="black" d="M192.58,-159.81C202.34,-150.7 214.47,-139.37 225.08,-129.45"/>
<polygon fill="black" stroke="black" points="227.56,-131.92 232.48,-122.54 222.78,-126.81 227.56,-131.92"/>
</g>
<!-- 107 -->
<g id="node2" class="node">
<title>107</title>
<ellipse fill="none" stroke="black" cx="174.18" cy="-18" rx="130.78" ry="18"/>
<text text-anchor="start" x="81.68" y="-14.3" font-family="Times,serif" font-size="14.00">(METHOD_RETURN,ANY)</text>
</g>
<!-- 104&#45;&gt;107 -->
<g id="edge1" class="edge">
<title>104&#45;&gt;107</title>
<path fill="none" stroke="black" d="M114,-87.21C124.92,-74.83 139.95,-57.8 152.26,-43.85"/>
<polygon fill="black" stroke="black" points="155.15,-45.86 159.14,-36.05 149.9,-41.23 155.15,-45.86"/>
<text text-anchor="middle" x="150.68" y="-57.8" font-family="Times,serif" font-size="14.00">p1</text>
</g>
<!-- 105&#45;&gt;107 -->
<g id="edge2" class="edge">
<title>105&#45;&gt;107</title>
<path fill="none" stroke="black" d="M235.17,-87.21C224.1,-74.83 208.87,-57.8 196.4,-43.85"/>
<polygon fill="black" stroke="black" points="198.7,-41.17 189.43,-36.05 193.48,-45.84 198.7,-41.17"/>
<text text-anchor="middle" x="226.68" y="-57.8" font-family="Times,serif" font-size="14.00">p2</text>
</g>
</g>
</svg>
