<?xml version="1.0" encoding="UTF-8" standalone="no"?>
<!DOCTYPE svg PUBLIC "-//W3C//DTD SVG 1.1//EN"
 "http://www.w3.org/Graphics/SVG/1.1/DTD/svg11.dtd">
<!-- Generated by graphviz version 2.43.0 (0)
 -->
<!-- Title: &lt;operator&gt;.fieldAccess Pages: 1 -->
<svg width="356pt" height="218pt"
 viewBox="0.00 0.00 356.37 218.00" xmlns="http://www.w3.org/2000/svg" xmlns:xlink="http://www.w3.org/1999/xlink">
<g id="graph0" class="graph" transform="scale(1 1) rotate(0) translate(4 214)">
<title>&lt;operator&gt;.fieldAccess</title>
<polygon fill="white" stroke="transparent" points="-4,4 -4,-214 352.37,-214 352.37,4 -4,4"/>
<!-- 103 -->
<g id="node1" class="node">
<title>103</title>
<ellipse fill="none" stroke="black" cx="174.18" cy="-192" rx="174.37" ry="18"/>
<text text-anchor="start" x="48.18" y="-188.3" font-family="Times,serif" font-size="14.00">(METHOD,&lt;operator&gt;.fieldAccess)</text>
</g>
<!-- 104 -->
<g id="node3" class="node">
<title>104</title>
<ellipse fill="none" stroke="black" cx="99.18" cy="-105" rx="66.09" ry="18"/>
<text text-anchor="start" x="56.18" y="-101.3" font-family="Times,serif" font-size="14.00">(PARAM,p1)</text>
</g>
<!-- 103&#45;&gt;104 -->
<g id="edge3" class="edge">
<title>103&#45;&gt;104</title>
<path fill="none" stroke="black" d="M159.01,-173.8C147.99,-161.31 132.92,-144.24 120.67,-130.35"/>
<polygon fill="black" stroke="black" points="123.07,-127.78 113.83,-122.6 117.82,-132.41 123.07,-127.78"/>
<text text-anchor="middle" x="162.68" y="-144.8" font-family="Times,serif" font-size="14.00">DDG: </text>
</g>
<!-- 105 -->
<g id="node4" class="node">
<title>105</title>
<ellipse fill="none" stroke="black" cx="250.18" cy="-105" rx="66.09" ry="18"/>
<text text-anchor="start" x="207.18" y="-101.3" font-family="Times,serif" font-size="14.00">(PARAM,p2)</text>
</g>
<!-- 103&#45;&gt;105 -->
<g id="edge4" class="edge">
<title>103&#45;&gt;105</title>
<path fill="none" stroke="black" d="M189.56,-173.8C200.73,-161.31 216,-144.24 228.41,-130.35"/>
<polygon fill="black" stroke="black" points="231.29,-132.38 235.34,-122.6 226.07,-127.72 231.29,-132.38"/>
<text text-anchor="middle" x="238.68" y="-144.8" font-family="Times,serif" font-size="14.00">DDG: </text>
</g>
<!-- 107 -->
<g id="node2" class="node">
<title>107</title>
<ellipse fill="none" stroke="black" cx="174.18" cy="-18" rx="130.78" ry="18"/>
<text text-anchor="start" x="81.68" y="-14.3" font-family="Times,serif" font-size="14.00">(METHOD_RETURN,ANY)</text>
</g>
<!-- 104&#45;&gt;107 -->
<g id="edge1" class="edge">
<title>104&#45;&gt;107</title>
<path fill="none" stroke="black" d="M114,-87.21C124.92,-74.83 139.95,-57.8 152.26,-43.85"/>
<polygon fill="black" stroke="black" points="155.15,-45.86 159.14,-36.05 149.9,-41.23 155.15,-45.86"/>
<text text-anchor="middle" x="171.68" y="-57.8" font-family="Times,serif" font-size="14.00">DDG: p1</text>
</g>
<!-- 105&#45;&gt;107 -->
<g id="edge2" class="edge">
<title>105&#45;&gt;107</title>
<path fill="none" stroke="black" d="M235.6,-87.26C227.07,-77.52 216.07,-65.02 206.18,-54 203.13,-50.6 199.9,-47.03 196.71,-43.52"/>
<polygon fill="black" stroke="black" points="199.2,-41.06 189.87,-36.03 194.03,-45.78 199.2,-41.06"/>
<text text-anchor="middle" x="249.68" y="-57.8" font-family="Times,serif" font-size="14.00">DDG: p2</text>
</g>
</g>
</svg>
