<?xml version="1.0" encoding="UTF-8" standalone="no"?>
<!DOCTYPE svg PUBLIC "-//W3C//DTD SVG 1.1//EN"
 "http://www.w3.org/Graphics/SVG/1.1/DTD/svg11.dtd">
<!-- Generated by graphviz version 2.43.0 (0)
 -->
<!-- Title: &lt;operator&gt;.indexAccess Pages: 1 -->
<svg width="883pt" height="116pt"
 viewBox="0.00 0.00 882.93 116.00" xmlns="http://www.w3.org/2000/svg" xmlns:xlink="http://www.w3.org/1999/xlink">
<g id="graph0" class="graph" transform="scale(1 1) rotate(0) translate(4 112)">
<title>&lt;operator&gt;.indexAccess</title>
<polygon fill="white" stroke="transparent" points="-4,4 -4,-112 878.93,-112 878.93,4 -4,4"/>
<!-- 108 -->
<g id="node1" class="node">
<title>108</title>
<ellipse fill="none" stroke="black" cx="332.29" cy="-90" rx="179.27" ry="18"/>
<text text-anchor="start" x="202.29" y="-86.3" font-family="Times,serif" font-size="14.00">(METHOD,&lt;operator&gt;.indexAccess)</text>
</g>
<!-- 109 -->
<g id="node2" class="node">
<title>109</title>
<ellipse fill="none" stroke="black" cx="66.29" cy="-18" rx="66.09" ry="18"/>
<text text-anchor="start" x="23.29" y="-14.3" font-family="Times,serif" font-size="14.00">(PARAM,p1)</text>
</g>
<!-- 108&#45;&gt;109 -->
<g id="edge1" class="edge">
<title>108&#45;&gt;109</title>
<path fill="none" stroke="black" d="M271.6,-73.03C226.65,-61.2 165.86,-45.2 122.12,-33.69"/>
<polygon fill="black" stroke="black" points="122.78,-30.25 112.22,-31.09 121,-37.01 122.78,-30.25"/>
</g>
<!-- 110 -->
<g id="node3" class="node">
<title>110</title>
<ellipse fill="none" stroke="black" cx="217.29" cy="-18" rx="66.09" ry="18"/>
<text text-anchor="start" x="174.29" y="-14.3" font-family="Times,serif" font-size="14.00">(PARAM,p2)</text>
</g>
<!-- 108&#45;&gt;110 -->
<g id="edge3" class="edge">
<title>108&#45;&gt;110</title>
<path fill="none" stroke="black" d="M304.46,-72.05C288.75,-62.5 268.98,-50.46 252.24,-40.27"/>
<polygon fill="black" stroke="black" points="253.66,-37.04 243.3,-34.83 250.02,-43.02 253.66,-37.04"/>
</g>
<!-- 111 -->
<g id="node4" class="node">
<title>111</title>
<ellipse fill="none" stroke="black" cx="448.29" cy="-18" rx="146.77" ry="18"/>
<text text-anchor="start" x="343.29" y="-14.3" font-family="Times,serif" font-size="14.00">(BLOCK,&lt;empty&gt;,&lt;empty&gt;)</text>
</g>
<!-- 108&#45;&gt;111 -->
<g id="edge2" class="edge">
<title>108&#45;&gt;111</title>
<path fill="none" stroke="black" d="M360.37,-72.05C375.76,-62.77 395.02,-51.15 411.59,-41.15"/>
<polygon fill="black" stroke="black" points="413.72,-43.95 420.47,-35.79 410.1,-37.96 413.72,-43.95"/>
</g>
<!-- 112 -->
<g id="node5" class="node">
<title>112</title>
<ellipse fill="none" stroke="black" cx="744.29" cy="-18" rx="130.78" ry="18"/>
<text text-anchor="start" x="651.79" y="-14.3" font-family="Times,serif" font-size="14.00">(METHOD_RETURN,ANY)</text>
</g>
<!-- 108&#45;&gt;112 -->
<g id="edge4" class="edge">
<title>108&#45;&gt;112</title>
<path fill="none" stroke="black" d="M419.17,-74.24C488.58,-62.45 585.5,-45.98 655.44,-34.1"/>
<polygon fill="black" stroke="black" points="656.28,-37.5 665.55,-32.38 655.11,-30.6 656.28,-37.5"/>
</g>
</g>
</svg>
