<?xml version="1.0" encoding="UTF-8" standalone="no"?>
<!DOCTYPE svg PUBLIC "-//W3C//DTD SVG 1.1//EN"
 "http://www.w3.org/Graphics/SVG/1.1/DTD/svg11.dtd">
<!-- Generated by graphviz version 2.43.0 (0)
 -->
<!-- Title: &lt;operator&gt;.indexAccess Pages: 1 -->
<svg width="708pt" height="218pt"
 viewBox="0.00 0.00 708.29 218.00" xmlns="http://www.w3.org/2000/svg" xmlns:xlink="http://www.w3.org/1999/xlink">
<g id="graph0" class="graph" transform="scale(1 1) rotate(0) translate(4 214)">
<title>&lt;operator&gt;.indexAccess</title>
<polygon fill="white" stroke="transparent" points="-4,4 -4,-214 704.29,-214 704.29,4 -4,4"/>
<!-- 108 -->
<g id="node1" class="node">
<title>108</title>
<ellipse fill="none" stroke="black" cx="278.29" cy="-192" rx="179.27" ry="18"/>
<text text-anchor="start" x="148.29" y="-188.3" font-family="Times,serif" font-size="14.00">(METHOD,&lt;operator&gt;.indexAccess)</text>
</g>
<!-- 109 -->
<g id="node2" class="node">
<title>109</title>
<ellipse fill="none" stroke="black" cx="66.29" cy="-105" rx="66.09" ry="18"/>
<text text-anchor="start" x="23.29" y="-101.3" font-family="Times,serif" font-size="14.00">(PARAM,p1)</text>
</g>
<!-- 108&#45;&gt;109 -->
<g id="edge1" class="edge">
<title>108&#45;&gt;109</title>
<path fill="none" stroke="black" d="M157.24,-178.68C125.81,-173.39 97.37,-166.04 85.29,-156 78.31,-150.2 73.89,-141.54 71.1,-133.05"/>
<polygon fill="black" stroke="black" points="74.47,-132.1 68.5,-123.34 67.7,-133.9 74.47,-132.1"/>
<text text-anchor="middle" x="104.29" y="-144.8" font-family="Times,serif" font-size="14.00">AST: </text>
</g>
<!-- 108&#45;&gt;109 -->
<g id="edge8" class="edge">
<title>108&#45;&gt;109</title>
<path fill="none" stroke="black" d="M220.69,-174.94C203.03,-169.5 183.68,-163.01 166.29,-156 144.89,-147.37 121.79,-135.97 103.2,-126.23"/>
<polygon fill="black" stroke="black" points="104.66,-123.05 94.18,-121.46 101.38,-129.24 104.66,-123.05"/>
<text text-anchor="middle" x="187.79" y="-144.8" font-family="Times,serif" font-size="14.00">DDG: </text>
</g>
<!-- 110 -->
<g id="node3" class="node">
<title>110</title>
<ellipse fill="none" stroke="black" cx="217.29" cy="-105" rx="66.09" ry="18"/>
<text text-anchor="start" x="174.29" y="-101.3" font-family="Times,serif" font-size="14.00">(PARAM,p2)</text>
</g>
<!-- 108&#45;&gt;110 -->
<g id="edge3" class="edge">
<title>108&#45;&gt;110</title>
<path fill="none" stroke="black" d="M236.68,-174.35C229.36,-169.53 222.69,-163.49 218.29,-156 214.36,-149.31 213.05,-141.2 213.02,-133.47"/>
<polygon fill="black" stroke="black" points="216.52,-133.53 213.63,-123.34 209.53,-133.11 216.52,-133.53"/>
<text text-anchor="middle" x="237.29" y="-144.8" font-family="Times,serif" font-size="14.00">AST: </text>
</g>
<!-- 108&#45;&gt;110 -->
<g id="edge9" class="edge">
<title>108&#45;&gt;110</title>
<path fill="none" stroke="black" d="M272.81,-173.84C269.09,-163.72 263.53,-150.98 256.29,-141 253.38,-136.98 249.93,-133.07 246.31,-129.43"/>
<polygon fill="black" stroke="black" points="248.45,-126.63 238.76,-122.34 243.66,-131.74 248.45,-126.63"/>
<text text-anchor="middle" x="285.79" y="-144.8" font-family="Times,serif" font-size="14.00">DDG: </text>
</g>
<!-- 111 -->
<g id="node4" class="node">
<title>111</title>
<ellipse fill="none" stroke="black" cx="448.29" cy="-105" rx="146.77" ry="18"/>
<text text-anchor="start" x="343.29" y="-101.3" font-family="Times,serif" font-size="14.00">(BLOCK,&lt;empty&gt;,&lt;empty&gt;)</text>
</g>
<!-- 108&#45;&gt;111 -->
<g id="edge2" class="edge">
<title>108&#45;&gt;111</title>
<path fill="none" stroke="black" d="M311.88,-174.21C338.86,-160.72 376.91,-141.69 405.97,-127.16"/>
<polygon fill="black" stroke="black" points="407.69,-130.22 415.07,-122.61 404.56,-123.96 407.69,-130.22"/>
<text text-anchor="middle" x="392.29" y="-144.8" font-family="Times,serif" font-size="14.00">AST: </text>
</g>
<!-- 112 -->
<g id="node5" class="node">
<title>112</title>
<ellipse fill="none" stroke="black" cx="527.29" cy="-18" rx="130.78" ry="18"/>
<text text-anchor="start" x="434.79" y="-14.3" font-family="Times,serif" font-size="14.00">(METHOD_RETURN,ANY)</text>
</g>
<!-- 108&#45;&gt;112 -->
<g id="edge4" class="edge">
<title>108&#45;&gt;112</title>
<path fill="none" stroke="black" d="M412.32,-179.98C491.03,-170.41 579.77,-153.17 604.29,-123 626.41,-95.79 592.93,-63.1 563.43,-41.72"/>
<polygon fill="black" stroke="black" points="565.07,-38.6 554.87,-35.74 561.06,-44.34 565.07,-38.6"/>
<text text-anchor="middle" x="630.29" y="-101.3" font-family="Times,serif" font-size="14.00">AST: </text>
</g>
<!-- 108&#45;&gt;112 -->
<g id="edge5" class="edge">
<title>108&#45;&gt;112</title>
<path fill="none" stroke="black" d="M439.97,-184.18C530.14,-176.29 629.09,-159.35 653.29,-123 677.24,-87.04 628.08,-57.05 584.34,-38.66"/>
<polygon fill="black" stroke="black" points="585.41,-35.32 574.83,-34.8 582.78,-41.81 585.41,-35.32"/>
<text text-anchor="middle" x="679.79" y="-101.3" font-family="Times,serif" font-size="14.00">CFG: </text>
</g>
<!-- 109&#45;&gt;112 -->
<g id="edge6" class="edge">
<title>109&#45;&gt;112</title>
<path fill="none" stroke="black" d="M113.71,-92.22C158.52,-81.35 227.7,-65.24 288.29,-54 333.05,-45.7 382.82,-38.14 425.31,-32.19"/>
<polygon fill="black" stroke="black" points="425.96,-35.64 435.38,-30.79 424.99,-28.7 425.96,-35.64"/>
<text text-anchor="middle" x="318.79" y="-57.8" font-family="Times,serif" font-size="14.00">DDG: p1</text>
</g>
<!-- 110&#45;&gt;112 -->
<g id="edge7" class="edge">
<title>110&#45;&gt;112</title>
<path fill="none" stroke="black" d="M262.37,-91.64C314.78,-77.27 401.75,-53.42 461.66,-37"/>
<polygon fill="black" stroke="black" points="462.68,-40.35 471.4,-34.33 460.83,-33.59 462.68,-40.35"/>
<text text-anchor="middle" x="420.79" y="-57.8" font-family="Times,serif" font-size="14.00">DDG: p2</text>
</g>
</g>
</svg>
