<?xml version="1.0" encoding="UTF-8" standalone="no"?>
<!DOCTYPE svg PUBLIC "-//W3C//DTD SVG 1.1//EN"
 "http://www.w3.org/Graphics/SVG/1.1/DTD/svg11.dtd">
<!-- Generated by graphviz version 2.43.0 (0)
 -->
<!-- Title: &lt;operator&gt;.indexAccess Pages: 1 -->
<svg width="367pt" height="204pt"
 viewBox="0.00 0.00 366.77 204.00" xmlns="http://www.w3.org/2000/svg" xmlns:xlink="http://www.w3.org/1999/xlink">
<g id="graph0" class="graph" transform="scale(1 1) rotate(0) translate(4 200)">
<title>&lt;operator&gt;.indexAccess</title>
<polygon fill="white" stroke="transparent" points="-4,4 -4,-200 362.77,-200 362.77,4 -4,4"/>
<!-- 108 -->
<g id="node1" class="node">
<title>108</title>
<ellipse fill="none" stroke="black" cx="179.38" cy="-178" rx="179.27" ry="18"/>
<text text-anchor="start" x="49.38" y="-174.3" font-family="Times,serif" font-size="14.00">(METHOD,&lt;operator&gt;.indexAccess)</text>
</g>
<!-- 109 -->
<g id="node3" class="node">
<title>109</title>
<ellipse fill="none" stroke="black" cx="104.38" cy="-105" rx="66.09" ry="18"/>
<text text-anchor="start" x="61.38" y="-101.3" font-family="Times,serif" font-size="14.00">(PARAM,p1)</text>
</g>
<!-- 108&#45;&gt;109 -->
<g id="edge3" class="edge">
<title>108&#45;&gt;109</title>
<path fill="none" stroke="black" d="M161.23,-159.81C151.6,-150.7 139.63,-139.37 129.16,-129.45"/>
<polygon fill="black" stroke="black" points="131.52,-126.87 121.86,-122.54 126.71,-131.96 131.52,-126.87"/>
</g>
<!-- 110 -->
<g id="node4" class="node">
<title>110</title>
<ellipse fill="none" stroke="black" cx="255.38" cy="-105" rx="66.09" ry="18"/>
<text text-anchor="start" x="212.38" y="-101.3" font-family="Times,serif" font-size="14.00">(PARAM,p2)</text>
</g>
<!-- 108&#45;&gt;110 -->
<g id="edge4" class="edge">
<title>108&#45;&gt;110</title>
<path fill="none" stroke="black" d="M197.78,-159.81C207.54,-150.7 219.67,-139.37 230.28,-129.45"/>
<polygon fill="black" stroke="black" points="232.76,-131.92 237.68,-122.54 227.98,-126.81 232.76,-131.92"/>
</g>
<!-- 112 -->
<g id="node2" class="node">
<title>112</title>
<ellipse fill="none" stroke="black" cx="179.38" cy="-18" rx="130.78" ry="18"/>
<text text-anchor="start" x="86.88" y="-14.3" font-family="Times,serif" font-size="14.00">(METHOD_RETURN,ANY)</text>
</g>
<!-- 109&#45;&gt;112 -->
<g id="edge1" class="edge">
<title>109&#45;&gt;112</title>
<path fill="none" stroke="black" d="M119.2,-87.21C130.12,-74.83 145.15,-57.8 157.46,-43.85"/>
<polygon fill="black" stroke="black" points="160.35,-45.86 164.34,-36.05 155.1,-41.23 160.35,-45.86"/>
<text text-anchor="middle" x="155.88" y="-57.8" font-family="Times,serif" font-size="14.00">p1</text>
</g>
<!-- 110&#45;&gt;112 -->
<g id="edge2" class="edge">
<title>110&#45;&gt;112</title>
<path fill="none" stroke="black" d="M240.37,-87.21C229.3,-74.83 214.07,-57.8 201.6,-43.85"/>
<polygon fill="black" stroke="black" points="203.9,-41.17 194.63,-36.05 198.68,-45.84 203.9,-41.17"/>
<text text-anchor="middle" x="231.88" y="-57.8" font-family="Times,serif" font-size="14.00">p2</text>
</g>
</g>
</svg>
