<?xml version="1.0" encoding="UTF-8" standalone="no"?>
<!DOCTYPE svg PUBLIC "-//W3C//DTD SVG 1.1//EN"
 "http://www.w3.org/Graphics/SVG/1.1/DTD/svg11.dtd">
<!-- Generated by graphviz version 2.43.0 (0)
 -->
<!-- Title: &lt;operator&gt;.indexAccess Pages: 1 -->
<svg width="367pt" height="218pt"
 viewBox="0.00 0.00 366.77 218.00" xmlns="http://www.w3.org/2000/svg" xmlns:xlink="http://www.w3.org/1999/xlink">
<g id="graph0" class="graph" transform="scale(1 1) rotate(0) translate(4 214)">
<title>&lt;operator&gt;.indexAccess</title>
<polygon fill="white" stroke="transparent" points="-4,4 -4,-214 362.77,-214 362.77,4 -4,4"/>
<!-- 108 -->
<g id="node1" class="node">
<title>108</title>
<ellipse fill="none" stroke="black" cx="179.38" cy="-192" rx="179.27" ry="18"/>
<text text-anchor="start" x="49.38" y="-188.3" font-family="Times,serif" font-size="14.00">(METHOD,&lt;operator&gt;.indexAccess)</text>
</g>
<!-- 109 -->
<g id="node3" class="node">
<title>109</title>
<ellipse fill="none" stroke="black" cx="104.38" cy="-105" rx="66.09" ry="18"/>
<text text-anchor="start" x="61.38" y="-101.3" font-family="Times,serif" font-size="14.00">(PARAM,p1)</text>
</g>
<!-- 108&#45;&gt;109 -->
<g id="edge3" class="edge">
<title>108&#45;&gt;109</title>
<path fill="none" stroke="black" d="M164.21,-173.8C153.19,-161.31 138.12,-144.24 125.87,-130.35"/>
<polygon fill="black" stroke="black" points="128.27,-127.78 119.03,-122.6 123.02,-132.41 128.27,-127.78"/>
<text text-anchor="middle" x="167.88" y="-144.8" font-family="Times,serif" font-size="14.00">DDG: </text>
</g>
<!-- 110 -->
<g id="node4" class="node">
<title>110</title>
<ellipse fill="none" stroke="black" cx="255.38" cy="-105" rx="66.09" ry="18"/>
<text text-anchor="start" x="212.38" y="-101.3" font-family="Times,serif" font-size="14.00">(PARAM,p2)</text>
</g>
<!-- 108&#45;&gt;110 -->
<g id="edge4" class="edge">
<title>108&#45;&gt;110</title>
<path fill="none" stroke="black" d="M194.76,-173.8C205.93,-161.31 221.2,-144.24 233.61,-130.35"/>
<polygon fill="black" stroke="black" points="236.49,-132.38 240.54,-122.6 231.27,-127.72 236.49,-132.38"/>
<text text-anchor="middle" x="243.88" y="-144.8" font-family="Times,serif" font-size="14.00">DDG: </text>
</g>
<!-- 112 -->
<g id="node2" class="node">
<title>112</title>
<ellipse fill="none" stroke="black" cx="179.38" cy="-18" rx="130.78" ry="18"/>
<text text-anchor="start" x="86.88" y="-14.3" font-family="Times,serif" font-size="14.00">(METHOD_RETURN,ANY)</text>
</g>
<!-- 109&#45;&gt;112 -->
<g id="edge1" class="edge">
<title>109&#45;&gt;112</title>
<path fill="none" stroke="black" d="M119.2,-87.21C130.12,-74.83 145.15,-57.8 157.46,-43.85"/>
<polygon fill="black" stroke="black" points="160.35,-45.86 164.34,-36.05 155.1,-41.23 160.35,-45.86"/>
<text text-anchor="middle" x="176.88" y="-57.8" font-family="Times,serif" font-size="14.00">DDG: p1</text>
</g>
<!-- 110&#45;&gt;112 -->
<g id="edge2" class="edge">
<title>110&#45;&gt;112</title>
<path fill="none" stroke="black" d="M240.8,-87.26C232.27,-77.52 221.27,-65.02 211.38,-54 208.33,-50.6 205.1,-47.03 201.91,-43.52"/>
<polygon fill="black" stroke="black" points="204.4,-41.06 195.07,-36.03 199.23,-45.78 204.4,-41.06"/>
<text text-anchor="middle" x="254.88" y="-57.8" font-family="Times,serif" font-size="14.00">DDG: p2</text>
</g>
</g>
</svg>
