<?xml version="1.0" encoding="UTF-8" standalone="no"?>
<!DOCTYPE svg PUBLIC "-//W3C//DTD SVG 1.1//EN"
 "http://www.w3.org/Graphics/SVG/1.1/DTD/svg11.dtd">
<!-- Generated by graphviz version 2.43.0 (0)
 -->
<!-- Title: append Pages: 1 -->
<svg width="1034pt" height="116pt"
 viewBox="0.00 0.00 1033.93 116.00" xmlns="http://www.w3.org/2000/svg" xmlns:xlink="http://www.w3.org/1999/xlink">
<g id="graph0" class="graph" transform="scale(1 1) rotate(0) translate(4 112)">
<title>append</title>
<polygon fill="white" stroke="transparent" points="-4,4 -4,-112 1029.93,-112 1029.93,4 -4,4"/>
<!-- 120 -->
<g id="node1" class="node">
<title>120</title>
<ellipse fill="none" stroke="black" cx="368.29" cy="-90" rx="98.58" ry="18"/>
<text text-anchor="start" x="300.29" y="-86.3" font-family="Times,serif" font-size="14.00">(METHOD,append)</text>
</g>
<!-- 121 -->
<g id="node2" class="node">
<title>121</title>
<ellipse fill="none" stroke="black" cx="66.29" cy="-18" rx="66.09" ry="18"/>
<text text-anchor="start" x="23.29" y="-14.3" font-family="Times,serif" font-size="14.00">(PARAM,p0)</text>
</g>
<!-- 120&#45;&gt;121 -->
<g id="edge1" class="edge">
<title>120&#45;&gt;121</title>
<path fill="none" stroke="black" d="M309.71,-75.42C256.53,-63.09 178.51,-45.01 125.22,-32.66"/>
<polygon fill="black" stroke="black" points="125.77,-29.19 115.24,-30.35 124.19,-36.01 125.77,-29.19"/>
</g>
<!-- 122 -->
<g id="node3" class="node">
<title>122</title>
<ellipse fill="none" stroke="black" cx="217.29" cy="-18" rx="66.09" ry="18"/>
<text text-anchor="start" x="174.29" y="-14.3" font-family="Times,serif" font-size="14.00">(PARAM,p1)</text>
</g>
<!-- 120&#45;&gt;122 -->
<g id="edge2" class="edge">
<title>120&#45;&gt;122</title>
<path fill="none" stroke="black" d="M334.03,-73.12C311.6,-62.72 282.16,-49.07 258.46,-38.08"/>
<polygon fill="black" stroke="black" points="259.9,-34.89 249.36,-33.86 256.96,-41.25 259.9,-34.89"/>
</g>
<!-- 123 -->
<g id="node4" class="node">
<title>123</title>
<ellipse fill="none" stroke="black" cx="368.29" cy="-18" rx="66.09" ry="18"/>
<text text-anchor="start" x="325.29" y="-14.3" font-family="Times,serif" font-size="14.00">(PARAM,p2)</text>
</g>
<!-- 120&#45;&gt;123 -->
<g id="edge4" class="edge">
<title>120&#45;&gt;123</title>
<path fill="none" stroke="black" d="M368.29,-71.7C368.29,-63.98 368.29,-54.71 368.29,-46.11"/>
<polygon fill="black" stroke="black" points="371.79,-46.1 368.29,-36.1 364.79,-46.1 371.79,-46.1"/>
</g>
<!-- 124 -->
<g id="node5" class="node">
<title>124</title>
<ellipse fill="none" stroke="black" cx="599.29" cy="-18" rx="146.77" ry="18"/>
<text text-anchor="start" x="494.29" y="-14.3" font-family="Times,serif" font-size="14.00">(BLOCK,&lt;empty&gt;,&lt;empty&gt;)</text>
</g>
<!-- 120&#45;&gt;124 -->
<g id="edge3" class="edge">
<title>120&#45;&gt;124</title>
<path fill="none" stroke="black" d="M417,-74.24C452,-63.64 499.46,-49.25 537.18,-37.82"/>
<polygon fill="black" stroke="black" points="538.48,-41.08 547.04,-34.83 536.45,-34.39 538.48,-41.08"/>
</g>
<!-- 125 -->
<g id="node6" class="node">
<title>125</title>
<ellipse fill="none" stroke="black" cx="895.29" cy="-18" rx="130.78" ry="18"/>
<text text-anchor="start" x="802.79" y="-14.3" font-family="Times,serif" font-size="14.00">(METHOD_RETURN,ANY)</text>
</g>
<!-- 120&#45;&gt;125 -->
<g id="edge5" class="edge">
<title>120&#45;&gt;125</title>
<path fill="none" stroke="black" d="M445.49,-78.75C537.9,-66.47 692.91,-45.88 794.64,-32.37"/>
<polygon fill="black" stroke="black" points="795.17,-35.83 804.62,-31.04 794.25,-28.89 795.17,-35.83"/>
</g>
</g>
</svg>
