<?xml version="1.0" encoding="UTF-8" standalone="no"?>
<!DOCTYPE svg PUBLIC "-//W3C//DTD SVG 1.1//EN"
 "http://www.w3.org/Graphics/SVG/1.1/DTD/svg11.dtd">
<!-- Generated by graphviz version 2.43.0 (0)
 -->
<!-- Title: append Pages: 1 -->
<svg width="1034pt" height="131pt"
 viewBox="0.00 0.00 1033.93 131.00" xmlns="http://www.w3.org/2000/svg" xmlns:xlink="http://www.w3.org/1999/xlink">
<g id="graph0" class="graph" transform="scale(1 1) rotate(0) translate(4 127)">
<title>append</title>
<polygon fill="white" stroke="transparent" points="-4,4 -4,-127 1029.93,-127 1029.93,4 -4,4"/>
<!-- 120 -->
<g id="node1" class="node">
<title>120</title>
<ellipse fill="none" stroke="black" cx="368.29" cy="-105" rx="98.58" ry="18"/>
<text text-anchor="start" x="300.29" y="-101.3" font-family="Times,serif" font-size="14.00">(METHOD,append)</text>
</g>
<!-- 121 -->
<g id="node2" class="node">
<title>121</title>
<ellipse fill="none" stroke="black" cx="66.29" cy="-18" rx="66.09" ry="18"/>
<text text-anchor="start" x="23.29" y="-14.3" font-family="Times,serif" font-size="14.00">(PARAM,p0)</text>
</g>
<!-- 120&#45;&gt;121 -->
<g id="edge1" class="edge">
<title>120&#45;&gt;121</title>
<path fill="none" stroke="black" d="M316.17,-89.59C293.47,-83.3 266.56,-75.82 242.29,-69 201.38,-57.51 155.16,-44.37 120.35,-34.45"/>
<polygon fill="black" stroke="black" points="120.97,-30.98 110.4,-31.61 119.05,-37.71 120.97,-30.98"/>
<text text-anchor="middle" x="261.29" y="-57.8" font-family="Times,serif" font-size="14.00">AST: </text>
</g>
<!-- 122 -->
<g id="node3" class="node">
<title>122</title>
<ellipse fill="none" stroke="black" cx="217.29" cy="-18" rx="66.09" ry="18"/>
<text text-anchor="start" x="174.29" y="-14.3" font-family="Times,serif" font-size="14.00">(PARAM,p1)</text>
</g>
<!-- 120&#45;&gt;122 -->
<g id="edge2" class="edge">
<title>120&#45;&gt;122</title>
<path fill="none" stroke="black" d="M339.18,-87.61C314.8,-73.89 279.89,-54.24 253.67,-39.48"/>
<polygon fill="black" stroke="black" points="255.22,-36.33 244.79,-34.48 251.79,-42.43 255.22,-36.33"/>
<text text-anchor="middle" x="321.29" y="-57.8" font-family="Times,serif" font-size="14.00">AST: </text>
</g>
<!-- 123 -->
<g id="node4" class="node">
<title>123</title>
<ellipse fill="none" stroke="black" cx="368.29" cy="-18" rx="66.09" ry="18"/>
<text text-anchor="start" x="325.29" y="-14.3" font-family="Times,serif" font-size="14.00">(PARAM,p2)</text>
</g>
<!-- 120&#45;&gt;123 -->
<g id="edge4" class="edge">
<title>120&#45;&gt;123</title>
<path fill="none" stroke="black" d="M368.29,-86.8C368.29,-75.16 368.29,-59.55 368.29,-46.24"/>
<polygon fill="black" stroke="black" points="371.79,-46.18 368.29,-36.18 364.79,-46.18 371.79,-46.18"/>
<text text-anchor="middle" x="387.29" y="-57.8" font-family="Times,serif" font-size="14.00">AST: </text>
</g>
<!-- 124 -->
<g id="node5" class="node">
<title>124</title>
<ellipse fill="none" stroke="black" cx="599.29" cy="-18" rx="146.77" ry="18"/>
<text text-anchor="start" x="494.29" y="-14.3" font-family="Times,serif" font-size="14.00">(BLOCK,&lt;empty&gt;,&lt;empty&gt;)</text>
</g>
<!-- 120&#45;&gt;124 -->
<g id="edge3" class="edge">
<title>120&#45;&gt;124</title>
<path fill="none" stroke="black" d="M410.13,-88.61C448.04,-74.66 504.13,-54.02 545.4,-38.83"/>
<polygon fill="black" stroke="black" points="546.84,-42.03 555.02,-35.29 544.43,-35.46 546.84,-42.03"/>
<text text-anchor="middle" x="517.29" y="-57.8" font-family="Times,serif" font-size="14.00">AST: </text>
</g>
<!-- 125 -->
<g id="node6" class="node">
<title>125</title>
<ellipse fill="none" stroke="black" cx="895.29" cy="-18" rx="130.78" ry="18"/>
<text text-anchor="start" x="802.79" y="-14.3" font-family="Times,serif" font-size="14.00">(METHOD_RETURN,ANY)</text>
</g>
<!-- 120&#45;&gt;125 -->
<g id="edge5" class="edge">
<title>120&#45;&gt;125</title>
<path fill="none" stroke="black" d="M439.64,-92.49C533.93,-77.28 700.17,-50.47 803.66,-33.78"/>
<polygon fill="black" stroke="black" points="804.47,-37.19 813.79,-32.15 803.36,-30.28 804.47,-37.19"/>
<text text-anchor="middle" x="683.29" y="-57.8" font-family="Times,serif" font-size="14.00">AST: </text>
</g>
</g>
</svg>
