<?xml version="1.0" encoding="UTF-8" standalone="no"?>
<!DOCTYPE svg PUBLIC "-//W3C//DTD SVG 1.1//EN"
 "http://www.w3.org/Graphics/SVG/1.1/DTD/svg11.dtd">
<!-- Generated by graphviz version 2.43.0 (0)
 -->
<!-- Title: print Pages: 1 -->
<svg width="883pt" height="116pt"
 viewBox="0.00 0.00 882.93 116.00" xmlns="http://www.w3.org/2000/svg" xmlns:xlink="http://www.w3.org/1999/xlink">
<g id="graph0" class="graph" transform="scale(1 1) rotate(0) translate(4 112)">
<title>print</title>
<polygon fill="white" stroke="transparent" points="-4,4 -4,-112 878.93,-112 878.93,4 -4,4"/>
<!-- 126 -->
<g id="node1" class="node">
<title>126</title>
<ellipse fill="none" stroke="black" cx="332.29" cy="-90" rx="87.18" ry="18"/>
<text text-anchor="start" x="273.29" y="-86.3" font-family="Times,serif" font-size="14.00">(METHOD,print)</text>
</g>
<!-- 127 -->
<g id="node2" class="node">
<title>127</title>
<ellipse fill="none" stroke="black" cx="66.29" cy="-18" rx="66.09" ry="18"/>
<text text-anchor="start" x="23.29" y="-14.3" font-family="Times,serif" font-size="14.00">(PARAM,p0)</text>
</g>
<!-- 126&#45;&gt;127 -->
<g id="edge1" class="edge">
<title>126&#45;&gt;127</title>
<path fill="none" stroke="black" d="M280.69,-75.42C235.13,-63.43 168.87,-45.99 122.09,-33.68"/>
<polygon fill="black" stroke="black" points="122.98,-30.3 112.42,-31.14 121.2,-37.07 122.98,-30.3"/>
</g>
<!-- 128 -->
<g id="node3" class="node">
<title>128</title>
<ellipse fill="none" stroke="black" cx="217.29" cy="-18" rx="66.09" ry="18"/>
<text text-anchor="start" x="174.29" y="-14.3" font-family="Times,serif" font-size="14.00">(PARAM,p1)</text>
</g>
<!-- 126&#45;&gt;128 -->
<g id="edge2" class="edge">
<title>126&#45;&gt;128</title>
<path fill="none" stroke="black" d="M305.62,-72.76C289.57,-63 268.98,-50.46 251.71,-39.95"/>
<polygon fill="black" stroke="black" points="253.39,-36.88 243.03,-34.67 249.75,-42.86 253.39,-36.88"/>
</g>
<!-- 129 -->
<g id="node4" class="node">
<title>129</title>
<ellipse fill="none" stroke="black" cx="448.29" cy="-18" rx="146.77" ry="18"/>
<text text-anchor="start" x="343.29" y="-14.3" font-family="Times,serif" font-size="14.00">(BLOCK,&lt;empty&gt;,&lt;empty&gt;)</text>
</g>
<!-- 126&#45;&gt;129 -->
<g id="edge3" class="edge">
<title>126&#45;&gt;129</title>
<path fill="none" stroke="black" d="M359.2,-72.76C374.81,-63.34 394.7,-51.34 411.72,-41.07"/>
<polygon fill="black" stroke="black" points="413.57,-44.04 420.32,-35.88 409.95,-38.05 413.57,-44.04"/>
</g>
<!-- 130 -->
<g id="node5" class="node">
<title>130</title>
<ellipse fill="none" stroke="black" cx="744.29" cy="-18" rx="130.78" ry="18"/>
<text text-anchor="start" x="651.79" y="-14.3" font-family="Times,serif" font-size="14.00">(METHOD_RETURN,ANY)</text>
</g>
<!-- 126&#45;&gt;130 -->
<g id="edge4" class="edge">
<title>126&#45;&gt;130</title>
<path fill="none" stroke="black" d="M397.58,-77.91C467.17,-66.08 577.82,-47.28 655.35,-34.11"/>
<polygon fill="black" stroke="black" points="656.31,-37.5 665.59,-32.37 655.14,-30.6 656.31,-37.5"/>
</g>
</g>
</svg>
