<?xml version="1.0" encoding="UTF-8" standalone="no"?>
<!DOCTYPE svg PUBLIC "-//W3C//DTD SVG 1.1//EN"
 "http://www.w3.org/Graphics/SVG/1.1/DTD/svg11.dtd">
<!-- Generated by graphviz version 2.43.0 (0)
 -->
<!-- Title: print Pages: 1 -->
<svg width="883pt" height="131pt"
 viewBox="0.00 0.00 882.93 131.00" xmlns="http://www.w3.org/2000/svg" xmlns:xlink="http://www.w3.org/1999/xlink">
<g id="graph0" class="graph" transform="scale(1 1) rotate(0) translate(4 127)">
<title>print</title>
<polygon fill="white" stroke="transparent" points="-4,4 -4,-127 878.93,-127 878.93,4 -4,4"/>
<!-- 126 -->
<g id="node1" class="node">
<title>126</title>
<ellipse fill="none" stroke="black" cx="332.29" cy="-105" rx="87.18" ry="18"/>
<text text-anchor="start" x="273.29" y="-101.3" font-family="Times,serif" font-size="14.00">(METHOD,print)</text>
</g>
<!-- 127 -->
<g id="node2" class="node">
<title>127</title>
<ellipse fill="none" stroke="black" cx="66.29" cy="-18" rx="66.09" ry="18"/>
<text text-anchor="start" x="23.29" y="-14.3" font-family="Times,serif" font-size="14.00">(PARAM,p0)</text>
</g>
<!-- 126&#45;&gt;127 -->
<g id="edge1" class="edge">
<title>126&#45;&gt;127</title>
<path fill="none" stroke="black" d="M287.17,-89.58C240.16,-74.56 166.64,-51.07 117.49,-35.36"/>
<polygon fill="black" stroke="black" points="118.29,-31.94 107.69,-32.23 116.15,-38.61 118.29,-31.94"/>
<text text-anchor="middle" x="234.29" y="-57.8" font-family="Times,serif" font-size="14.00">AST: </text>
</g>
<!-- 128 -->
<g id="node3" class="node">
<title>128</title>
<ellipse fill="none" stroke="black" cx="217.29" cy="-18" rx="66.09" ry="18"/>
<text text-anchor="start" x="174.29" y="-14.3" font-family="Times,serif" font-size="14.00">(PARAM,p1)</text>
</g>
<!-- 126&#45;&gt;128 -->
<g id="edge2" class="edge">
<title>126&#45;&gt;128</title>
<path fill="none" stroke="black" d="M309.85,-87.41C292.08,-74.28 267.1,-55.81 247.57,-41.37"/>
<polygon fill="black" stroke="black" points="249.42,-38.39 239.29,-35.26 245.25,-44.02 249.42,-38.39"/>
<text text-anchor="middle" x="301.29" y="-57.8" font-family="Times,serif" font-size="14.00">AST: </text>
</g>
<!-- 129 -->
<g id="node4" class="node">
<title>129</title>
<ellipse fill="none" stroke="black" cx="448.29" cy="-18" rx="146.77" ry="18"/>
<text text-anchor="start" x="343.29" y="-14.3" font-family="Times,serif" font-size="14.00">(BLOCK,&lt;empty&gt;,&lt;empty&gt;)</text>
</g>
<!-- 126&#45;&gt;129 -->
<g id="edge3" class="edge">
<title>126&#45;&gt;129</title>
<path fill="none" stroke="black" d="M354.94,-87.41C372.63,-74.45 397.41,-56.28 417,-41.93"/>
<polygon fill="black" stroke="black" points="419.32,-44.57 425.31,-35.84 415.18,-38.93 419.32,-44.57"/>
<text text-anchor="middle" x="416.29" y="-57.8" font-family="Times,serif" font-size="14.00">AST: </text>
</g>
<!-- 130 -->
<g id="node5" class="node">
<title>130</title>
<ellipse fill="none" stroke="black" cx="744.29" cy="-18" rx="130.78" ry="18"/>
<text text-anchor="start" x="651.79" y="-14.3" font-family="Times,serif" font-size="14.00">(METHOD_RETURN,ANY)</text>
</g>
<!-- 126&#45;&gt;130 -->
<g id="edge4" class="edge">
<title>126&#45;&gt;130</title>
<path fill="none" stroke="black" d="M391.76,-91.73C463.67,-76.9 584.98,-51.87 664.85,-35.39"/>
<polygon fill="black" stroke="black" points="665.77,-38.77 674.86,-33.32 664.36,-31.92 665.77,-38.77"/>
<text text-anchor="middle" x="582.29" y="-57.8" font-family="Times,serif" font-size="14.00">AST: </text>
</g>
</g>
</svg>
