<?xml version="1.0" encoding="UTF-8" standalone="no"?>
<!DOCTYPE svg PUBLIC "-//W3C//DTD SVG 1.1//EN"
 "http://www.w3.org/Graphics/SVG/1.1/DTD/svg11.dtd">
<!-- Generated by graphviz version 2.43.0 (0)
 -->
<!-- Title: input Pages: 1 -->
<svg width="883pt" height="116pt"
 viewBox="0.00 0.00 882.93 116.00" xmlns="http://www.w3.org/2000/svg" xmlns:xlink="http://www.w3.org/1999/xlink">
<g id="graph0" class="graph" transform="scale(1 1) rotate(0) translate(4 112)">
<title>input</title>
<polygon fill="white" stroke="transparent" points="-4,4 -4,-112 878.93,-112 878.93,4 -4,4"/>
<!-- 131 -->
<g id="node1" class="node">
<title>131</title>
<ellipse fill="none" stroke="black" cx="332.29" cy="-90" rx="89.08" ry="18"/>
<text text-anchor="start" x="271.79" y="-86.3" font-family="Times,serif" font-size="14.00">(METHOD,input)</text>
</g>
<!-- 132 -->
<g id="node2" class="node">
<title>132</title>
<ellipse fill="none" stroke="black" cx="66.29" cy="-18" rx="66.09" ry="18"/>
<text text-anchor="start" x="23.29" y="-14.3" font-family="Times,serif" font-size="14.00">(PARAM,p0)</text>
</g>
<!-- 131&#45;&gt;132 -->
<g id="edge1" class="edge">
<title>131&#45;&gt;132</title>
<path fill="none" stroke="black" d="M280.38,-75.34C234.88,-63.36 168.91,-46 122.25,-33.73"/>
<polygon fill="black" stroke="black" points="122.87,-30.27 112.31,-31.11 121.09,-37.04 122.87,-30.27"/>
</g>
<!-- 133 -->
<g id="node3" class="node">
<title>133</title>
<ellipse fill="none" stroke="black" cx="217.29" cy="-18" rx="66.09" ry="18"/>
<text text-anchor="start" x="174.29" y="-14.3" font-family="Times,serif" font-size="14.00">(PARAM,p1)</text>
</g>
<!-- 131&#45;&gt;133 -->
<g id="edge2" class="edge">
<title>131&#45;&gt;133</title>
<path fill="none" stroke="black" d="M305.62,-72.76C289.57,-63 268.98,-50.46 251.71,-39.95"/>
<polygon fill="black" stroke="black" points="253.39,-36.88 243.03,-34.67 249.75,-42.86 253.39,-36.88"/>
</g>
<!-- 134 -->
<g id="node4" class="node">
<title>134</title>
<ellipse fill="none" stroke="black" cx="448.29" cy="-18" rx="146.77" ry="18"/>
<text text-anchor="start" x="343.29" y="-14.3" font-family="Times,serif" font-size="14.00">(BLOCK,&lt;empty&gt;,&lt;empty&gt;)</text>
</g>
<!-- 131&#45;&gt;134 -->
<g id="edge3" class="edge">
<title>131&#45;&gt;134</title>
<path fill="none" stroke="black" d="M359.2,-72.76C374.81,-63.34 394.7,-51.34 411.72,-41.07"/>
<polygon fill="black" stroke="black" points="413.57,-44.04 420.32,-35.88 409.95,-38.05 413.57,-44.04"/>
</g>
<!-- 135 -->
<g id="node5" class="node">
<title>135</title>
<ellipse fill="none" stroke="black" cx="744.29" cy="-18" rx="130.78" ry="18"/>
<text text-anchor="start" x="651.79" y="-14.3" font-family="Times,serif" font-size="14.00">(METHOD_RETURN,ANY)</text>
</g>
<!-- 131&#45;&gt;135 -->
<g id="edge4" class="edge">
<title>131&#45;&gt;135</title>
<path fill="none" stroke="black" d="M398.03,-77.83C467.61,-66.01 577.84,-47.28 655.19,-34.14"/>
<polygon fill="black" stroke="black" points="656.13,-37.53 665.4,-32.4 654.96,-30.63 656.13,-37.53"/>
</g>
</g>
</svg>
