<?xml version="1.0" encoding="UTF-8" standalone="no"?>
<!DOCTYPE svg PUBLIC "-//W3C//DTD SVG 1.1//EN"
 "http://www.w3.org/Graphics/SVG/1.1/DTD/svg11.dtd">
<!-- Generated by graphviz version 2.43.0 (0)
 -->
<!-- Title: input Pages: 1 -->
<svg width="883pt" height="131pt"
 viewBox="0.00 0.00 882.93 131.00" xmlns="http://www.w3.org/2000/svg" xmlns:xlink="http://www.w3.org/1999/xlink">
<g id="graph0" class="graph" transform="scale(1 1) rotate(0) translate(4 127)">
<title>input</title>
<polygon fill="white" stroke="transparent" points="-4,4 -4,-127 878.93,-127 878.93,4 -4,4"/>
<!-- 131 -->
<g id="node1" class="node">
<title>131</title>
<ellipse fill="none" stroke="black" cx="332.29" cy="-105" rx="89.08" ry="18"/>
<text text-anchor="start" x="271.79" y="-101.3" font-family="Times,serif" font-size="14.00">(METHOD,input)</text>
</g>
<!-- 132 -->
<g id="node2" class="node">
<title>132</title>
<ellipse fill="none" stroke="black" cx="66.29" cy="-18" rx="66.09" ry="18"/>
<text text-anchor="start" x="23.29" y="-14.3" font-family="Times,serif" font-size="14.00">(PARAM,p0)</text>
</g>
<!-- 131&#45;&gt;132 -->
<g id="edge1" class="edge">
<title>131&#45;&gt;132</title>
<path fill="none" stroke="black" d="M286.87,-89.48C239.81,-74.45 166.42,-50.99 117.37,-35.32"/>
<polygon fill="black" stroke="black" points="118.19,-31.91 107.6,-32.2 116.06,-38.58 118.19,-31.91"/>
<text text-anchor="middle" x="234.29" y="-57.8" font-family="Times,serif" font-size="14.00">AST: </text>
</g>
<!-- 133 -->
<g id="node3" class="node">
<title>133</title>
<ellipse fill="none" stroke="black" cx="217.29" cy="-18" rx="66.09" ry="18"/>
<text text-anchor="start" x="174.29" y="-14.3" font-family="Times,serif" font-size="14.00">(PARAM,p1)</text>
</g>
<!-- 131&#45;&gt;133 -->
<g id="edge2" class="edge">
<title>131&#45;&gt;133</title>
<path fill="none" stroke="black" d="M309.85,-87.41C292.08,-74.28 267.1,-55.81 247.57,-41.37"/>
<polygon fill="black" stroke="black" points="249.42,-38.39 239.29,-35.26 245.25,-44.02 249.42,-38.39"/>
<text text-anchor="middle" x="301.29" y="-57.8" font-family="Times,serif" font-size="14.00">AST: </text>
</g>
<!-- 134 -->
<g id="node4" class="node">
<title>134</title>
<ellipse fill="none" stroke="black" cx="448.29" cy="-18" rx="146.77" ry="18"/>
<text text-anchor="start" x="343.29" y="-14.3" font-family="Times,serif" font-size="14.00">(BLOCK,&lt;empty&gt;,&lt;empty&gt;)</text>
</g>
<!-- 131&#45;&gt;134 -->
<g id="edge3" class="edge">
<title>131&#45;&gt;134</title>
<path fill="none" stroke="black" d="M354.94,-87.41C372.63,-74.45 397.41,-56.28 417,-41.93"/>
<polygon fill="black" stroke="black" points="419.32,-44.57 425.31,-35.84 415.18,-38.93 419.32,-44.57"/>
<text text-anchor="middle" x="416.29" y="-57.8" font-family="Times,serif" font-size="14.00">AST: </text>
</g>
<!-- 135 -->
<g id="node5" class="node">
<title>135</title>
<ellipse fill="none" stroke="black" cx="744.29" cy="-18" rx="130.78" ry="18"/>
<text text-anchor="start" x="651.79" y="-14.3" font-family="Times,serif" font-size="14.00">(METHOD_RETURN,ANY)</text>
</g>
<!-- 131&#45;&gt;135 -->
<g id="edge4" class="edge">
<title>131&#45;&gt;135</title>
<path fill="none" stroke="black" d="M392.2,-91.64C464.22,-76.78 585.32,-51.8 665.03,-35.35"/>
<polygon fill="black" stroke="black" points="665.93,-38.74 675.02,-33.29 664.52,-31.88 665.93,-38.74"/>
<text text-anchor="middle" x="582.29" y="-57.8" font-family="Times,serif" font-size="14.00">AST: </text>
</g>
</g>
</svg>
